<mxfile host="65bd71144e">
    <diagram id="tM4XJ5G_B5s1a8b2hdhE" name="Page-1">
        <mxGraphModel dx="2426" dy="1131" grid="1" gridSize="10" guides="1" tooltips="1" connect="1" arrows="1" fold="1" page="1" pageScale="1" pageWidth="850" pageHeight="1100" background="none" math="0" shadow="0">
            <root>
                <mxCell id="0"/>
                <mxCell id="1" parent="0"/>
                <mxCell id="2" value="&lt;font style=&quot;font-size: 30px;&quot;&gt;Convolution 0&lt;/font&gt;" style="rounded=0;whiteSpace=wrap;html=1;strokeWidth=2;" parent="1" vertex="1">
                    <mxGeometry x="330" y="370" width="190" height="60" as="geometry"/>
                </mxCell>
                <mxCell id="3" value="&lt;font style=&quot;font-size: 30px;&quot;&gt;SPADE Norm 0&lt;/font&gt;" style="rounded=0;whiteSpace=wrap;html=1;strokeWidth=2;" parent="1" vertex="1">
                    <mxGeometry x="590" y="350" width="160" height="100" as="geometry"/>
                </mxCell>
                <mxCell id="4" value="&lt;font style=&quot;font-size: 30px;&quot;&gt;ReLU activation&lt;/font&gt;" style="rounded=0;whiteSpace=wrap;html=1;strokeWidth=2;" parent="1" vertex="1">
                    <mxGeometry x="790" y="530" width="170" height="100" as="geometry"/>
                </mxCell>
                <mxCell id="5" value="&lt;font style=&quot;font-size: 30px;&quot;&gt;Convolution 1&lt;/font&gt;" style="rounded=0;whiteSpace=wrap;html=1;strokeWidth=2;" parent="1" vertex="1">
                    <mxGeometry x="330" y="550" width="190" height="60" as="geometry"/>
                </mxCell>
                <mxCell id="6" value="&lt;font style=&quot;font-size: 30px;&quot;&gt;SPADE Norm 1&lt;/font&gt;" style="rounded=0;whiteSpace=wrap;html=1;strokeWidth=2;" parent="1" vertex="1">
                    <mxGeometry x="590" y="530" width="160" height="100" as="geometry"/>
                </mxCell>
                <mxCell id="7" value="&lt;font style=&quot;font-size: 30px;&quot;&gt;ReLU activation&lt;/font&gt;" style="rounded=0;whiteSpace=wrap;html=1;strokeWidth=2;" parent="1" vertex="1">
                    <mxGeometry x="790" y="350" width="170" height="100" as="geometry"/>
                </mxCell>
                <mxCell id="13" value="" style="shape=image;verticalLabelPosition=bottom;labelBackgroundColor=default;verticalAlign=top;aspect=fixed;imageAspect=0;image=data:image/png,iVBORw0KGgoAAAANSUhEUgAAANwAAAEvCAYAAAAuK6+CAAAAAXNSR0IArs4c6QAAAARnQU1BAACxjwv8YQUAAAAJcEhZcwAAED0AABA9AUORddcAAG/eSURBVHhe7b1pkGRXdt93cl9q6aquXtBoNNBoAI0ZEMsMZgFmhqRmkx20ZXFGpGWGw2NFUBGWOQ4HGf5syfzib7YibIVCEkNWWFZYEm1SormMRM5wZiDODDiYBRjsDXSj9732JSv39Pmd9072q0RWVWZVZi1d7199+753l3O383/n3vuWTJw/f74lfSCRSIRHG2OjdJvJ2DC+pXGJpjTqTTutNypy9fU/l7d/9D2Zu3Vd3jl3UTLFI/LwA4fk2aeflIlCRqbGxiWTzIhkc5JKZySjfjqTlkxGzymq0ZJEKikJDdNIPc5JIpmSlKYzP5mUpNapUa+KNCm3KfVmRWp23pBkqyV1PV5ZWpabN27K5csXpVKryIkHT8ipx46L1FqSSRVlNZGRxKFxOfTgz0s6lxdJpq2tSelrCIYK6uP937S2rkVS+6IftLRvHBuNa7eytoNouYNGp2xvVy9lbth73vlRF8Vm8WCzNJvFdyLRyun/OjhJTddMSLM+L+W770utUpYbd5elUm9JNl2Xk8dUsUfykssWVJ1TmjShvpJKCaTZpKFn1UZNe0nFpZVoSkilhYpV38mWUoKo41wprlxv6f/616xrPRKS1r9UIqvhkLQoxXxGDo1l5cjhSVldLslffv8VOff6BeVwQaqtVamtzkpqcVZK0xf1mlGRutan3mIINh6oXvumG6J5e3EAxcF1i/e4Xl0U3eLdOaJlObqFbYZonn5cL1gvXaesbun6u1z1gPUKGhSSrYYWooOHU8Vfmb0tc3NzMlockdLigqRbTXlgalKVfkrSCW2eDiYEw1EvLJXX0eqp/+yqDYHVBWksWC0bviqDyuQKjGKQH/Voca6+y8Slc0U5cvxBOf7ACTl+/AHoLX/x0vfl/HvnJaOWtZDPyeLCvFSXbkmjpORrVVSCXjxoTIg1deuCaHxnuo3i9iO6tWG/t0tnQ8HVxRsSdd3QT3xnms64znhHtzgPSyZVQYlTkiRaVVm4c0VKak2atZpklSEPHp2S45NjMlYomsJnMhkjm6RSSgoNwempkUfTM5FpGtlgF2RqYg9VthK7oU5J3dRpo5Zu5G0w9VHf+s3PqZfKb6XUUqZzMjl1VE6deliefPIJOaEEfP/d92Vxbl7SOn/NpNUqL9+U0swVSTZKVpbyuY1uV/vN0Gu6vYx+2+DpB93uqNyN5G8W7+hMMxAL12vh/aKb3KRqZ0vXcGZddFK2NHtTqpWaKm1LRrJZySuJjoyN6mQvodM9JZeZqYQuo5Q0SqykupSSAyIi1ywlskincUollaXTR3Ws2eq1qnKurmvFuqULENZLSZrW6SjWDTSUPq1kVrJK9pHREZk6fFgeOfWoTnGzMn13WpbVAmeUdCvTH0h1+baUl2d1AFRqpH0xBotO/dkteD1UV7ZfmWE1qpvchlo45ZtZl4QerMzdlWp5VUZHcjI+VtRpW0bJpCRQIqRYm6HPmtzIpwcBaVSurp0wYipNw0gRlNVU4jYbOoVU61ZXojUgm4ax1mol1Erqeo7kWKKWxmkC23hRqrGiMyuaSqdkbHxM8lqPVrOq67pxuXThoq7rVrTAqk4l01JeuiHVxesiSmhKdwyjHw8yXIf2Qr9SByPcepXxuKiLwsNM+SJTIRDN465fdJNbQbt1jsimheq2tJRsTCdTal8yuYSMjo9IppA3i4X1olzIllHXUHo1zHopqeoqV+W0EkpKVXnWaKRLq9VqKbkgXkuJl9BkGZ0qFkfHdDqYxQiqVZ2Vt19/TV55+fvy6o9/JFcufiBL83OS1gtBSgttaL6crtfGD43KamlOlpfmZSw/Jgszs1IvL8vyfEVKs5eksXhR3ZyWfm+DIkb/8L6LOofrUKce9YNucrcC6jCQKeUgQGPYvNi0UVppT4tiV6tVWV1dlVKppNO/moyNjUkulyOZWSlzSqb2trOGk9caT3n8wVz1sWi2RKMKCFDrlahXlNRLUpm5JTc/eFd+9pffl+9955ty7u23tdyK1GoNmZ2dl6tXrsmF8+9LVeuCvKQS+fDUAzI+flgW5hbVkOn0tKJEW5iXqVGR0t0ZWblzS0n4gdQqy1a1nYb3Y9RtV6n2KqJt3U10LZ3KrdfxHheN96tHt7goovGdDvRyFWrn0WO9bsnS0pIqfU1WVlYs/6iunQJ5xAYgHMdUkYwc27QzomCENZScOCOgMa8mqysLcvPyBfmLP/uGvPzSn8v7b7+lVqwlL3z6RfnC57+k/mfkuWc/Lh/5yFMyOX5I7tzUtdmKWl2dfmbyo3Ly1GlZLVelrESsrpZkeWFOSrp2S5RbsnzzmrRKl6W5etfKpQ5en83Q7odN0ndLFz33vnEH1ksfdd3QKcvldaKbvI3SbwUuNwovI1put3Qbod/0ndgzFq5vaKOxGhCNDZC7d+9KoVjU46xF07FGoNCyWUfpfDDYpQx8Nk/Y9CAtO5FYQUtvV8KErCiZb169JBfOvWObKBPjk/L442fl+U98Sg4fPqoWkTyUgwUVOTI5KacfeVjXcFklu5aTysnDpx+VyckpnXZe1jXcsrQqZZ3atmR1Udd/K8syf/VVaSxcCYkeKJ4P6kYuis3it4p+ZUXL38h1Q6/p9gq61dfdRmiv4TbLsFncTsHWblwIjSRNyaqlmpicMGtWHClKWsnHFn1gAps0kFxGiqSty+qalQ0RneLVa3bcbKryqzzReGWcNJQU9WZNrVRTKmo9J6am5OTpR+T0E4/K0eNHJZXMSE3Xjis6PeS+2tLigpR0nbaqBGpUKzKq6zfWgmoKJZUpyEeffsbWjs2qlsPasZWR5eWSElCnpIvq376gcfOitZGm5uNWQdCAvYtuY+46EnW9ot/0exkbtWNbFs47aaPO2iy+V7Tl2AKLiidsfTY6UiDSCIdLptVqKQkpLpizK/ma7A4pSVTZV0tlmZ+elvmZ27K6NCeNWkVlBruSLayMEiOlRGsqEfM6PT3x8MNy4tQpmZiYFBWtZCxJRaeFs9euyfX3L8i19z6Q2avXpbWwqFPJZZ06lnTKuCRNJTPbqelsTk4/ekYefeyM3Lp1R9dzul5r5pWALbl9a04yrYKszl5Xd1nrr2tI/d/uAW6TcN36vFvYduDyBi3X0avcaB16zdOJbjK6uV6xXvrUb/7mb/52eLwhumXupQL9VHIjuBwjlf7f0INaeUGuvvV9XcM1dXa2rIRIybFjR9XqZdQKMVXUWdtKSW5cvynvvfe+vK3kuPTBB7I8Nyfzd29JZWVRlJ2Ss2cm75E2kVLCZlJ2n43nKBOq/7XSqki5LDO6RpufnZdUfkRGJo/JyKHDZhUXZ2ekrCRL5fJGGqxsihvhSvasMpXnLVdLOqVUov3iF39ZPvVxnZYWR+X69UuSKaQkO3pYCpMPSCJdsDUia8CgRjE2w6B0bCfQtnC+oFxvDeHoFkYe9zvz94ponm7uHoJz1jwpnnHUaWWtVjVrVqlUjDEcU6XyakV+8uNX5eW//KG8/vob8sH752VpYUEWdQpY1bTcz2uqX6/qukrXg1g1DKi2ICCdupau9Wz3staQxfkVWVptyLWFivzBD1+T/+Ob35V/+G/+SP7FN78t3zv3nly8oSTWaWOKm9+6fku11NomeEg6LycfekQmpx6Q3MiEFA4fl7ffOS8zt2dl4c6cJNTy1u9ckNbKrFk3yo9xD5260Okcrn+dOhhNs130Ky9aB1ybcNHAvQw2MyAVncpOIxsm7FJyawCi8UQIbair1btw4aLM61TvyNRReeihh+X5p87KGZ0eHj92XB48+YhOGQ9JVvNUSytKlIoSlrVbQ61TWvKFEdv84GHnipKxptZrZmFFLtxdkh9fm5ffe+kn8ta1WclNnZIv/tKvSjp/RB557KwcOjwluUJBra2uJcPupUcnJo/I6TNn5WOf/IzUkg05cvSYlJTAi7eV/Mu6vly5K+WFu3YrorXHxyDG1tGeUm5GuF7jNkrXDf2mb7DL2GSzQ8nXrMr513+gZkrXW9miVMp1JdeUFAt5mb4xJwvzs/LUU0/KY488IqceeEiOTo3K4UOTMjYybpsrtWZdllfVutXV2un6CWZkeDxsZFTdiDR5fUYt1WpZyajTySsfXFVSZ+TJp5+WYiYrDx85Jk+ffULOnHxAyzghRya5OZ6WNFNI2w3VqinnmlpZntvUlsqhycPS0ulo4dCEJFabMn/ttqQPjcjY0XGp6QVk5PBJLfOQUlVz2+5QjF7hutRNn6Jx3Vy/2Gq+bW2aOLzgrVaiH+iEQcsIpo28z5ZMFey5RZS6tFKWUqliU82SrpeePPuYTBRzkmZKiBVbWpHlhSWpVRpqtWqq2LpOUku0uLQs03fuyvzMjMYvSG1lRapKxGRL13CJrE4Fj8vY4aNy/MGTStxjMiqr8ldfeFb+6ueelxefe1Imx5UoBV1xKfG5+Y4FtpvtWieb4hh5kjIyfsiOM5omf2hMxk6dlKc+9km5cuG6ZPOHpK5r0mppLshvGycx9jr61fcNCRfs8u3+3fko2EiwJzmUVC0ly4RamXQ6oQTT6dnioiwuLKuyJ2X8yKimaaoSl2R5fl7u3L4tVy5el6VSXUq6xkqMHpay5OTKzTsqMS0rStQFJePC7KzUdXraUMf6Lq3EyefyKu+4HHvopGQLaZW5JOlGSTLNktQgSHlZ8tKw3U57mJk+04HAsfPZqCnh6w3bPWXDf6xVltbynIw9cFiOf+SsTiuXpFGpS0GtYLK6qm2s6tyDlDH2A6I8wW1Ewq7PUnpYdBE6SLj8znI3gtfDCMe5Eq6RSMmhIw9Io1FVRdfGqsLeua0EaiZkbHLCbkyvlKpyGyKpwVjOjsrLF67Iv/h335Hvvvq+vHt1TqbndF12+brk8kVbB8IIXhzgXTuebm41arbFn1QCHDlxRB545KQ8/sTjcubMw3Lq5HE5VMxLhumidlGW6Wg+H+xsqrOppIazQ0mlWZux+3n+/XNy/c13pDK/IIWjE5IdLaqVu6KkFakrgZPNijQTWv4AEO3rYbsousX34nYL3eribjNEeYID68nYO6ZrE9yrOA3CqQVJqYKPjsvS8oI8qOsoFH5mVi2OsCUffCqh0kzJndW6vKVEfOn8JZkrHpLX78zLH7z0I5ktZ+XM2adkbp5nGWGZytd/dR5zhilqOVvqkomGZJO6ThzJKsGnbHqZs02V4BZ1S/Ol0jm7vcAmDlbOgZhEM3isjA0ZprEPq1VLLKxK9ea0ltGS4olxmb07q0RrSkovHpXqkpa//6aU3RQsxlr0/aRJN9cN3dK52wzd8rhL6vSvwYMkSgJ7zr+Ql2a5IYtzCzJ5eFytWlkazbKupYKpnGq4zC0vy/nLV+ULX/qSfPaFj8kvfvoj8sXPPCnPPnFE13gZ+cynP2mPcWV1SphQa8YN8lZDSaL5+W6JnukMT0mVTEsml5V0MXBZexVI1KopyXhgWkmO1eWVH/64n9bi/T0N4cY67EzodLeaG5Mjjz0m0/NzOnWtyYmpU5LP5O0eXyaxLPWVG5KurJ1SdvZDFJ1xUbff0K0N3VwU3cIGic5y3Yr1A8+/byycgyklVsiOteFYGp7I/9GrP5MFnT4Wxg5Jtda0aRzPR7ZadRkr5OQTH3tGUnfuSuLGDXluakJ+8YkzckSnbSmdNtaqZbtpns8XjGQNXmhVwiZ0SprS4lJ0lJItpd2VTaUtLffXUtxjU5Kxc5lUC5fK6DEbMTqd1ILNELORwjE3vLnvB+mqasnSYyNy6MRxyY0U5NTDp6RWq9h7fbXVJamtzEtL13IOH+gY+x/7jnAOXiBlc6RQGLX1l2RG5GfvfCDLau1Wy7rm4rlI1e6MrpnOPPKgPPv4o/LIoZycLKbl0YlxGdVpY1qtYbPBLQGdLrKbmVVzlUjafkWyrqRVK9eqqpWrcFNc7ZYqPu/GZTVN8AEhnplkpxQX3LODGmvm81YNJRvH1En9eqsmC+WSEU5tsRQPkVekkE1JeW5aqksz0igv0cwY9xk2JJybwX6usFtNH3UbI5xq8ehTIiN5nZ7x/CNP5JerTdtpXFmYU0uUklwmLYV8SsZyack3a1JOlHXNpOsxnUYWDo+K6JospVPTsdGivUOXTGckpetAI1648cEUUguS0uqqvWKzuqRTvtWqJJgisqGiZafYsFGysGkDv4x06ngaRhPo9DRwkA5ryc3t0bExKYyOSTLDWw9LUlXy8/Z3a3VZUmrdGpUFzar5QuK2CRyiW395fDTd/Ypu7e8WNmgg23cit1LW/rVw5vg2SUFyaqEmeFNAG//JZ5+VZG1VLU9Cstm0FEdyMqprrCOjeXngyJScmDwsU6OH7EZ5JpuXQ0o21mA8tdJQK5ZlTajEqSdbksxn1fqM2xvkdDL395gaLi8s2gPKDSVJq6UkSei6j8/eKQHrOiWtViEir+w42YJXf9jJxCV1qsqUlXS1ckUWZ+4EEZqfN9ilWjILZ3n6HNAYO49+iNcmnGeKul7Rbx6/Wm+WPiq37ZQIunKThlqmVqaiC6yclHT9lKjMymG1Zj959R21RDrdTOuULzuiDSwoufJqwZIyni1IWq1YIq3rtVxGiViwNBluMZRX7JlKbi/UK6uSLDWksTQti3evSmV+RkaVDDmdTtbVkjXVUjaqi2rBykp67rHV+CKtTRnt/TjWbTwNYx+LXdFe1imurhfZ6ElArFZOy1e/ptNGnbLevHlRcvVFWVEC1rVLWo0VqbFTGlq4XkH/RP2DjDU60+F2E/vWwgF2AO1+lzajXCrp1HBErl6/Jq+++bZNAe2JfXv2kh1GXSdpZ6O+bOezdY/Ph4b4UNDC3LxtiNQqanHmFmTu7ozM37wjs1dvyu/+y38j//gf/3OZu3RZMlVd8yVHtOcK9rxmE6ekaVarSjqmmmW7j9aq68VA14dcHmygmW5qVZRCIsslWbl7R25eumg3w1sZPiYLddWqan2sXSzqItgLyhJj+9gVwg1Kebj48zRHRi1cVa1SNqNKrQS7cP26zM/pWogpICqu6Srlhj3k3GkxOOct75XlFSWLpq7U5M2fvSmX3r8oMzfuSHVxVeOa8tPX35Or585JXaeS+eKUFMaP6/quqBaMm+NKFJXRYCqorqlTWmmo0+lmMIfUtuqFgbpRfH15WV79/vfkvbfekrtK7pHjJyVTLKrVTkhVp6C8bkTdHd5fMeH2P/omXHTw+1GCzoXmRvk2iwfE84kE8zN5nTbmdM2m66xcWm7MLsn03XmzcFgLZniNRlLJUbeNjAYkUc23crReAQuUkCVdk1Xq8oNv/wf5zre+LVVdj41NTsqv/zd/W/7X/+3vy+PPPSfp8UO6pstJbmxE8hNKvIlJW+/ZZ9OVUFgy1oL2xH8onymsWTgqnkpIWa3Yu5euyOVbt+Xy9IJkj50RXURKNj+illetnSbkQ+reTkB9+5leDhLWTxs40Fm/aJz7ewVet063XfQic99PKbVVUhzRdVhGp4naGqaIPB1y9+6cWT/azFqoXmV9pelVJ+xTeaFyMM2z+2pKjBtXdb2m072PPPEReebpZ2TsyBGpK4HL9WUpjqUk9+ApqY9NSCJb1RVWVZrZrM4sdY04PibZsaIST8mV03WhEiep68akXgTSmgYi2tsCIenKI6PSmjgkRx49I4vNjDz6zIv2GQf7MRGVUSyM2v1AH7DdIlqMwaPrs5Td0Gs6h6d351fA9ZQnmnZDsB5rcUNa100qq57MSUGVvpkdETVwMp7VtVArK3OzC3Lr/WuSSRWkquuhRK0lNVXuivrcw0uppctqfr7QnB89LCNHTspCpSHnLlyUBx+cko9+5ik5+dEnZXxyyh6ArlSUZPWyZNVPqMXUGvNUluXXlaCyOik5JS7mNMlTJ0q6VnZMgwtq5QrKI565zCuxMzKRXJG5Bb0gpDM6FV6RiYdOS6Ko5JVlkawSbZQ3xWckrXGpJqtApsZMMQdDvGhf9+I2A2miD+5G8/ixh2/mumGz+EEhWs56brvY1xbOkS8UJa9Krj0iuWxGKdCQm9Mz8t75CzrtVHKp47lI+4pynS17nVoqMbiHxrtr5Hnw5An5xKc/Kc996nk5+/FnpHhoTMq8lFqrSrlWkeXqito0zZ+oS0WJV5GaErkqtWRNKs2yLJXm7Y0Fpqy8JMt7cTzbmVHZWN32h400bqVckGwjK1ldD45WqzJ77Y4URh/UaeURna4+qJbwsNRrOS1/VtOXlbAwHLLdF8N1oLGjIziIK4QpbShGrznMt+xmdUoVO8czjXwpS0lxgy8h5/KyvLKi4TzjqATj6X+dhjbCL3fx2JftYmovFHRNNjY5rmuyMUmNFkxuo1SRhK7pJlI5Ga+owt9dkNb0ohKlInld72XVpZdK0ppbkOb8otRWV9tvnANeQuWjRjimk0wXuSiksik5PFWUZmVaygvXZO7OB6K2V8ZGqD8fMlqRkVRJZalsDaeeAcKGd0E87dwf2JBwWzGlm6WPyoy6XqGpg79IvqxOKdlOLxR0eqnzyoy26vbiosyqm757VzL5tKSLOvlLBM9X1up8MVnXYHrcUItnv/eWSkhTjRD3vyrlimSqTancmJb581dl9t3LcvkHb8itn5yTi3/xqrz2xy+Ze+X/+6a88u++I+/95E1plRv2KXRujDsxmPLibOMEwml9OS8UVmXi5AMynRmRxNEHJJlXWmm2ajon9UxeFkqrelGoSlXXnVWtR8I+x74+fCrXDd5PUbeX0a2+0eWIh+0m+rm4Rdth7vLly+vm3krDesmzFbkOu3EcAVv9s+9+S771b/9vqeu66NL1GXnzwi2ZqWXk6dGs/Nf/5Vfk8IPHRE2cVLFGatmSSq68Wr2x8XH7pRu267kHNr+4oFTRKahq/8q1aanN6JqKD/w0E7K8WpVsPi+5Ql4mDh+WQ1OH7K2FzKGCkueYtIoZyaj15O2CjKbjMS5ezVEq2/0+7WotQYmlZK6tTMsf/+AdmZUp23ApZqqSXKkp2bgnx33BhuSURHz1q6Vr02Yq+LgtU2X+7wQK8PGPf1xOnz4dhtzDdvp6L4F2RBW9H6UfJCgXt9V+bROuVwH9FrSdAd8sLw2v67ps5oOX5dVv/gtZvnJTbt6qyGsXL8q0TvsSzaz81n/1VTl5ZFTSU8eltqxroqpSoNE08hQnxiVZ5BdVeTJE7KtcUk6ovJsyf2fOfqa42mjJ6OSkPHD8uByZPCrpiUMyduaUlCvzKmdVcqNFewSMHUb7xIJaTN785me1hM0dUbKoyYWcrB25QV679Z783qszsph/0DZ/tKVKxa33E/jCF74gZ8+eDc8OFnaLfJ3opR4bTin3C/i61ujYuOT51LkqP2u5kXRCjh+dkLnZO3L71nVuxNnmRSrceq/reY1nGXWdxq2AFV2DNdSKzd6dkffeu6Bru7ScfvhRefFTL8jHn3lGTh5TK9msSFrKStw7Uqks2bqRjw7ZUysqk9sQ3GKAOkwd7WqoFhnfPjTLho26qvI6l8zbGw32pFfQjBgHAPcF4XjiI18ctakbL4WOT47JF3/hM/LIwyfkxu0b2kpdO+k0jRvQ7Bbat0VU0/n0nU/9eAH13DvvyGs/fU2nmhPy4MmTklZZFSVZtb4qlfqKJHMtKdX4+ambug5LSW5ErZvKso/I2nOUvMmgk0clHzDC2cNcug5TK0pZjXJZ3jp3XebmV7VcXXsRu41ZQIz9hZ7vw/WLfuV6+i3VJZFWq8aDyGk5fOSw/PWv/DW1ajfltbfekgs3rsvv//E35I23ztnGhZPOnkLRoqAD00vO+QTCz33sWXno7MNSzdRlpbUsi0qwmdUZubF8V5ZSFclOjcrI4UnJ8naCTkdtKmmVaJml8+rjs5lhlzTePND4lq43qysr8rNrd2VZQ3xF1rEsjdEnorrT6XYSvZR/X1g43sbOF3kTIC0nTj4gt+/elpu3p9VCFSU1MiaNdF6+98Of2jOTWB2Ix1Y99qimREjk0jJx7Ig88dRHZfzIhOQPF6V4RKen4yn1CzJx6pAcf/IhGXnoqCQnJ6SRK0hDy2xgwZQtdCy2CgRfFGPX0K1ccL+PtR0/9LGyuCStqSOSO3JM60UerN/OKkaM3UPPhOvGWJsyocBhXNR1g6cHG6XvFtYN7bL5fQBdx/EY1tHHz8qtawuSyjVkpLkgI6mE7SyWV6fl7o1Z7n9rnqq0Uq3wVRglREMJk8jJ2MSkFMbyug5UwvAGuE4tM6OH7bv/+VElYmFM12q6buOzChktT4nFA8d87LWRaBoBVbjRR6Xbl7cqLbWElboUy8syXarLt+6qFZx81F5ETTe5kZ6x1LsF7+vddsNCt7Lc7QQ6y9qWheu34p6+nzwbATn2SBHb7mpxeG7x0MSELK2U1KokZGzskCYSyeUy9mDzT958R61ZUadyml7XXFklCTeq+Twemyg8DJ0vFOzBZNZnhYlxKYyPSq5Y1Clr3j6Bh8vmsvapBZ6/jE4HWY/pYs7u6xkaTRmvz+hUtS5XKnl56c3rsrxaC+JiHEhsSrhOgvh51PWCftNvhqhlVcaZjUhncui4FHUaKa2kTjEz9onyfCGnJEnLuxfOy/lrt6SZKeqajW//J+w1GP9tAj5lZy+PJnkaJGObK5oguIHNrqam4zYE1CKfPUlCHZS8fLQooVNWtXdatspo6BSyUZVaZUVuzK3IS+/ckdnWuE5Bg3tqw8R6fe1hly9fbrtLly7J9PR0e+YBojORaPgwEa2zu2FjJ8tsl3HlypV1e7RbBbZaKSzRMAYPmeWVuzL9xjfk2uXzMnr4UXnvnYvyH/70j5UEPCspcvTIpMzPz0i5mpLCyLj8ra/9LV28rUoupfnV3tnTIFg9ddw2YF3GazJ5tYa5XF7DsKDEZXX6mpYMbwFouP2iKm1SqxZ8nSt4o5s3x+vVkobV5XYpIT89f1uulzJSa+l0FOunU81Bg/twTz755BqycHFYXl6WmZkZuX79unzwwQf2C0M+hqRzRWCH9ejRo+Y+8pGPSFGtOm6jp1iGjWHoy2YYdpn7mnAoCXKr5Tkj3O3rF2W+nJOnnvyY/C+//T9KZXVZRooZGT9UlHqtLEvzJVmqJuVXf+1rUlTiPKBETLb4NLrWSy0iP4QPgsceefhYp5dZJZxOSVsamM0XNNLJx0eHUjq11P5gM4bnM5W8+PzIY6WyLEtL8/KN8w1Z1cWibaaw2FO07Ht5gwWEe/zxx+XOnTtGsAsXLtjPMWO5/cVbxs5+5kvb4PBzj3fw4PVDDz0kzz//vBw5ciQM3Vnc14TbjEj9Eo30EAK/37z9gq9e3Xn/L2T20mtyd7okn/vSr8r/9c/+qbz+8vfl2FhOiVCTQjEntxaWpFBOycMff0Gyj35ULdiofGpiVVJqlZpKlGBqmhQ+4Eqd+Yoyr/7Yek0VsKlrN37KSiebFo81DL6+zM0FhU4hm5UlvQCU5NKCyCtXS1Kub2uZ3DOwRqVSKTwbLE6dOiXPPfecnDx50s6HPZ69ILjnGWDY9RkkCXdGG4aMRCprU79cOimZ+pK89fKfyX/61/5jKY4XJZHP23OSxfEROTw+JhOTh+SCrlsajZYslRvys+mE/ahHuqWp+AqXTvnsTQK1Vg1dh1Uqq7YJwlSRx7VYp/HGQVWnnKu6Dqw0KtIsz0qqdEMWlhbkwlxd/v078/KD8zP2+YWdwrDIBq5duyZ/+Id/KH/wB3+wRtF3E5DM3X5C6rd+67faPzncWfntNMrzbCVvN3ReZaJ1a7YSUpq/IbXFm1JfWZCETunOXbwkn/3s5+yniFfLKzalPDY1paQsyI/OnZezz39WmomirPAFMJ3+TY5k7dErikkqufjjTYLgHlrdpmV8Op1NEpCrlSRbWtb146osqq7fmKvK6xdvyTu3V+Vua1xqqWL7OcnA7X8wRWWjhT4/duyY+dGp6EaWwNMMCsjrdFF0C9sqomVsV2774WXWQp3YluBt5O2G9QgHsFazV34sC9d+ItOX35N8Micvv/K6XLk+LU888aSM5pNSW52VRCMh165Oy19en5X/5Gv/nZJpVNdTuoZp1eR4XqdOIzr1bC6r8FZ7XcP6zspWUusE0u6/NVkDNRNSqbaUsHm5Uxa5s6JrN4J1fVfXtSDWMK1ymaKqQKvn/QD6nIsPbye8+OKLa9aDO0m4boiW7+VtVKftYKtylWfBkxF7HV5Pd9EBTLEhkc1JM62syRalrlO9kVRSykvL8v4778utqzfk5pVrsjA3K/lC3h44tuc71HoVmiWdGo7J1dqIXJlekvKqrrvKFVnSvOVyWarViiyvLMv8/Lz9YOPdm7fk1q2b8sqdFXlpMS0/XmnKxXpTlrIJWU0H9/gKDaWhyrVbBPcR2QCbLGyovP3227YxEx2HzjGKup0g3H5A4urVqx+iqrOXjuoF3a4sg+7gjeTZmmr2A7n+zvdkdfqK8AP5b732trz1/ge6xkrI0anD9nHXQi4pRV3nvXJpRT7zy7+uRorPmK9tvhXDFj/HG5CFr3LpZCo8O3hgzPk8PO/g/cIv/IKRsFdstA4ctN50K2sQZSBjK+vZroxCWD+V8vT95BkskvZqDtThVR02UEZGRuzGNHXy74zwK6eVat2+8qUR6j50rRF76l+DuYYYqdZzYfqDCvqVqeW7775rN8/7mWJF9aXTDRo7UUY/aBNuqxXrlg+3HfQrD0tjT46o4+Y000WuuMGHgvguJfea0rJaacjC4ooURkZtsqeCLf8aUJ6uw1SYyV3PacIg/QEGJGMW9J3vfMeI5+u5za783ca3mxsEusnt5voFbe/MR9hmF55tL962UtmNsBV5TdZw/PKNurSu5SAEisAvkgLWYtxT46msslq4uYUFa3lD/7qBjY7N3WDbvZ/BDOK1116zG+5OwoOCfvV12z2zGaN7BYOE2xKBNY99/4MHmHVKCfl4XCurhOPH9+ste/1TCuNHJV2clLMffSZ8nOvDZRHadQrZ4WLcAzrAphKWzs8PIlyHN0Li2rVrffXObls00vuAus9t6lyyJu+/9gNJ1+Zk/u51ee/dq3J7dkEJdkgkUxBJq7UrTFn6QbchRgD69XOf+5w8++yzAyGdy4iO17DIvFNyd4Vw25HB9IWrabValaWlJWtQIpGS+dm79vDy8vy02qiGVJMTUufVAayYTjkDexa8GhMTbjhg7cYV/td//ddtB3OY2C/E2zbhouhXcftNzyIcgjGQr7/+uly5ckVu3boVxkaBXLV85vPzVT5X5utZrLgIaUpDiRdjuGC8XnjhBfnEJz5h47dfiNENgyhjXxCOdJCM10lu3LhhPk+9rzeAPC1iFGuxswipkpKSVaNfQESlomZrqiWMMTz4+DJOX/va1+xl3WFjmMS7rwnn0xEqyAuR586ds61mwnEMIn43GS17v0ynjC3IRjwbG8HWtErV48CypcMb2jGGC8bos5/9rDz99NObbiJsFa4H6MuwSLcnCNcvyRxOpvVAPA8JcxP1u9/9rq3RhjVYMYYPxvrrX/96eLYz2IvE87zOmw01mkTuho2bN2/KN7/5TfnWt75lxNuJMmMMD4wfz1reD4jywN1W0ZVw3YRutSDPt95VgnA2Qv7oj/7IXv1wbKWsGHsDPtZXr161443Gf5BwXYu6YaHXMjrT7PqcjRcn//zP/9zWZzHuD6BgEMzfJlhv7b1b6CTBTmJXCOdXO7b5f/d3f3eobyvH2B0wxqzD/YXVnbBwvcIJtxukaxNu0JXYSBabIXxN6hvf+Iat1/bSYMQYDHzD6+LFiwPTqa2gmx6ib65zG+lpr+hHhvbL5s9/bQaX0WuhNBaybbfcGHsffEUMbFep9wN64UEyyvZ+4czu9Yrh6dj2n5ubC0Nj3M9gubAXlgyul+vp5kZxvaIXHuyoiYH9rNvee+89q0xs4e5/sGRgLeeKeNCxIxoPuehwphcvvfRSm/nxzuT9D8i2uLgYnvWH9azEMDHo8jrbMHTC+ZWNR7OwbrwMGl/tDg4Ydx7T22nibBXDrufQCefTxrt378qbb74Zk+2AgVlM59e9DjJ6JpybxqjrFXT6D3/4wzU/JBHj4IBXdnjqxJcQnXq0nnNsFDdoYBCGWdaOrOG454aFi3EwwbSSG+AQ7qBvlG3Y+u2w3PP5ZgnWLcbBBETjA0N8yMmt3HaxVb3cCrysqNsqhn654Yr2yiuvxGu3Aw4INwxsR/l3A0MnHFOJhYWFmHAHHLyx/8Ybb8RTytBfg+2azSh49YY5/H67EsUYLBh/X8dtB1y4O91uwDkSdRvB0wztcuMFcO+NTomfKonBzx5j6Q4yurJgO1cOJxpXMraDmU6C3boSxdgbcJ3i04bbgetXr24n0UuZQzU7PFXCDz7EiIEiogt8SuMgY6iE20+P9MQYPtCF7t8VPThoE87NoROkH6J05nXwPcl+5MS4v8E6Hp1gWjlIvdjOEminMTQLR+fySfJ47RajE9HHvA4ahkY4XjrcT1eeGDsH/87JZuhVf6KzK4iM203d8/pEnWNohGP7lwZHC4sRAzDz4cXUg4ihEQ6i7dYVJsbeBp/XYMdyGPrRaVH2GroSrp8Kr3dDGxnxze4Y6+Gdd97ZVM+2Qh7Ps5HbSXRObWNGxNhxoIC8jHwQsS3CcbWIp40x+gV6w60BXtvqtAA7gZ20dJ1lxRYuxq6A5QYfF+Lxv4OEoREum83u2FUkxv4DVo37cbyUepCQHJZ5LRaL8aZJjA3Bc5U7MZ1crwzX/agbNmJGxNg1cHsA0u2Eou8V9E24fq4GhUJhxxfEMfYP0I2dsHLr6SrldrphY2gWjsdrzp49G57FiPFhsOTgd9wP0lMnfROu1ysBnUm6eB0XYz2gH3zN7SC9M7llNvRKuoP6VHiMzYF+rKys7Klf1xk2YvMTY1eBkjOtPCjo+ffh/AoQdTFibAfoHXr0+uuv26/s7LRObabLHjeIZVFbVngeI8au4vbt2wdi+TG0G99gmLJj3F+AcHtBV1xno3XpZQbYK2ILF2NP4Nq1a3vWwsWEi3HfgTcHDsJsqGfC9bq54ug3fYyDDe7FXbx4MTy7fxFbuBh7BrwFvhfRbV23VQyVcP60SYwYvYDnKvf6UyfbJd5QCffMM88M5KoQ42CAizMvpd7PGBrhsG64mHAxegU3v+/3X9cZGuF80ySeUsboBT5V++lPf2o6M4inO4YJ6roV/d7brYpx4MD9OF7XuV9f2en5WUqHp++X2TFi9AJufvPDjfsBW1kyxRYuxp4CCswv7Oz1KaUjJlyMfQ2Idj8/dRITLsaew377mTMuDr1eIGLCxdhT4MOwrOPu15dS1xCuH6bGiDEM+Nrt29/+tlm5+00f24SjcVxZDsJLgDH2B/j9gf2EXgxWPKWMsWfBh2L3kwFwwm1Eum0RbqP7cYSn02mZmpoKQ2LE6A/sVu4nwjkf1uMEGBrhmIvz5Pd+uZ8SY+/hvffek1QqFZ7dH9gWG9x8dmM2V6aNTGuMGJuBNwfK5XJ4tvexkQFydCVcvHkSY6/g1VdfDY/uD2xo4TZjaydiixZjkED/bty40bce7mV0JZxPFUEvZjKaPkaMQYFZFlPK/fbbA86HbpyIdzRi7FmgsDzmdT/92MdACOdW8H4y/TF2H24lXnnllX2jW5317LR0sYWLsefBc5Uo7f2wkdf3C6ibYdDyYsRAn+7evbvGUuxVbFbH2MLF2Be4fPnynr8J3jl97IaYcDH2PFBiHvO6H2ZOawi3EUP7nSq6nGKxaH6MGFsFenfr1i17V26/o004GjXIJ0ycvDHhYmwXfMGL3wLny8z7HX1PKd3SbWbtPH49ixkjRq/grRP0iW9Wgv2sU/EaLsa+wcLCgt0E3+xiv5cREy7GvkGpVDJ33xGOBrnz8xgxdhus5WZmZu4/wsWIsVfx9ttv7+uXmjd90mSzuPXiN5MbI8ZWcPXq1X2lV508iC1cjH0FlPfcuXPh2f5DTLgY+wrcEtjP9+PahHPTFzV/UawXDjbLGyPGoMCDGbwjt1/gD4A4YgsXY9+Bzy7sV3TdNFnPWvViwdbLG38uL8Yg4Bbjxz/+sZ33opN7AV7vobPgoYceMv9+eHkwxt4Bn9DbL2SLYuiEw7Lh7ocnvWPsHfCRWAgXXR/tB2xIOJ8eRq8k0bDOuCg8nJ+PhWzxlDLGoLGfrJxzZegsYCrp89cYMQYF9KparYZn+wdtwjkDo65XrJeH83jtFmMY4AK+vLwcnu0fxPO8GDF2EJuu4bYLrkSDkBMjxv2Anj6T52k6nSN63AnfMNkoTYwY9ys6uTL0KSX34VjHxYSLEWOdTZMoeiFKdAeyU0Y2m7X4+LZAjIMC5wAO3Y/yY+gsOHnyZLxTGSNGiK6E67RSoNcwh8fB7kcffXTddDFibBV+j3evYaM69W3hnEi9EohOOX36dDyljDFQ8H2TvfwFr86ppGPLhOsHJ06csG8LxogxKKDMV65c2ZMWbiNseFvA46Lx3ZjbLZ2DtLlcTvL5fBgSI8b24TOmfUe40B8aIGEmk5Gnn346DIkR4+CiTbiolXK3Gbql6zz3K9Bjjz0mk5OTdrzfrkoxYmwVnRwZuIXrJJyDKaXvVsa3CWIcVAx9ShnFxz72MbNusYWLcVDR808Oe7qoc0TDIFP0PAp+wfKrX/1qvIES48BiRy0cBGQdd+TIkQ+RMUaMg4C2hev2gLHHRV0UvYT5uYexnfvlL39ZnnzyyfhmeIwDhzUaHyXKMMFN8LNnz8abJzEOHHbNxBQKhfAoRoytYacMxCDRnlJ65TvPe0G3PJvJ4MXUjeJjxNgIrjt7cZbkut9Nv9cQbr1EMWLsRfBrqPvtFlPS74uxgeGV70bCbq5fRPNyZdpvnRVj7wDduX37dni2t+Cc6qbf8TZhjBg7iKETbiNLGFu4GAcNbcJFp3vdXDd0i+snLL4tEOOgoedHuwYJLBufqY5vfMc4aPiQhVtvwefxmznHek+uuM8OU2d8jBj3O7qaGMgST/dixBg8PkS4qNWJLVCMGIPFhoQDnG/kOuHh6+1AEtdtuhkjxkFAvGsRI8YOov2kSa9wC+YWKnruYaAzPBoXI8Z+x0Z6vVFcMt4giRFj57DmtkAnuoVthvWYDTyuH4saI0Y3uC7Nzc2FIbuDfnV5zRrOGxGFh/XqegWfqo6JF2M7QN9mZmbCs51Ft6VYLxzYlU0TKnX9+nV7Jy5GjIOEroTrhalReHqcrwejYe4cfh5buBj3E7pZvU7EtwVixNhBbOvh5W55Yfh68rZTVowYex296Hds4WLE2EHEhIsRYwfRJpybw81cN3RL589LRl2MGPcj+tHv2MLFiLGD2HDTxOOi8d3C1sN6edlY4R5cfFsgxv0Avx3gbiMM3cI5ydw5rl27Fh7FiHFwsCNTyk6yuXWLhsWIcRCw4aZJFN3Cur1l0C0diH4wiONuaWLE6AdctG/evBme7Q/EmyYx9iX8gr28vGz+fkHfvy0QTefTwqhzdJ5HbxPEiLFd+Ixpr+nTZu+WxhYuRowdREy4GDF2EF0J51O/zVwvmyZ+7vcnovk2u2cRI8Z+gOt7VM/Xw6586jxGjIOKDaeUTsb1CLnRpkknotbw/Pnza36PLkaM/QJ0PLoB6Dq/ke5HEa/hYsTYQcSEixGjT2xnZtYmXNREuoui1zDHeuFR9JImRoy9BMjWjXC96nJs4WLE2EH0TTi3ausxOhqHzwLTN0w2yhcjxlbgOjUMvXKZ7vsmYXQD0NHrNDO2cDH2NXiWchhkGxY2JNwgGuJz3qisXq8GMWJsBl712gnCUcZ2yyH/pje+Pb5bmmjcemm6gc+cY5YzmUwYEiPG9jCoi7gbB1ynTNfv7ZS1K1PK2dlZ8yFejBgHCW3COavddcNmaWC+u25pPGxpaamdJkaMQWAYuuT6OkgM1MJRueiuZIwYMdZi002TXhi+UTqP60VOjBi7jWHr6bqEixbcayViUsXY7xiWDrvcXdk0iRHjoKLn9+G6pesWttFTJZxvZ0s1RoxOdOrYVtFNX4eBHbdw1WpVKpVKeBYjxvYwOTm5r3a824Rzhm9W8W7pouebNZ54SBcjxqDAy8zR757uZQyklhsRLArS1Wq1eFoZYyBg+fLEE0+EZ/sDO3pZgGg8+7ayshKGxIixNUA2LuBnzpwJQ/YHuhKOhnS6biAcErnF6sxjrqlTzCafNtdOajUloSW21I8RYztgCnn06FFJp9NhSH/o1NNhoVP+Dlg4LSxBge5issXYPpgpPfnkk/vuqaZtE26zBreUYK0Wr1Dwizlq4Yx8MWJsD1i2U6dOtWdXvcBnY8O0aJthh9ZwSkolGn0zPX1Hz2PSxdgemFIeOnQoPOsNw54+9oKdmVKGWF5ekt/5nd/ZsZcGDy5adutldXXV/Puxr3/5l39ZstlseLY5nGy73ReJt956a8s16GbOO8PunTflytXL8nf+zt+RQqEgmXRWPvvZz8rx48eDWJ2apnSaUK/VIh+J3SEDvMNg0KNTm87jewim68RYKP+11v62nqVnmh7K5JMD3/ve9+T99y/I4uKiFItFOXv2rPX1xMREmMuh+by4tkwCgvqsrcveAHpy4sQJ+ZVf+ZUwpDdE+2zY2KisHSXctevX5B/9o38of/SHf6znGq5xTbV2IJVOydjYmLzw6Rfk8SeeMOVI3KeEo0/K5bJcvXpVvv/979uPCnZ/Gffe+phByugFKZ8vqstLKpUyObharSL1Rl2tWU0qlbK0mi29aKVNOYl38nxYETgPwjxudHRMXnzxM/LUU0/ZeOw1cDH+0pe+1Pf9tz1DuDfffNNiGZB+sVEej7uXpilLy4vyK3/jb+g6bkanlffem0skVXHsyspJwhbESfVRmqmpKfmlX/olOXz4sIUzHXWfznel2k1QPvXBp26Qx+t0+/ZtszhYG0AcUyEsEfcjo0/dMFDuaBsbTchDVjaXk6LODAqFkXYe0ln79brUULk8VEBcrVbXOEuypm/8uK0Qeqo0tMO2LIRpKOVC6gcffNCsCSTfLUTH+HOf+5w899xza9rVC9pt3gFsVNbQCQeC45Z8+9vfkt/+7f9JSqXVNuG6ybgXFkwtcadPn7YrLkrAYvnZZ5+1b6KgGDvZmd3g5WO1zp07J3fv3rVzSLWwsGB15vlRbxfpIAZhENDzezw+eZRzdswUHJIy5U4mUpbeCY7fbAbfiMEhD6eHYdw9KxmVH4Byg7Ltf5XbVOuoKTizdPTxr/3ar8kjjzxiYbsF2gzpqQv9wQWpH+ykjmxU1tAJR+FJLJj2z9/7e39X/uzP/lQVQhWhoYPLjXBNZxWM1NHz1utBPA7FQQm5aZ7Qzs7rFf/zn/+CPPbYGZsG7TywREFd+WTEpUsX5Zvf/JZZmZzWDYKgrCgGPmkIh2hOAohHetqPHNJ6e4O87iet7eTLZLIhoYInLUjbaNaMKM0mBFPfiBaQMkhnxQWy1b/X1RzdO7PxaJFCx8QSapz++7X//FdsHViH7HoRTIlOf1lLahrLrXLNs5OgbVoz/T8IB25JAcfEE+Kp7sV+GN4fX/nKV+TIkSPtdvcD07EdwkZltQkXhTcmmrFbA7uFkSd69dHhN39Fp5P/xa/9TZ1WLshqCSXTDg8VD6xXySbhkbjOOhVHivKJ5z8lP//zP9+O63cw+kVQTksVvybf/e535e2337YdQchQLI6EF4aWKYlbYKwZBKBvSIsPGSAPoM6kIz1xXMU5d7KRDnnI4Jh0kBUZqVRg6UjPOX0G6e4RLpimQgjkcRwUSivCQyU3wakwoK5D2NCpaUIvjr/yuZ+TL/7iC7KQnpTpxKQUUsjVMQzpktSxTDX1okgBCW2PupbSstXKKj3vjXEyfMKIfE29Atf1opBWEUnN1+yyXrc6h/3y+c9/3taVvY5tu407iF7KTH3961//7fC4jW6N6jUMRMNZi3E9+91//a/klVd+KLW6rj90cDQVCW3INqroejGEozx1VYpLly7L66+/bnLGx8fNkgwTTBN//JMfyZ/8yZ/IxUuXaIBNd7LZYDPDiQacCIA4EO0fjgmnLVhF6u5kI8590rh1JC3g2GTpP/o4KEb/03/MAuh74iETebCYSVV0NqiSKbWmGmbp1KWSGkY5xGtZDSWHyVdSPH2sIC8+MiFnDqnVzo/J3KpINcOFQgmjHMroeEK6hsoxqJyk1iFNfqsM/yv11EI21DUpSxqSUZrltc0QzxrRAepOP7744ovy9NNPty9e+xldLVw32MB2gMb74HfC0zMFrNWq8rf/9q/LlauX9JgrPbuTQbFcjaOWrhOdFg6gCAyi1whrCSiTOuHYBmegUF6HD9Z6bXF4/L02tGw99tJLLxmxQVKtiimoKidEGRkZ0XSBgmPNIA594xYGYJk4RnEgIg6QjjjyQFaHT09JRzyI5gHWF6q4dQ2ntsjHWb8yRdQ/jhPqNCA4brc/IKMdaRiy0qTX81W9MNaU4Ckdp4+dfkD++//sM3JmLCVjjz0rzYlj8vI7t6W02pCqii1r+5e0OuNqFmvqN1UWli2l1pFaB/2g5apP3cakJEVZlbNnTsvokQflW3/5M40LLkbeV4C+ff755+XTn/50GNIdnudeu9bKGTZ6Katdx2ETTlPJlSuX5Te+/t/K4uK8KkxN3fAJh1KjrDzg6nX0Oq3XFofHexjlsduIhSEssEhKNrUUwVZ9YNlSqbSSrdqe+pmlCAnihKEuHo9cT0eZOOodJaaDdMQTR3rq4nls04R6qewG67hGYPmQERAyADM+W6eFPUe3UR+IYOk0PZYJWVHCnT42Lr/5q39VPvvEIzJx6rTkJ/I6ayzI9//DD+Uvf/QzOfXMM1IdK8oDo6Nya7GkdMqqbG0nliupF5xGVY5OjEoxm5ITR6fkaDEhU3ldY+qF+GZtRP701YtK0nttpd7Ui91pNss2g48TbXZ42E6gl7Laddwu4XzQuyGIa8nv/f7vyT/4B/+7Tv+qdr+INwiC3bBgcPshHEdWbnBquBdNKITzsgOl60S3+namI0kQxH8BEVBKJ7JtBGkilD+TzZgSB1vqAZDnRHfSeZ0Asjj2OOSQx8vhmDBPBzzc83AO6GOIRlWJp8b0qR1ZG0KLqH3OH3VtAwuneWhjsGmi9VVZZcaKNZzmeXisKf/D174in3nuY0q4JyRTSEihNC+/96/+X3nj5Z/KF//Kl+Tok4/I0ZPHpZTMyXIzK4lURnL0T7IhU4cPqeWsKw3rktTxVzsnrdV5nUrW5UptTL7xJru6gfWjrTwMwZqNW0KbgTwO7ycQDR8mei3H03U3Tz0i2sBucGX5t//290NSMbiQIIhfr7KEr9sQDbdSw7KDdO4og0EL8rtCOlzues7B/S+Tp3LSWLFMcE8Ky8T0EVKwQYIjGxOodFpXJGF7iccxJcQHThbkuJWCBJAHnzBPwzlyOCbM126UTTjHoJ1O/4xQdAn9EpbDuszLAb6WC9KRNJgWRx1WL7jIBck4b6TUgucKki2mJZtLSj6tFk7G5Xo1JXO5Q3q1yKgVW5VauSST+Yw8PJ6TxyZz8vhUXv2i5DUupeSiW+s6B22Wa1KVvK7lclb3SiKYRtPeF154Qb761a/afdeNQFrcbmGr5W+LcBuByjCg5947J9euXbc1RgOFYiR3CRt1kimfKiPONz2yrKc0nGMUF9/XWKboKgsSODiGDJAIn7T45CUtx16Op8Fa4gPkE0+cpyctcgmDwNF6OphC4tgQ0eh2HDKSWjaBlk/jo44wnGXaAKzrMkreDOTVfPqfVNW/trgiP7hzV35we0YvGEWziC2tB2PMeFd0+VDVC4mVA9k1f43wekVWdOpdqZOWjZqW3XbgHtsnP/lJS0+fdQNtwu1X9Ey4jRrqcdF4jum4l3/wso4PAxuMK9MZBqSdPkzXDaaIEZnABg8XOV8DTinH04Xx+FFFjZ7jnFSQxMmV1uNcLts+d3KQnvyER/O6RfMyPYx2kg7ZxEEgwpAVJRXHWLqobADZOHcrSLwfAytTFdqm53SXFu9lEuD1od85DuRiBcPht2Hw8QiCKI+0hGVUTZg0a4itE9Nq8VtZPU7r9FGtX+KRM3LizM9JUwnXqGp7IZ3mZTOa3U5IV0c+9VJXa1SkonVv6KxgdGxc/uZXflm+/OUvr7nH5m3rB94Ga8eQsF35SRqGG3QlGVQ67v3z79vVDvE848c6wQd1UKAcc1pm+wrOcVgHFJJjfJyTCudhxAfhgfKzLjPlSgVTQlcCf8rB5RGGHHYm6UPIQbjncefWDkAWrxvH5CcfjnAnJI6b415f0iMb389t/LRPbRdQZVNnLdHKAcRzRlqHStbzYOcQ+E7lekirdWtUanZfjvoyU5FUXY4VRqVQ0wtBJi+t8TFZnl9gPhrULaVkVbkJSK0+RKvr2jChU3RlrqQLOUlnC/a42rGpybCkzUE7om3ZbwgvcQF8kN31i3ZHqKfU0o5P2BMYDPq9jRGNjPQXpfRVUmdnhwOAMyVWx9TF7jmpYw1GFnYUIRPn+O4o3cNJZwrN2icJCdm0aNnNbKybE4FjV3yOo5bN+41jCEQ8cLKxHqOefk463/3kGHBj3AHBSYsSez7SuW9jBXHw1QXkU9mhLJOpDj+QDzH1L+wfC2GzRKd1QY7A5zaC+bhGQpYXl6VV1ymirtNaTB0TTTlx/IjktOhCNi/jJ05qfEuq3OBnA0dVK5nKSVL7xaaXq2XzqYtkeFQtJ4lMTlLFMeWj68beho/tdqCzPR+I7aNdoXCw7k7flhs3rpsCEGOxpInW286jAZsgTMv/1JvpKkAZOYY8Fq5kD27wBmGQn82PrFouI106IBxTxmDHEdGBEudzOk1iraKtQDG8XZAKxQeEUSakon0eRziEIYw4LII7gA/BgBFDEbVu+BAbEnOOTPJ4eT5eHJOfeHzODdYx9s9g6SPH7RhNpxTVv8AC2n8h6SyHxuOTB6tZ0zZVVpekXl6WemlZMto/px87LbVmxS5wqZExKS2X7CFqbZlm1n5q6QxABZVWVnSayX1CLJ1eiFIFyWW039O6Nk1wQQrr1APoBx+PnQJ9MKgy11i4QcA7hEr+6Z/+mR27MlgcI2lua/CGB8oTEM2UQgcdpWc6mbbj4FlEpoQ2JVNrZdNBjQuUKLhhTT6sUEaPOTcZKpNwlw1QeqaNyHKf6Z6TJar8Pr0ETiSADI7JC0hDGGXgyItfKpXWlI3c6JSVONKCdjl67se2sdENGo/MYBT0j/T6z6b5XeD1YlZdyKdk4c4taa4sS1OtXLrRkjGdEiIzpRey/PioZLV/mULaUytKIp5a0UuB5HWGUFRCpnRMuD8H0XQg1NeVobaFsF5Bnb2d+xF9E84bvFmjGdDvfuc7phhMJwPVIR//BzCFQgEiMnE+0O4sTZieAcJH6ZwUPEUfpNPZiiqzEQhfrRNpcJCJtLmQZKT38GA6GMjH4rniezkmW4FcrBM3uqM7hp4WeaTpfJUFedTH+8z6RI+9HEjkZPQw6gSQ6X1CGsJJj0+cwy29yQ0tNY7zttP4TnIFoUE+nB3rH3k97XJVp4N6XCtXpLpasTpyP7USWmp7mofiddagbLMxSqujdi0lVkqnnEm1aDzaxXmOGYSymONmS+uINewR3q6dBO3tB2v6PNKvoG/C9QqmEVeuXFlT2FZB9wY7nSh4oNhGNPXZScSi2TGDqOXxnKApoKXXYxRAFTRYQ9yzNJZHw61DtZrI500GtyLuAGmRDaHI70pPHnwsUFC/pIyOjrbbzXkgN5gWAnzCAD4OuYRzASA/BEUubxkAyofIpHHnMr2ObWgxtKlfRVkPi9WaLFYaUtO1XKXakKr6Na3+wqpaOy1/cvyQNFfZ5teLkNaFNZy22m6aa7SG6XilMvZOHzOPjPpYuLpayYYm8Me61oO3ZVDt2U0MmHAoEn5Tbt2+qWdMtRrq82fRRp5A1ew0OA+Vz9Lg6yBEHfCbtmxkMKjcI7MpoR77TWgerbKrp15bOWZwaSJ+vcFgaTl6RbW3pgtFlR3UhrQZFvCqFE4kt2A4V2hIgJJzDgGAE4q6sHYjHiuIcnCMPOI9H+3hLYN6gyf9gxvsrCsBMoDnRQ5lAsoLytX6qGO9yRq0EXkXzvpL03qffQgarC0KTxStoP0qMTzmGZAAJilsf6lal5m5RUk0tE8TSnpkVFty6+Ydqel45MeKUl6clXy2qBc9ncprf/LmgD2jrt2ODCwf016IyD8e7yuttiRdmJCqBvhYd3PkdzdsdCu/X3g9u+UdKOEC8QyUyLVrV+3NACuUCPXtCYYoOI92YhivzWz/3evs0FJhldR5o1BENjYgVZA9sIBGQFUGyAOhsnquUkwOYdwopm7sQvIyrBMHOffKDJxbPMAx8nHIgRgc45MWxcd3C0U+Jx1xEJn+ofZYa1oL+QAEs/gQ5PFB83o4GSFcsBsYIuxGTRYehC4C+vPD0ESW6V5GNjZIaeWrX9P/ZpdKslJuyUqpJpWa9oH+LWpYS9uYy+eksrIoeW0zfawDrfm0ni29aGn96R/4zPhDOHZVa029UBbHZWLquF5Ag4vKQcBgLZwpcKBw7733Xns3rg3i1XUb9ija99LUIQuldQU2x8BqGLuQrtT4bg2ogxODj+gApnyEO3FQZJQb50pMHsJNQdQnLT6Wh2PSuJVzEEd+8iCLOFy0HOR6ftqDZTNlDsvggoCPI9zLRy4+bfM6OiFpP3HQBB+ikNf+6LOw/7YDr2MzkdUpZE5Onf2ojB05qn3JUyQiF6/e0MJ1tqH1b5TLeqwXBL3IJvRigOPhZBVgsxBq0qT96pd0HdhI5eTIQ49KQ+uYat3rz/sdAyUcSmCDru6NN9+wwQeog13dTKk89MMgn/umfJY+IBtP5XsYCsnmh00ZNQvhIJAfkA8Z+K7kEIM1UFRpOXeiolg+pYteKCAL8B1JZJEW58QAxCHL46gHvr9s6nkhDta1HO46st7EYgPPR1kAeZRBHuAy2Xo3eRrm7YxumriP8wsc6ax8JUI3eHzUkRO/qdZoXq0ZT4cURoqS0TFc0rXcleu3dA0WPPal0xktlCmjlqbEq1eVVDp15ukTnV2qDxm1L9W61RtJyU8ekbpO7cmfCvt4t+F9tx34RRLQdw4/HijhAAOKNbl08ZIphVVAXaTsdStkzqZZwTmKxGYCvl3RNRzF8iklV06mjZSDMqKcpnx67IoLmYyg4aYE8HhAmJftiu0y8MkLQSEjaZCJLEC5kBMSWx01nnwux0nOuROO8ljL0EryQD7yE8859cX3Y2RQB+JJ57J5o9vbY1DZ3a5k9taApluTtkf4DINp4erKio5tTTLcz2zW5ObtO3Lu/AdapvalFpysQzbqxRMpVamWV6WmpKN9kIxXfXhSBdJVdU2YH5+SqlpO3vxOb6Fu+xUb/gKqx20UvwZ6TvdfVrKtlkrh+GuHJxh0FEVDdAqCb3KJVp9BtcTqbCqkCobz3ccALbNqfMnLPs+gmXHoH/lRSNJ6epOpgPyA8kx51EEKT49SAxScNH5OnBMBBzwe0iHH209au7BoG9kAUbuiadhA4d0/nqUMNjh4CyG4NxjUk/xVJbOT39tBuRw7mSE89fNwLkrWHs3nbbG6BNUJYOdqhelPwsPzNeBGN11vfc/4WEIjmFlM9YlKJpsyW1qRJZ0uSmvVno38+//kn8uckawlhUpJXn35O1rHgtQrLV3PlaWs6ZsNJRn9Ui5Jc3lewxblxsyMNI48Jq3sGMqnTi84VoGdB30WddsFMhifbvAyUr/xG79hn1hYL6FjvXhXFgMC9fzHP3pFvve9vzAlNEW0gWQ6o0ks2drGmRIhn3/qo5A4txb43Gvjas1miJMDS0N6PyYd5ygqxLAGqhzgBAqIEXQM6ciDQnteJxdleFqAPA/DJy3H7gd1ZS0SpCcfREM2azbKsim3xjEL8PUV54Sz8QOQgwPeLuT7bQcyWJWQr+FMGZHRCaZxwUHoIjA5bdwbC2+rPSrGqHGuDlpVa2UNacq1O9Pyr/74z+Tbr71rO5TFTEoeP1yU0cqCTE5NWMHVqk6/uUWg6bkfx/GqkrPUysrxx56SiYc/YroQXHr5r1sL7k9E2LI1+CABV142TAhHsQKyhdAwlCQKBt+mixqnR0YonvpwxWsrtxIhusZysgHSWXkq2+MgDhsm98gQxJGHtBAQeRxThls28rn1IR/nxENWHPDy3HkYsmuQWvOQj11E2k8496CwGpTDjilrN42wsvxxNCe05VUHvM5+4QCelpKHqaqUY4+4admLuu76f/78h/I//5+/L3/ysw9kOUnfNWVC9IIye0tOH5uS1JhOfdNab6yl9kNteVWWF2bk5vSMzNbScupjvyD5h56yNiLb++4gYaCEY4sdxbt565adWxz/IoppQEtCTQnigicxjFwaxqYAZGVQbFNBw7FwTgYnHgRwRfepoystYWxYsIZiCogjLSC/E9EHHtmcO/EA4Z6WY89PHgAZCCOeCw0gBqvDJo96lk8z2CfcyUdaYF9H1nMuLlxoiEMe8dSBcycezsunzVy08L0e9KwT2441rZ+3nf5ZXUgQAWHePo+39GFbGRtbB0payom0VFLsWLKzKDKibXjmoSl56vRJSY8URDkpmZERSalbbujUMpmThVZe8g+ckcc+8QuSGj9qn9pDPnB/p9Fu64DQizyP3zbhOsHgzc3OmpLQod2qYcPPoIaO6RUVcktn5OPeWWiB7OFYjcuFu4rIdgXHd8UHrtCkQQ5EA6aoKov8kJN4V1ryWvl67MrHMZbSy/M0OMrEJ4w4T8MFhzIhEmmwdFhsFJa2eR193UZZ1MHy6DlyuKD4w8+AeOBWV/+zi5FW0Mqhnj1Ds2/2Kk4neNCAu2u4NLcAtOyRRE1Gdfr8icdOyn/06Y/L1MSYyKEJvbiNSUvHraLkzE0dl+ThI3Lso5+SR5//K5KEbFr3tFrEgwwds94GzZWtGzyOP66FK6sle2QnuDGrU6EWVoMpUVCOpVXltGlSWD4KybrNSRZc5cmriqlXSzZL+OowQDFxgLSuqHw63BUVmTwE7Oeex8nDMT75OEaxIQnx+OSHyIR7nZDlMoBbP9JSX9I0tK58wJZiqbPSwtqRDZ9k4RqXy/KsJWVrHuNOQD7yOym9LEAdvEz6KWNP0Ny7uNCrdtHSP45tPNUxFoyYOQ1y2fdA3+tamQ/42GYWLhgjYLuUEFSj8XjIuKrtTCWycnYkLX/9cy/IY48+LBle0tWqpJaWpLFSkVZuTBpjD8rJZz8vh888I7U07bWe0DZ21mE4oC/Xc9vBduUNvPVcvRcXl3RwGbh7g2ej7lBlQHGYetnWvioWZPPKY1lQMs6ZEjoxPMwIqs6PUTxI4iTiGJ9zV0q/54YMU0iF58X39R5ArpMOuKJyThz1A54XmVhSjTJiUFcc+Th3kkbLBoRTL36EAyAbRz58X78ByorG6X/WpX5/06xetI9DEI+zPJHhMBCuFz6Li4Ay+WM6Tzt0kOyFUrqhmGrI8YLIFz/5jDx28qhM8vl5JSL33aaretFLjcjU6bPy5PMvSGb8sI31WnSeHywMlHAM1ML8vKyWeYEyIIWDQbVh1SDCTYk1zJRTj1FIUmA1OA4sXECIqMK6criyIwefcHzSIZNpI2Ecezx5SI88l+3y8InDUTZxyMJxTJgfA45dhsc7yagnZQDOSetySUN64qNlEg7JXT4ycF5/L0czmTzy029MK+k3CNIVtC9sow1AeIgfnAZ/AAmUZc5MGglUtg4V55lkSwo6Jfy5Bw/JJ558VKYOjUq13pKFckMW1S2PPCBnXviCTDzypFQyebVs99bDMQJseB+uGzx9tzyE3bhxQ2p818Lj1WunV8dg+trDnuoPFc0UUgcIJePY4WQjP3m46vs56QgDhKHQhLnCE8cxaSGgKzSOcHzyEQ6cMKR30rnC4/zY14VeB+ByCfM6e/mk8TiXyTEOuBzK5BjfHTI8HTKxVjCD3VDiDAT5cQcI9zgt0f5UoMl0uRbEf6SLiIFktktpj17pxUeP+ZDQmZMPyOHjU1LXqXH6xGk59sxn5Okvf0U+/eW/IdmJh+yLXLqYkyQ3vfcxvI+irl905run2QNBQu7cuWNK5dDizGcK6UC5GFd7nUbToqCmYNngyQqmRyiXK6oTgTT4DrvKa5xP/5xEHBMOOZ0kHANXdtI5KXBeHj7xPp2zuqpPesIpIwrCvAxPyzngmPbg+20M6uxtIZ3XAbkum3gceaIXCdJpgVYmFy3Acb9w0vq9QHYiu0F7xkiXSmgd4Z2uSctaRb0kSPbwUZHDD8i//NbLIg+dlfqxM9JM5HSdp+s5/eMz51m7Lxkjirb2MnDuNoLH2+B3ItGSa9ev6ICgnFyZUbxwdy9UWFdGVyrCUCaGlz2W1dWKEpG3r4N3v1whTUaYNkgfbMtjbVBqV14U2vOxLuOcdPjIITxKEBxAJspNOiewx3eSAbJ4fQDyOSaO/MjimLI4JgxQLs7zAy+LdN43Xr8o6b1czrmGkZ86cU45uCgId0dJVl/6TU9MBmEWo4ikJSqhU0f7xknoWom8PYKVaulMIFGQf/2TD+TfX5qWv/uP/pl8/43X7MkTk58mXtuj1pBdlnrYnu3C2oD8sM864XFR1y8GIaMX3DMXAwDD+MYbb9hxu9KRimPlOHUlQElQpGD7PVBCSOLKyjnH+Cgtx+QlPQrqJCDMFY5jFBOHMuNIDymtPgonFmlRbo7xkYkcP/b8wIlEHnxAHDIpi7oxbcVRL5cTLcPb4jJJQzxAJvHAp6yA9MQhg2PSRx1vXuN7XodvllgZeh703frDbRdE2qV5OsGLpMigHE0lFa3/P/mdfyrvX/hAL47BuAUjGmMzDIxwgSLVbUpJ33NuLow3pVDHgBLmA4giuoK6UpMPP6r8gHOUO2qxgA14KIu0HCMzqugc4wLFC/JxjEzk+TmyTEnDNK7ohLGjaG1S53HUBziJouWQjmOXhQzCvG3Uza0zDhmejzS0AQITx7k74r2OPLyNb88sWikRhOUTzkPEXo8oCFHqto8cFhaeao/pYp/xU3VRGXoo9aam0JlIJpMPCfmh0ncEPhb7BV0JRyPc+bnDB62zoZwvLi3KzPSMrcE0JEiLHD3zj/fYWZiX2wH2RElIApQI58rraxiAfJQNkBZl9Dpwzq+jco5DaVFm0uBcLukIJ42HAVduU06Nc2vIuZfjZXoYeT2O/JSJIx2OYwjq8j0e60UdnESA9BzTVuRSvtfJrTmgLJxmCJwCmV4/PbC+Dupg0XYvlEM2qCw2DG+DtGyOhK6dQD0NscOUpsHZqaax702m+Y5JVkZGxy2d/66cw+vazfULz0O7tisLdObdqpz14PKjcm18FAOzcGBpcdGmODbqITi0srRwFIeNkmBqGaxBuGpyD84JAVBGlJIwr7QrO2FYFcurcgBysVIoKmGuuB6PTxrC3Hc4oQHlUy5pKIPyPNzrgsWhHOKdvF5vwlw+eYnzsimHdHxwhzicp6ctxCMXUAbt8foTTzrkWX+o45ZAQJCgfpx3Q3BDPFCCrYJScLx1gDw+KNRo6ZoyywPjeuGoa19HBz3Gutj0SZP1B4qrDQ6FV7LoaMzMTtsAkCPQC7Veeswg2TtgYTnI9F1L/KiyocQOV3gUGKVzRSa9Kzv58N05ET0tZUYJgOtc0yGLPPiki04dnVikJw3xyAP4OFP4SDhpOaae1AdAGPKTlmPg+TknP/EeRx1sw0KoO3lYqwX19bq1b1prt7qvByaDKSQ+4UGwhnc4/ReEh+nMWQmMjdbFTtRn/PSITy8whEl78kenxFntD3XVVlXqfXzM1cvaDO06hWl7ydMPorK3g17keB+3P3W+HbAYh1QzMzOqnOvvTPnU0a7O6vPuGA/1Bj9mGEzzuLpTH1c+wlF4V3x84vCJwxJAIOJQcGQQz7nLQpm9jfiU7aTFkZ8wJwAOopDPieAfCCIdIA3EwiGTeuAji7qRj7TU0c/J7/Un3OuCc4uGXMLxGULuaZJPhzQkQwAjjabD6WEQG0lgcpn+aaS5Nbl7A1NF/hCMPHvDISyLumZzetFSVtpb7Tr+MTbHQHoJS8ZaYXp6OlCiINT+15EKvWDo8O1cHUqFIq7quoZ8AAV2BSSegYU4AJKwBiIPcU6YQOkC60Z+fPK5opOfMNI5Ub0epCOcdAA/ms7rgcUhjHyen3DiAWHI8vzEEUY+ygbk8Th80uNcHuloj5fBrqET1PJqPgfxGhj45sKICIIeD6Oi8ZovcOF5FCYukNde14VpkeePkFEnPr7EvVN+NYcLQL+wcoaIYcsH/Zax6ZSyNwQ7WHNzc23F9gF2yexQEkQFvUzycO5KhXUAlj8EJCOOMNJ6A/FRTkAc6ZysgHjCqQ9hnt8tkce7bLeOOFf6QKkC0lNH0rkjP3GAtL5Bwk8T+71B4Pk9PXmj9fFz0gTTyIDI+MDjrfPUJw/OAszfGORFkssDdh66brhXRgDPD9k8nAtLsRj8nDNPvWwVXlY3t1V0kxV1g0A3Wb3IH4iFYzAYgBm1cBxrsWHMh+FTIU0Y+AoUjN8B5xwXtSTIxXelJR5yABSbdMTh+znKzrHDld5l4JMGYiHf03BOOPGUA1k9nxMX51aMCwTH5EEuDhlu1TgnjjxeLvkoi3ycE0cY+XjbAWvMMWkcxJM/CnvDQAmAjG5gDDYah35AHcGaOmgQVGZKubi4uC55Y6xFz89Serp7DnJwZVNl4IOvrYbcvn3LBmANQiVlRPx7HigJ6zhX9uAxpUApAYRC6dIZ1kEapgvyao2HkYNpmisjxOQc+Vgu8gDyu2yUFVAmBIEM5HElhpjI8xvuKLzLdMsbXb+R1i8IyKAcL8/DOUYG8LpSN8LJ43I5vudUvnInk2WtV7U+dRk+XVuj1BrGPThP8yEQrM7jdcTMB4ThusqNoi2DFFwcdOzU2WaZjjPtGR0bNau+bj12EN4uB2MxCLjcqOtEtzDQmX4wFk4dQrkPx+fEuzWU6SPfX9RIG3z7CyuCwrFdjnJy7BaKLz2Rnk8SAG45kMbTuRXBtx/qUCV260c8cdQl6ggjzklBGPnwnQiEe7zXB7J6PgCBOPeLA3UApPUwAIHJg3zq7fEuC9+cXsC4aLAeAuwyUj55vB44h/cfbligTrZmWwMbbWsfbSuVVmVelxJ8IzTG5mgTzgevnwG8p8DsVJXsPTjAuUuxR4bU5ya3JrYwezpC/xg0HEqOYrnio3goI7cSIB0/GuHPAQLPQzrSc+5E4xjFdJnIcYUnzI/J6+XRBvKjQJxDPOQAdlDJ42VxTBxpgNeFcEjnzstzEnPua1TgFw3yQ8JKmbKDPnWSAfPDY8ARjv5zkMcd6a33w2jCzI+kjyK4tRCeOMhOXdp5NIA0eJqY3WbqSNv45PxKaSVItkuwNn+oEVuDy4q6XuD93AkfF8dgLJxOFZeWlvVqtxIOUaSSWhhTRrb/iWSnjdi2cqhjasMAeuUYSCOGpgu+ZRJsi7dvK4TK7WslFNoVH+Igk2MU3BsLmVBwysEB0kZJ4iQknGPSk484ZCKLY8onDfUkjHQum3hkcAyRQDScfJ4neoxMLlSkA5THMXFroOHmNF9nP9rjXcRpz3nYZqBf2wgPVST/2zEgmHSe1je7eHqI+i0sLEiDj7zG2BQDIRyg0z+kHIr2sOkB28golo6WpcUxhK6gwBWFOFNUVcogXKdrquDE+TSNaacrsSsXCkgYQGEJhxhusYjzeGREFRZwjnwnqDvCPd6/OUK5Xm/OIRiyKZf8xDnZsJT4nt7leZhfTKgHsgBhwOu2BtQ5rJvXn7LJw/cwTX5YxroI5ZI22EXm4qdlh/XYCFxkuXhyS2dZL7a86R9jcwyMcDdv3lTFCRVFB4yhNj9UGnbV2DBhoNwa+cde+UqXWwtXOOI5NmUgbeg4d8tBHlc2nCtzVPFdISGXk8DqpY4wzqkPx6wD3epw7nmBl0EcoAzKB1hDZHhajokjv5Oacjh32Z7W5dk9Ng0jje3kWnxQHs7L508DLE+0T3D2azyahhd5GYFgM2oDkE/ztzQZ36Cx8xRheqjXxWZC5ekx8UFtNJy1Gmkk2Dzhp5lrtYZOiYNXlNwNC9EyBlnWIGVF0Sl3IIRjHXDxgw/aVmQNtDD7XTb1GVzbDCAYp8rFPRyU05WXyqE8KL7tKOofwwsxkQOJ+DgQ6Uw51aHMpOcYOa7c1CdQxCDNPcUMiISFhDhOGHzSuRLjE4bvxHFrigw/dgJRN/KDqAx8tvyJoxzK9TyE4Ti2P/X1v6Ce4caJnth54FQeBXThEv0Eohsd1NPb2wtI1rlZglwvPwrO6QPqzwwnxuboSjgb/B4HCPDIz8LioioX05Jg0HQ02j5KhjWDYAwSV3N/aoKrMFdzrA9lEs8AoiQoML/31n4OU+P93hdp8J3kfowCAPKSB4V3pccxHSQvYUzzyAPpXOn99gDhpCeO8CjBXBaOc9LjQ3YvK6rkHCPH60064rwt5rQ8CIZPf9I/7XIQwn84zRf08T2C+l87PWusjjDyto97BunJF+S1toXhVq46+on28VhfFB6/HbiMqBsEhiW3FwzEwum4ysrysnW81t4CGCT7yI0poxJGQ4nn3ML03KYzHGkeVwYcHYASMv2sVisBKTWvxwFPGz32tRVpOEe5Aecc4whHNoBAEB0Q57uIrkRWhzC9X8n9NSCvD0RychJO2+wneBWkcQvpdcKRnjDivV44ygmO197QJq91WOhpQNjOwJK24zQgSIsLwtqIxnfBmrwh2uTS/7vl8osRdb57924YGmMjDIRwTD+WlpfWDCaHXKmxNOxqoSCueDj7MrGGcVUnPKq0DrbKLR6CBKNvg+vEcOVFUSkHy0EcMlxhCadsgIKQxi0MJCLe6qNhkAMCuiz/zqWTjTCfhgInJOmdTMjyG+XUgWkxcgl3UpEOuYR7/Wx2oGn0P7vAkNfl8dcJ+pQuQabD0oauG/qNs+cojanBeRTU19tAmzotXIzu2JBwPgjrDZIrBB3PbQFLZsQIwl3pcEyVTI7m4QY4P/vLopuPpWp2Q9QaoEheLtMr1onIY3AhgJPHyQDxvEzCnExOBPKRHt+VGedyaAP5PQ11IQxHOqaffk55yMCnDHcuA9/L4NzT+jnyPS1hwB4ADvN5PHEmJ+zPII92Vnjxse5GZnBqx+42AumRZ08FqY/j25LkSrT0f97mbup5K3DEc3Ekj0F9yqCvCKOvfQ3XThPCytmiGwSGJbcbNirLzwdi4VAINjJUYhgSFABQGI6jSgjhOHfrRLxv8RMOrHJhejZWUFgPB6QjzGUz6B7uiuBPn7gjPeU5STnG93UdZXkdsHSQDIvp8pyMpEeGKzZkg7ie3+vo5foUEhBHW/GjYYB0aL1/p8Th8YT5QwM6fBamgWYRPU0vgDwgUkTPYL1NWfV6o23t6ZN406Q3bItwdDxKgLIyxeAVHXvKhDUbg6k6YNYJZVDHwLDbSARKjXNlRLGR5eHkscHV1OQhjHLchxC+/iIfjukbPgSgLOJdHgTBB6Qz5VYQxjFkwseRb3R01OrkpABOVMLwcdYmzeNluixAGO0gHMc5QD71tH5RII942guZuCDRcuJxpIWIemD1NZlGvKDtnsbSKVwu6T08Gg/acoOT4Fz/KNflEm4uzBvIDdICLjxcaGkXfnQ8dhvU0eu5E+i1rIFYOIhWrYQf4rGBskPt+cCzyugxCoWSsr2P74qKwjFIhOHjCCMfIlACntVDkX0wOXYy4HPOFdcJRpjLwGHtCIc0KIaTwNdjpEW2T2txTiryEef5qTd5gVs6T+/tId7D/NzTkx9ZxIH2YNFelRW0W2UiI5RDB9raTs/ZbLLfbdBzl+GIDnvY/Wvg/RdFO09HFOFReQYNYDy8X72vIRzvQ3Lcbk+MD2EwhNNBr1S5uqEQgeIGCHzC+PQCCsVgRDcFcCipKy7WEYXE96mSWU3WG4ogTXBMHo4pnwH3aR3kIwzHOYBIDicrJCAN524NqYvXiTzEAycdVs+PPS2OunAebQvHlEN6LgaA+hIHKJ9zJ71GBD7t4xg/TE+MK7PdMtA/fLvARRA961R767eO9N2xfhpkMBbUhb7xPqDNV69eDcrYZeyFOqyHnglnHb1OQ9hNtNEN4227X48ZCAaGOG4R+NWQKRNK7jIDBznIo0Sqo+g6kKEc8nrJyPCdP4iJsiKTMOI8Dcrg6wvq4cQhj58jm3o4cZHj8Q5vA75bJtKTn3OOvV3IoEzCXbaX5eVw7mHkc9IzFDy1wSswwesvQfnaMxZPX7QfIND8hg5euNVzQMhO3Fu/aRmca3K+VWJ+EGHHOnEN4gmLwOtP+6gX7eZiQjvefvttC8ftJLzM3Sgb9FPmgCycXtm1861Y/S8YaKZggQKwvYwFMeunA4RSMv935XZSkB8ltPyco8gah2zUiDjyMNDkYbDdMhHOOeHAFZwrMGHEE0Ze37QA5OeYeODE8WPyck79qHdAjkDxkA+I5wLg5CeOOpGW8t1RPuGkd9mk5djLjcYFhLL/rC+CowCko8PMD8ENb0AI0/eegAyV3S+83viAvmBK6f1zv8PHKtr/vWDNC6h0nndgrwjy0+E6ZdODWl2v+OG00B1b3rYBoQrBA8i8yoNC+ZURBJstgbPBDOvBc5b+0SF7AiNUWM/niorv5CMtCo5POrdChJHWZaAcvlnDuRODPMThPK3Hkx5ice51AL7B4uVx7PB05Ece9STM2qTpKMflA8K97sEG1D2rwkj5ebQMA/G0Pzz2PMHpPcUgHHhIW7anIZ5/6lscf9F4Be1gGo9P/WnT7du3LSxaL5eBGwS8HlE3LETr7vXfbpntnkEInYfrF1gr21pnsKmc/jHwkAjlM+VCsTSsXCnb9A8wUL62gkxaiXbjqAcDZzdf9Zxj1oEejwNeX946htyEIxcfEgCTo+ekxcpELRXtJs7r4f0AXIbLxBFHWsjBuZMpWjbyOSeOc1dAwknDOfndAdK5BfY6caGyV2E03usEbDdT43sBssgf/L8+kGcyN5HbTqfwJ2q8jYwr48C5g3rjqMd+g9d9kG3ouET2i2AoF5cWVHH8Plhgbbxu9tPBfE4t3ARhO9unYiglaWmMb6R4wzjW4dVwnTqq0hHuA+kK2SazHvszkIShxH7sCgxxSEsc6Z0QHEOgqLID8pOG9FY/PSeetCgW5x6GDPJ5/YC3w8tAFmEcuyPM28InAznOZOgT2sZnFoJ6mNXSNPbEDdB0/heYs2Ak7Dg8Jz0gnL4PEnTiXqDX6Z6IUJCCUA/nyGcf1M3L4Zi+4kNSHhaF9+tBxzYIZ0Npf9PTd1TZ2BBgQFSkLfzDY1IxXVQH8YKBCRQbJWdwUEoyB0+pBxaGcGSwwcIPfbCZkEkHn8BzkAYlx/lUBueKjByAfNJEyeOE8HTEY4G4artc4lx5vFxkEY4M9yEzRHQ5fkEhjvTEBe0JlM7aq3DZRmw+H2HfiKE+bMgoUfUMeZ7X1lr4Gh5MweljjSOXxVl2AtuHkMP+IuW3oaceZvIj8UHNAnBMfquvpsHnouBt9/Zw7p9K7JS3FQxCRr9o9/WAyu2UtT0LF3b8m2++YVdfBLcHJVRInCs6bwVz+4CrOIPEABFOfPCYkU67lISm1PpHPA4ZnpY4z4sLqhFYC+QEynBvCun5WGNAcOBy8F2hAWmRQTonrROP9CBqNUlDWi/X0xCPLHzSk9anodH6cY4Mq6ee03aIxzmOfA7vTzu2/+/FOYg3Z32pYxCGDwMQ3i8y+LSV6eS1a9fa/bAevJ69ot2uPvLsVXQl3EaNazfejlGUpLz9zjsWhxIRh0IBfNZmWI68Wg7iRoojNjiucK6ogcQgD2E8tAwYUM49HQrKMYPMuctygpAfua7MntflYsHIA1h3ejrgN84J6ySPg7YAZJHGyeHlA6a3hHmZyCOONNZWPXbndbX1HemdThrnaZGhBxbOsTn981stRFuaDpCXeHwQTeNhwMtw52HuovAwUtE+7zPy0VeXLl36UB5Hpzw/x0XLdzdodCuj09GWYWLrFo5O0r+qrjV4+dRuxoaVpuOZ4phCKnE4t91GVTiOUTyUDDBoNgiMA/lDJSKvKxxpkUtajiGbH6OoyEMuaXwHkHDSOJkIA04y0puSh3X2dRnAj1okZFIPt3zkpY7WrvAYSxZ1yCAP8V42YaTFEUe4b+xQRlWdt5PpNXlVHYP+URDn4Jg0Vo5NL5Vc66QDLmNQ8O+neNu8Ty9fvixLS8HHpPqB90vUDRrdyuh0w8bWCadko8Nnp2fssS4qy7kPrCsXp5lMcPVmw4SpCGs4lN0VFqVI8TSK+nzDhEGMDibg3Kdn5PWycJTFgFMepCCMY/KTB/k40hCGo1zI4wrvJCYfPiDe5ZCfc5fldYu2w8ExZVEP4HWiLlFZlEO5xDm5HcRZWrMlCo3zehk02OXj2zE+URE5HBMWpAyh0ZaGZO3jwLnMdrlgTWbL0rau1Im2AOrL+fvvv2/newnert3Gtiwcr3Sce/ddyWEptD22cCdKHR3vDoKx2xgMVfDoFVd0V2Z8/30BHArr4aCtUApXXly0DFdkH3SOme4A0qLsgHAnDuVg8SiHc5yXyTFkAG4tAXk4dh+Q1sulLEhMGHUlHWFOQM45Ji11oi6Ek97rRT67HaDhXoY9HK55/XlUy6N/Xt8oiOsGwi3Oo9VHBmUG58QF00WCgtHqhsC60g7qAuhrr9e7qhPd6rUbaLd5j2DrhFPQkBs3bthx0ME6eKogWCqutfbN+VCRiCe9D64rpSsiCgtIh8JFQToUD+dxhPmg4vu9PScyg0960jlxOCeeHU3KxSEPR/nUgzRuFT2O+uOiSkV68kNY8hBOuZ6fY3zyu1x80hFGHGHIwOd+o8tFPax9qtT0IyRj2kiYO/q6EyZHfeRsBOLNheeGMCwKSI+z4j6EexcZ+hfHVJJ2s3ESozs2JFx7YDoGwkH4zVu3bEppj20Rph1uCsOA6GDklVikQ2FdWaPOFchJ6tNFV1DycQycSMCUS/M4GTh30hDOMXCFJi9KwbGn9zyBAgftcbJ42fhRMpGWMEA85CHcQTxt8HJJS17SAm+Dk9rLR6TLt340WRBZy9UwPbH8HHvbkG15OeZPz905KM+EK6LhAdaeW9laJsGkJW/gIrL1j6r4Oe2kLYALEm/J87kFH+vdgtdvN+Bldyt/6xZOOx0FuX79ensBbX/qB6oRWDHKdCULFCsYSCwNihMdGLuialj7Bq+CtJRDOuDKjSzyM+Dkh0xuNTwtgBAAhSc9PnkJR7bVN6yXp0MGzkmBIxwiAeSTlzCcExn4mo5wJxOONKDdVk3veQEXJ8rD8aVpg6YlnA5lU8rzdoL+pu/6Rjg2uL4R9pvXnzbTJsace3HDfiHV671en+xV9D1K0QbyDcM7ejUjJPjBB7VUWDodCEBS0vsOIMcMjD2Vokn4QJCm0HAlpHaeKxwbJ3Qmaf1qjnIiw5XblYSyvPO9XHxXAAdyPB2ygG+YeBwgH2XgezqmoJz7lNLLJx31dWIB0nARcEtN2+wXYjWaHzzBDz7UGrQ/uIG8tg3+wi2JvL/9ETcHR0zfgaXRAOpFfq+LARn4oRyrE76dKT6UXuP8FJ84Ow9yeZRfXL3vmFoDH6dXXnnF5Hr9hwlrU4fbDWxWNnFbuCwGUNF6JS7L7Tu3dUCUTIjSDk6hQEo6imUqQqejgPjRq3/LlVB9tXkWz2gyoF5lrBBK7Y3gnAF2xUIWcfgoPsdu0QgzmQqvA+VTNsek5RhlcRLhAL6XSRxlksfLI4+TDEcYPnWgfHzS4ixfk/WiEhO5+seOrG06NNQi01d6TMNNWUMFJq3LZv3mmyj2VkZYN5tq4kfS6kHQDqL02FKE6UEgTy2DumBt2N1KWAjyAwH8F8B+zYj2BjMJLkbkp+44xgv85Cc/afcnoH6DBPIGLXOYaI+Z/d8DbKCiA6OHfKkpUHSsQxDnDzDz1AQdjpKjhNxwJr8rJFdsVxKeQOHYbhvoOcpGXtK6Mrmyc46PwjPArtSEkQ4Lg8JyTDiOY2Q5CTh3mU4m8qMsnLt18rykYwrshA2mygHRiac8a1OYlnSA8OARLf3Telu9NJy0WDH7toumJ5wHs5HNMUAOoBzvA5wTMQrObVMFK6jw+3HrwWVBWOrl+daDW2GcgzGnr+hX7z/vM+r+zjvv2O/GxYhC5P8His5eHpjew9UAAAAASUVORK5CYII=;strokeWidth=2;" parent="1" vertex="1">
                    <mxGeometry x="-79.46" y="320" width="87.1" height="120" as="geometry"/>
                </mxCell>
                <mxCell id="14" value="" style="shape=image;verticalLabelPosition=bottom;labelBackgroundColor=default;verticalAlign=top;aspect=fixed;imageAspect=0;image=data:image/png,iVBORw0KGgoAAAANSUhEUgAAAOQAAAE3CAYAAAC6iu24AAAAAXNSR0IArs4c6QAAAARnQU1BAACxjwv8YQUAAAAJcEhZcwAAED0AABA9AUORddcAAG7oSURBVHhe7b13nGTXeR14Xq7QuXsiZjCDwSADQyQikCDAKJKSSCrYP69lS7bWVlrtyl5bP9kSlfcP62fLltamTdsri5LXoizLiitRoihLMpPEIBIESJAUiAxMno4VX9xz7quaWI2prg7T1fXOzOtKr6pe3XvPl+53v2sByHjsEDhwkSC2+bOsAGNZC1HnlV7Qjz+PlIee4JF1XxiwZRI7/ygn0SMHSTbFq6rxfltP8GM9HvpCc0KBAuehcbODCFkiISPEbgInnsYn/vwYjt14tvPaqyNlU2R2DL9s8zZEYiU8BmuaNCvxL1npvYw0vQ4/+F0t/OIvP8/n+HmdFrczl98Z6/QCBc5jZxGSv8bJKkidBmbcw/jEZ9s4ui/XSldDatlIScQsCGH5uV51k7K5XTPsOqxkApmzjNDy8Osf2I1/+IMvY3GFz4moWIRNBSkdWaDAxdDo2DkgIbOOfHns7TUc3lWi+Wpf9Ugsh290+E6HJPFpSAY8eGtZgx00mVMyzkom4WYp/sbfyfDBX7sVj74+hpWR7DtHBBbYYOwsDUlyWWkKzwM+9sl7cP+hZ6n5xjovrg6LTqPNI7ETZH5KLZnxfkSOvpoHujqytERqx/zMBLZFIzpt8dpSfP6zt+KbvuFxnF2QAKCJzLNgUYNnPt8V5m8uMNLYYRrShs2x/be/9W7ceSPNwmyST8owfPUjs2LEhnwZtRo1G7WYxeec1BrocNGmpCO5Ke4SEdN2eb+Ne+5dwJ/+zwdx7BYftqOmp69J4QHQNNZDiccCI40dRUiHCscPJ/Ht3yXtRI2Trf3nJdSwmwGPvqSTLeOG2z+FX//QrXjktVXKj6VcJljL+UkmGFRglLGjCGklMd75lgO4794T8EisQaKkNn1Ai8dGI4vmqCkjCozrcN2hz+Pn/u11GKNiDOJdFB5Uk7pUi6ZtgZHGztKQ5NFP/vN9KKf03VIPyYA+YGq05Ma61ol/Cmmym6Rr06wt4dZjp/HT/+I+OPYiPF14RvW+o3qjwCDYUUPgun17se/AV+BEk3TH6AO+alrAxciDOjY5KKWaZfQlN9qh07yjdxqp0yThFdRp4n/5jhZuukkRXU3N0PlNC0aOOnbUCBivJig7Iakk7dikJupfy+WEJA1FSr5vwJyAVWGnAT/TNpFV2+ZBs3iq/By+5W/sJUF1hmWmSAqMNnYUIQ8ddo35l1k1pCjxtn8tJ/4pKqpUtyy2+JdabJNhJQ6+8wfaOHJwnB0Rdr6/wChjRxEyKNXprCkFrkGzs4TU6l/j8G2a9DBEtFIXiDefkJ7lYGZyBd//A0cR+DEsa6LzSoFRxY4ipE1vzErGOLBTQ0jNL/aDjPapMmuMlkxputLHS5MNtll7IIs115ni0bfPoxxoBqQwWUcdO4qQGajZrMRkylgK6JgMmKtD/qICOoaYRqtSXSY2/yqbRo8T87qOjUTkyp+0cevNId761kl+QX95twV2LnYUIanckDk0WzOPWrJJTdcfIUVApc+J0iKlISQ/LA/CKJMnIxkV6NE5G4e27VOTy3Rt4j/+0jvhDzhNU2DnYEcR0tic1GbSkgaa2xsU0ogJ/clOtk9KUuZk3Tg4KQWH3USW+LAmfh9veePBzisFRhU7jJBjPKgVpXa6mm5QUBumoWKu0rL0TtlSGx0Fdcx1UitaCiat4E1v1t0N/pICQ4UdRcjFMy7iUPmgJmObGFyjGXOVLNQcoUxhIQ/7bBw01ZGbxZEh/tu/gRq5IORIY0cR8ty5Jn+RVlpUyCgFSNY3uB02j/nXYeRGU0XZRFkW0GxNYMVlHL25hbe9eYovUCs7Fr+ZgqXg50hhRxEysx2EVGmpMQW1vnB9NWtMoo8+Sv/M7cZCPqkyd3LfNKN2bOCxRyfhePJ99a1KsTOnFhgR7CwNubiMJN4Fy+1EK+WfrQMZya281q3Em96yh5KAmt7QX1MugZ4uMCLYUYQ8ebZOH/J6JGYtpMsft86JdvpzW8xH7Nozj7mZwFQaQFEEa+SwowiZ0nf8xEdfoJXHn6XFvuuZ9iCko7ZaQ5bLCwhcXrfJFKJA6TPbqMDOwM4iZNbEp5/Yj9RK4NHsi531kInaMaUXl1DTporaKhq6+ZidtDGzu0UqdrR7VtRuHSXsKEKKMv/u/X/EvxMcyOb/wJB2VIRVK6KUoaPE860gpGNTv6tG5FbbygW2BXaWhuQ4DmnhvXJcOa22meNbDyxbPmSXGAVBCmw+dhQhVQlDrtfp0yr96JKQg/uQol+Xi2maFQqrwJZgRxFSLMrg4/OfP00PzKGRuTEzh0madD6pYGWBzcWOImScedRkIT76x7vRLJ8AosEJmVkpEvpyWhvpJMpndfnZG0PwV4P2F9EqFVV3NVLATH8UGBXsLA3Z0WBf/PJziJN9ciPXCX0eWdGpsbMVeaZaj5mvwexOd2z+dxbYPthRhFTpfqWdPvPyWZw7eZOU2rrQrUInQpr7W8CNduIiTKSh9UfPdKY/CowEdhYhNYLJmpDE+cgfRIi76yIHgNGIOnS/c3QU8KZifsHDuUVety0PWGZrMQ85SthhJitB5mS2i//6K4/T6FvfYDZEFAl5pHGS399kLCwEmD8nSSD13m/FgwI7BTuKkCoU58RKzo7xzCtTOLls5YuA03Fk/gnyiifY9c7Zrw6z1oL2r6mlw8dpxmc22GZ1MlWaawHJJA3TZX6Xhz/++E2IQx92PIHYbmyJVi6wfbCzNKQZvNr6DThzdhkLZ45yUOvJDFY8S1ZVea/f1RN5yQ5l6JhNe1ResrtSeYNgBARhacdm3sbJLP6f932EL7iwnU7BK94vMDrYWYRMVS2gYYIvCf2v9/38M4j4IPPmYalyOLWRCZb0AdHY8E+HCKkHXUJukNZK4dEM1nxpEw5598Uvunjuq5ZJREjSWud7utUPCowCdhYh+XNM+UdyTi7Yb/3mcUTJDYizZQ58PukskVMdUl0FmnI0ha34iVbqwE5cc2te2yBGdrWvRdM1Sar4jf96FnEU0DwO88wg8zXFRq6jhJ1FSCsyCg2JjzBqoBXZ+OAvv8TnpkmmMge4hyyij9kXVKM154QOK7WRJnnSt/bl2AiI8Hk2kb5oEk8+rvs0uY0WV0CHGr+Iso4UdhYhs4j6UfqLWiWO0EpTfODX2mi5GvYZXJLK9p/vnPzqUGK6w/OVsZM5qUk0t2M959LUVK3W1LyuDXoGhZ2MGzPaynws1XfhQ/9zMX/hvGYkOc39AqOCHWayXokvfP4MvvyX9yK0SSNqJKd5tPPK2qGlWPkGVWo2UlyKTQ8HhbOALJlAaif4jQ/wUwfndoEdAg2BHS2DXfqSrz92CP/9D5uYJCmdeBKp0+i8ujZkck6DBBmPxNH2Amq+wZvQsldoZe9FREFx5/4Wnl+uU8kX1ctHGTteQ2rW4HNPLuJzj48hsQLY7qnOK2sHDVaAfmlGc1beX75j1uDyzNImrhQOzz4XY7nGT5KPWmCkseMJmYQTqGVLeO//+RKJNEHXbLbzymDQrlj5wufcZDUKckBYSRnaOi+J9wKlpc6zBUYZO56QdrZiphC+9JSN9/8bD80S/TZquhQBfbeIhFhDQWUSUdXgMjqSChI5VGi0NgdG5LbhJCVDyjCbhL+uGkAFdgJ2PCFlFopvISn4/g88gZXWN/NHh3CyCHZSoQodJ7X6n3xXPfEs1uqPjWs6mb0qFZKoBkmBkcaOJ6T5iVQ8iW3hmZeAd7zrN5Fac9RKLWq7Jiwr5P3+8lu7u19ZsQuLvqRSgtbjQ3YRhSGSJDHXWWC0seMJqcio4VGaUAuV8PnPN/Brv2lRR86SiCFJRSL0Pfku/xFwtU0dCWldSKdZF3w/z681H1dgpLHjCZnaMbQpssvR7qLN+wl+6J9+GV9+2keajpGLVXP0C3mbdubQbOUdma3rCOoUKHA5djwh6TrqP2L+janNpITOLAf45z95As3IIWGpJZ2aOfVq0FIu7aScl9jg49A2hZQNMQ306XqtP1Vna14zreDWow1cP1uHpQzzAiMNZUv/ZH53dKBixM98Ddiz5xbc/dqvIWgfITGvniyQp7Ba9EFz3zGhmrTFRz1/SbjVPJHffTWkZfqxdaRZlZ85jj/7iI04a3VeLDCK0KgZOc9FxMpsH4ET4nd+9SDe/oYaYktLt14dpCIP/VWOKympPShLqXLW+Zldzanm7I+QGU1mxzlF93Y3Ti3N4vZ9X0Ld7OlRYFSx803WHsgrB4SIaS7+3M8leH7xus4rrw5pQuXDqtm0jlHlGumS6hX9WTM0/9jVkpPTZ/HImyY6rxQYVYwkIU05usiCl3r400+cwz99b548cDVIB54/jexUxo4yd/TcRa/0jcxZISHHYBliNvHOdx/uvFJgVDGahMyUnZOhlS4h5P3f/K0X8K//wzRCEtVVnRtqP63AuBxmdb8J4GiqJDZmq0jthHmV9Dy3VYGZ/prVTS3KBb4/GkdgVbA4/iBKE4dgBx5sRxuql2CPqMgcVYxkUOdypCTGxz52Bvfcfxg3HF2CG02RVk2ap/2xwfiOnWQfY9GaP1dH7KQoJwleiQ7iJ/7z1+N3fvttqE4+iPlTn4AX1dg5Y7yGVjE/OUIoCGngIIaP3//94zj+XBPv+Po9VII0YxVCvQq0ZV1Kwlge1aOtNSA8rh7PMYhVvcBfwS/+3nfh53//7YiyKbqUJUyM7cfiic/CcpbJdp+E7DdxocCwoyBkFzRBw9DHV78c4K57pnDoqGtoejV0t7zLtD7SyQnJZ83/q6Hi1PHhL7wVP/1v3o62G8JOywjtOgL/VniVCuoLT8KOKvzEZucdBXY6Cg+FEInslNrQCVGjf/gjP/oUFhpzfEW+oaYy2ExK9zFkuwzmKWrJmK8r0GOe6HWeCnAJ2rujw9aVcfzmn81g0RrD5PJh+pTyYXej4ZdROfhNOHr3TyCoqAYQ5eZF5vPlXNfj/Dl9f/ffhefz1y6FOeP8C6udVWCrUWjIDkyUNAtodaZYbKQ4eTrGu962j77kWerJGbbUIpw0MFMfF0O7VSkX1kkduLaNhFoyT0K/9MQUFTZ2GylJH2cT8GiGLmYz+Jf/6W/jXDoDLy4j8lVTJzHfIf81rcygcuABTIzPIPGnEDVVc7bMj9b0CA9bE6AiqhzYgPcpVCzedzw+TTOXJrRDQWDzehQcMrRjj9v8nS7GjX8qk1vBo8yKOifwkAAqcE2g5u8hzkcQpiUcOLZGbIibbijjTz9yI3ZXFhE7NBmpId1I9W8uLcuoYleCGcdegqTEgW2KM1+K2GnxHBtuOE2CtEhQG3/81e/Gd//Y/VjxJlBpTSLW+sgs4muqOCftHPNxix1k87pUDIsE4kdbmcdLPIuV5TPI0rbpQZnOltPmraqtZ6jX59FsLPCS5tGunwHa55A2z/JnhLzm/DdYpo4tdbql38e7umxjguuQ31oMja1GQcguTEvojwajUgdsfPWrb8Wh6b9C6p2myqJWialVzILmC+hqTCnFlH6gVVX5yF6+Z4rQjVBq76YmfQlnrZvx0Le/B8utd5GsIT+7LGrwW0nozOU9l58jTanPo4Gp6lrSdKY2rIPErFSJ+Z6YBNR0DJ9Pq+ZWpDT1aaX17Ab8jH5pusTbFZx49gksL34eydLTcFpL/JaEepunUUvrd6fyVykwilFxbVCYrOdxqZlmaX6QWulNj0U0R8tGE0o7dddEnochZO61mddkPXa05sUIWmM0O5dJGt7aLv7zh9+OP/j82+AmNGXJvESmprKHjNkpYkpDpRQAGc3btnkswlo0j7WGM6UN2k3ls0w3uoi9eZrEMoubVPYNms/8PJq2sVVFaM2gae1GafoOVPa+AzM33I8f+74H8MCdY1hphTh77gQ/J4YWSuefW+BaQO1eyELTDJriyElgQGKMuzFOH98DL6Vm5AC3M60X0eC/AFO3lSxUvVbLrtPvo1Zy87wdepaGnBroQWMC7bETaKcH8OxLN+N7/q+/jq8s345KpGCQi7YSAayGyal1U76TGjH3JcVPfg5NyVwb5zVhVbGANBZ3O687iFxePz/LmK88z5b25GfS2Ob1+OZW615alo/Z4Bm8/7s/jYnwZdTcXXxfCf/tgx/Hx/7sWTz/3KJ5t/k+MwnK38DvNC1jRktXeOmBeaLABsE0eX63wCVgy5Toqy2dPmJMvdCqkBPy8S41R7UkK1RwhfCzBsKyg8yj2UhyZk7d5LtqJ6ss9dAon8aH/vTb8DM//w045ZSRpJPmfVsJaVh6kXjNgTZ+/Ft+G+PtACvBSQqdCrW0jVojQK0+jv/2X/8YH/r9vzTkzvgbYgoJ1SAyOD9i2EhF1sKGoiDkamDLuFQ8C6dvwlg9oB/ZRuQtUxNeatq6YZWmaB3NoAY3GiOLWwgrdQ5wG+WwZEzQum/hmfnX4D994EH83p8+iobH8xRIyfrdiWsjQQ3rBJjxXsGPftuXcLj8An3fNkwFPJm5KihNTappoHbDwx9+6Ev43f/vcZw8QR84JjnN7mKyJAiNnGL0bChkfxU+ZA/YNEPnpm/Gm99zBPunXubj58jRGRLpUv/QotaInIS+YBVB2+ctyejs42ltatUGnl+6Fx/8g/fgJ37mdfj8M2/BQiUhsWvw4v6rFGwoaONK46VJiMlKGzdc95J2EKF5Ks1PU5dWgbY2cGkyBzSBb7n1erzr3W/Gi688iXOnKEQ0vePQozWc1Ds75CywISg05Cqwab7NHPk+HHrkCP7Jtz2Nb7jv94wvaVmd/Tc6UF2eNCvDT2MkWRWffOF1eOLleZTHr8OH/yzCM8fvxSvnbiJpFbShdokOwHbOUCONkwSXTqFsCWiyah2mCnwdmnoG7/2Oj2FX5CD2tEBbvmjug+ag8NH5JGpKk/vZ59v4qZ/8JWpLF5FZBKopl0sFVIH1odCQHSgMYlZqSANKTLnT2HPf38WL1r34wmd24/ajNvbs/Sz9RI9E4gB1tNek6rtWzCY+Tpbgmfo+/IN/ewy/+4lvxUc+fTueOfcI5sPDiDV4bQ7rZAKBdQ5OkvujGuhbDQVq9DvNxrXU4g/eeg6zXsTnqen0uzWVIqKxHUzUmLf5dIyF6bkE99x3Oz79qSfpa/I9l9SR1Zu3/vfsNBSEJDSUNA2vSKStSCUJF0zeBHf/X0MSuKilKT7zyUU89Fof+yYX4UQ0aFvXk4h8n1WDTXItOT5+/j9/A/7kqXdTG/rUMgGPlL5YxM9WVFTTEwnveWZu8VqQ0UCE1N4mEiqphSA+g1sO0f812lrXpJYQYXmiyZLnc7rlNVsk6+RECd/4nnfgmWdfxPGXa9C2CgYib36HR2F0DYqCkB1Ic4gw0mQZxjF56C2w9r6FBDrHgVjFSvwgPvuETZ9qDrt3fZLma52tV+O4buBMdhQ//B/eg9/4zNuw4tDHMpPznQ/eZrBIRNte4e9NEUeHsbx8AvfcZWHcXTGEM5rRlhmaz3BeAgW0HE3rLOO+++/G03/1HE4e1w/lIctC3MznSnR2gQFQELILagGHAymhdrN3PYT9d74boVVCKdEco4OQZt25sII/+UQNwfgNWEpm8eUTd+KJU6/Dv/rlN+IPv3Qvmm6AsfYEx6XyUbfnoJS5qnlL5bgqmhqUjmPv7lOYm6EWp9nqmGsXqa4kpDQnnWAjhDzPxl2334a/+MQXEbbpG/NUMwNyGYcLrA2FODNgM9AfdCjdE38W173xR1Av3Q/HVpaOkrYV6m+SrKrxWqGZNwbbOc4B7CCKrkPovEISTvNTWjRRScfsyhS77QJl/kiLVdIGqnNfxje9y8OB6bPw03PYS794LFE+rDxGtcqlQyMP9sjHpulNUmcUVCuNafzv/9vP4uyZAM2I71LgSgq2wEAYUQ1pbCuNON4VGelL8WEU7Mfue/8aMPU66oFdNN00GS6fkv5TWoYVT/Bt1JYc1C0roAYdp7+4QhJOw4npN/JzI4fDmES+wty7FpCW1rVn1PoyKZXbyi630MTNN7yI93xDiLmpF/mbWoht/q40gUeTuxQnNLtzMipTyJjz5qH+qO2oZflXK0oqQYIbbjyIP/yjL5GHVb5EQVQQcmCMJiE5umyU+eMrHDv0mxxNlk9h953fCXfvNyJS+hr9LCkTrZxQsnZO4Jycmh6XNtVrtjbz4aeoQrqCNbmhtw3IKHQuo7vhkExRXfvcxAt499eHmB17yTzOSWaTlDpJHjQNW5JT53fzIM4HVMVMc5gHlGIx9uyfwsEjR/Dnf/Flak3Nc3ZPLrBWdJp7tKDx5FBL2GhQE7AJaGLufeB74O97jEbnHBIOxGsyR7jBkImplSBKeUvMFI2DqYmz+Ft/3eXti8YXlKDJ/d088tuioFmxPLRd1xTtEjpWboeEl8LxNYTqePDBXTh6xKVsu3p92wKrYyQJKe2YeEBYjpHN3I59d/wAMPMONAL6f8EJvk4fKlnfxq7bByKcAjZAYD2Lhx9YwfjYV+gfzxsC6pCG1zlaFB3CwzkSuaZsHNpPXR7mlL0ScSbzPEPFXcGPvvdvYmKsk+9aYCCMpMmqpVWpvQ8TN3wT9t37nWhN3YGUvpNZBUnzzs60xEkZKsMOUkm/g0SrUOvfcfRpPPqG03y+wedIo6xqyGTTGjCP+ftFSlHKo7/p872uMc07GpLo3JxHynNUgUDR2bFxG9XxGXzyz5/pvFpgrdhRGtKE5fWLJGZ0cPQE1IZQFQBqRMe1jOfoHX4P9r3un6B607fTPDtIcvJFagkr9Xhotb5M1l6LjIcLWjKVaNlVNgbXOoFHHpLuf0WvkGGBfqUROpr+0FSI8YnNG5UMUUIzrYpx9B+pQfUec1wKvS//DLYxteVb33I9Dh0Zh22zHS0e5gPVvgX6wY4iJFTfRkgdKgZly5TQ9tomQOEmAV3Fh1G5/4ex/9g3I50+iqZbMkNSEcWsE5zRekENvvzx8MOQzm5iZvY4Jie1Qa3IJyLp1YSH1J/IZJ1/XkGpNom8nNiI6XuqPZRp1AsKEykpIJ+7tFEKYvzcv/lBTExSAGqxtfke86dAH5Ae2TkmqxkbLuW9JLKybkL+wowaYhf9xG/DxLHvwPLcAySbIooKPjj8J60gDbCzZJMgYqmCgG0v4+1vncfsxCKtBAocUwbk1ZHSh1Sr+LRXZTN4pvisYetVYfl1tBsZnnryOBJaHfl0S4F+sLNGYSozjMPIbiH1OfACB9O73o5dj/wEake/Ayv+DCbTF5FopyuZaEZyS0f2McqGEOZ3WU2zhvP6QyGJSRM27W+SUCZoRFN+PrFoSXjUlHpff5rOy5bwLd/8GtxycxUlz6fHsPOE3WZhh7WUtCIHncyn4B4cOPbjKN3/g8im76DJlcKjCYZ4liYs76exMWXNu6wdPGDoC9vxJOmlLCLaA4ZYV4cJ5NDWaDseVmjSK+K6itV6BXx67lOTLfyvf//r4DohTVfp2AL9YDhGoghm/ns8gvyqaQm5fC4XvnspiYExJ8bb3nMUb/+Ov4sjb/hucu9RtK0q3+iYOqiyuGJLq/TlWXVD/ttoIn/DwR+cTJBINd4jo0xaW39VClSOUnoyssqoxyXEWdloychOeJvrSnuVBIBElkpSwrG7ZnDHnT7SqEPIS5r56mbzKEJN1LtVtxWUT6rFsLpcrbRvcjTQ7EynUZ48gftffycefuB2TN/2KJ5+PsPjXz6Al+f3oOk0EfThL+1kKHuo7DXxA9//OVTSs0jsPHhzNciDVDKBgjrlqIVd1LAz8kdpaeRlJtkl/JxeWlMFsnINC7z0ss3v/iAW68rtvfyLixy7yzEUGtJoRXX8+fwtH1W3jpnZo/ihn/o+fM8/ehh7bjmCf/XrU/jtT9yG584dRqjB47/cOX+EQesiDNeeddQtuKwIakhT5BzbP059OIlLc1/rO5VIsIo0V5aTWegc4roDJTz4sLZD6Jg1mpoynVmQsReGgpAAO9j0PKlJIt5/awkfeN/X4x//xBtx010l+JTipxeqZmtwmxrAc4+jRB+xsvIa8+6RRUd72QNsMpmb9NKmJA5JHdsBfUkl1ruGSjL6Vxs+JhXPpO1l8Nlf3/s974TrRXBdZQwNyZC7RhiK1jGVznSpiYd9ExZ+6oe+DncdKuGmO5bh+KfgxhWktkwpnTOJNPMRuzVE/lL+AQXWjK4pqqQAhwxUBtMyVWLdETnz+cvVTN+8dq1WhLiIozqmphL83b/3bthuhMyU0SxIuRqGomUqyqSxK5SwIX7wHzyKGw45WPD20HA9Ay/0EfoLJiPFtiJqgyUOnoAW0zQHTB5FHVUYLedqP48AL700RaUVwKXl0A/yHB6RLg9+xdSSNbeCGj8rM5XpeIZWv/SAKZVJk1XRbkubA9ltvOPNY9g7WSFJlb0TndfeBS7FUBAySjkk2InvetudeMP9N5NwIWqUtJrFSC2fHU/CqpDURREG3cvNqtGFNFi+oY6N48dVFU/G5jqEFAnWThIzP6mAjwjbC5dyLQ8Azc5W8PAjt/MhrR3D9YKRvTActgMHgJNSyj56FFV3xQysBmKEjvwZEVEr3IsgQS9YCX1rdvNLL/mIZNKTVIMipVYMbYe+pGVImbd7n8gaeMfX342gJNdCi6SLaY9eGApCarXCQ/cdxMP37OP9OpasKuU8KSgpy0HiZi24yaX1UgtIN9GbSym06POdOTOHdujyyXVM0tsiokNf0kHLVk6s2r/z2lWgvTMP0u9/zd17zFIwZxVzd9QxFITURd5x60HK1GXEdoZFe5zPaHWCzQGXwMvquPGgnitwKVRTVQItRdjaheVahjSmZlsHlNUUOh5Ctv2aIqaJpjvqeMtbHoTjyLccbXdiNQwFIcOsidsOuvCsJmpeFVbcpIbMq8FlTkzjdRZT1Vco/dtoa7mVtQQ3LqHlNzufMJrQ9ENqRTRbx1Bj25w5dS9V1Tm+om6/+OjP8NRuWl6qvbzKOEe/vUVSufTltX5UO0u+mtMgoeDRf7znzl08L6amHeu8UuBiDAUhzfIe/dN8WJrRh+x92Q5q/EH5/JlZJb/KeaMDtUPXv7bxynH63+ngRLhYp0VpiibN4UjzkuY7zEKsVZG/18H0TBVvetPNNHeLFSC9MDQjVu6KwugRLzlcxVQ6uFcrOFye63As0svU0p9RhwmgpHDpOz73vMpZXtd5Ye0QubvTIRHbeYVmqLbiM/tgSvjxJaXq9QQFpPYNse0W3vWu18JXweUCV2A4CKnYAY+85oudR/h6YKqq/Rh1slY1xJTCo01IYymQLMq20RrIZnMap04PHtQxTWv6AfTlHTScChokoqZAurVcc8JeCb0PmQ+Lbsett07hwN6p/IUCl2B4NCQPGV5RQpPVzIFdCddaMZG/fOCoJMfOWPU/OMSC3GTVVENMX/LsucGjm7luFJR4bqNFP74Ry09VO+cJ5fwic8blMETlNUikAivYs2smf6HAJRgSQpbgaUBhHCs0dRztPWE6Xpcv85SP7RC33uiTiJqhDEyo39Ik9AhDRHSsGv+WlMRmrMovPj1n2s6WuWmVkbo1OH2a9t5FXA7oy2fsixo/uW0ycuRMxHC0cLIHJCgzJw/Gld1J3HPXtC4wPwxE6qKE5HAQ0tXWb212d8JBJX/lfC9eAqXNOSSm5r4zma1K0xppqCHUxV2tZaPdpmaLSA76cmZzoVXasm/QfYgyWi2821s3dkBz1ew9yX8Zzda77zmSc/H8m5TStz23X9hKDAUhPfbl9UcOos3OS2WurtLzk+M0ouwGpXEeQDDpdKOMbjvJgjBBFQ/NRomE2MfHsdFoGgLr2Rgodqgh6SOYRA1KwlWDOhpqFJJiYZLWcfSWXZiarnYShzrDcB3XsVMwFISMKDjj2EUrzgMIuTd5JUp+y+S5KpSh0bgTSjmuHxrxnfaikFqY97G4tBu2qs+dZ2zv9uwHEftDgTb5lPLdzdf1gukLfh//qzyl5bRx7NhRuF73Tau9cbQwFISkGMbx44tIsoD96ZgO7QXtYsyhQUGrXqcRtQO2A9g4iHzSUpN49msREvqQxq8TLdeRxhbzM3SIkDm9879XwCxavvh7MtzxmiPUlrwCvtcsXjbm9WhjKFrASiycoLlV92OUQp/WV+/AgRerDHIZ2nJN5pPxW0YcSp67cChCDXzhyy5qKMGOp+FZC/S3VRZlMGhmuOVo4bIFT5P9chV6QX1hCCmXQ9lUMQ7MpXApGMwuzCrZaQI7o42hIKRkbhJrT8LO41Wsm8lpakg3D1bkpxRm0OWQNlpemMHpMx5SpdHFs3xy8BRD6UVVlox45Bk7/WPf/hnYWv18HoObzjsFQ2IjKH+SbKQUFhlXI6TjLiFLVnJC6vTVThxhaAlVlu3CV56aQuRQY2XjJOng00MmKGM7aGujWmm/NSCzaxcIuYqlO2oYDkKSXV0iKnCwmhy1TMUAi6fnK0FMWL/ApWD7RU4dLzxzCGG8G1HSII0GHwbyQpVSF7HNFQFfS6D04KEZuCMeCL8cQ6Ihc5gMHN3hbS/It9RmOd0MnQtRxAIXI3VPY2nhAJ57hjrNb+Y+3IAwhORfkVGlPtak6qw2EiNdu+8p+msoCOnxKutLKc3Rkroe7irZIInt4YZDL8PNKoidzsR3gUug9DYnmkPkNfHFL4/R/yvBZrsODCVg2CF7RUuwAhKz/6kml4Jz727yUhFY414UPuRQEFLVy5584ktwnE4UbpVpD63L27UrYOcqYqefVnTwlVCb2NSKZWrJMdSVKOBoJ+XBkBsrmvaQllQezirmSw8kSYy3vvWtvJbOEwWGg5BpasOxfRPNy4dA7x70ONg8d5F+pKqc89E65td2LOSPU8Apo2ZlZRa12nVInMHna+Wvq2ZPTN9dkVZTirNPODbfq/1V+ufwjsdQENKUHSTdrlYYyU4j3HSztiLPCdnvxjIjBRMdo5npriCMqjh35gCSbHCTNU8uUJlIBXYkKNfArjxvrsBFGBKT1cLzz79EE0cEU6f31pAupf74uM1+Vjif5F1LyG9koC6X37dCbnr4wucW2E6DJwaod/KgDk1QEdL4goOiIOhQEDJGEy+/WIObBbzg0PgrvWDFHk3WefKQJpgpVVEQ8nKo5UyKYVoyu1SdWgYWVlTAWAXDXNO+mZ2QV/2Ro0m3PkhDs9XfkltG6qyBVIkL16eLoUwhCs+iNOSQEPI8pPXMJfcmWmpHSJXvKs2ordcKQl4BFaPS0FfeqBLMo3Aap05pDlFPKbijO/0TI/cZ8wmmhH/Wks5v03d993veznfzXYbHxWKA4SAkCeZojJglVeaOefpyxE6KZls7ZSlvMuwMlgKXgG0pQmqvDq1iTLALx0+Mox37bF4Rgia/aeN+/W8lYiiBzkHMbolW6ZteyNhHjisBUdTX6WIoRqylQcTx8clPfJqPVpfempx+6qlTSDvzatrTosClMHRRkIx3VN9Ge6KcOkuT1d6DmG2cadWFSNYnIfPKftSQmvbg7dp3o86DQvmFFWk7Q0FIpcMJvieirS6BUw6OFGO81SoPja5i9cCVYFuKjeYuTXzeP3OGZKIfp/lembLmnL41pD6rY7LybSJl3zDflb8/79b+TeWdiqEgpJbqqL+O3XMLr3j1lQkOCViLq0jsgP5RzZiwBS6DoqAWfUWRQVk6aKFZO4hWUkMgy4Ltq7o3/UO5rOwfHooDqbpd36CmhnuGd2SySogWputQEFIpc5OTPoISO1CduMqEf8zXvvjE2c7rTkduF7gaVHP8r56iP2nmFBVvlS/Zn6ZTAC0/U+910F7XtEeB4SAkpflddx9mn9dyQq5CtMypoFnfRzOMA8qYq0WmTj9QhPX5r02SlgrO8IG0nTEnrw69V/2hpW4iZGRKQhYYFENBSC06fsc33gvLFSFlEvWWwvNLTaTxfr5B6yG1/KowWfuBtvebP7eH2i5vW1UB6HdodLOhckLaaK/SNwX6w1AQcm6vh1vvPIg0U5lAheXV6RdrSd1P0YgCnjNOjarHPNYwnzbKsG0b9UYF5yjQnI4gk7brB6Y4Mt9jbkhs1bLrtP4FXPKgwKthKAj52NtvZ0dHSM00hgaMCHmxJM6HwNmlCagqnZ14sK2QA2Qdy4pGCLIm2raDWjwJL8mnPFarDn85vJQeKM1U7WZtW22kJPf5dauEArpDMci2CYaire6+92b2bBOW3cnkkH9zXkvq0GMPr5wpk7gcSOYlDajusCjwqmB7xhG1ZG2PmbpQ25k1imuCEg5op2j1RoGBMRSEvP76A/yrbJ2LL1f3zRAwAwrUhifmZ5G6gTFZLQV1iuVX/YEqzfNcPP1Vx2yiY6rCrXkKgprVyo8Cg2MoCPmRD38CjlWlFO90tgkkdDWk7ouQHp5+IUNEIiqzR2U8iuVXfYLtlKKFhfkJ3pKQyQSfLKyLa4GhIOSXHn8ZaZJQQ1LjmQCCNmNN+FdTICKjhbPzVYTxFGmqOJ/DpxSKLwZVP7DZXknWwJmTLtu0wieoHdeU5aS2NjqSyjaPtJp/bH+ztUDRDX1jSAj5CmpLK+xX+TWW0XxuFtE0VZCH2tCK8crpkgnieFmdg8Mxu1+ZCGCBq0NWhbKa0lksnKOCtBfYyhJ2V4dJVTcugh4oHGSD3j4fK/iW8bP4Gv8V6A9DQcgkrOK5p2u0rMbIx3xFgjpe5qoKWalUR+QU7BsYMu0pzBKScv6stmvQ9FLRntcCw0HI2MITj79I/pU4eFSeg2arpRQvs06A5pZH3Tn43vkFKOTSMmJaFcsrs2avR6PxCmw5hoKQlhPi7OlF3uPlWor+KWBjXuLA0S5Ok3jmuXr+RIE1wyQCSEPaKU6ddOC48fkVNgW2FkOjIS0n4aCRaZVvoKPBk2tMlfRYQjuZoL5UMEfGlkpQcJAVY6ovaCJf/p58yQhl3tI31/L/AdG2/Nx31EfQeklXi3YbU1lTLJoz1hRVMU01FITUQBkbC2hKadAokKPULv0jOVUfhiZWpl2U+HPMGBAZzb8C/UBhF7WpAjELyyGaLVX4G3xotFRmsvOpsmBW3xBWQlUCVt8lMhY9NhSEzLIQd9x5M++p03JpK4muEhApSWkl1XwrtAIDwazsMMEyepNRFbYzbgg1KFQAuT9xKNVcaMaLMRSEdP0EpbLMUQ2anJCmdAT9SUu5q5mDPTOdtLoCa4aZMyQpRKFmq4woq7CtB7f3lazez1RHfk6CublJw80hGY6biqFoAcuJsWv3FDuaQyZ3TOh+eMjsmN1J6Zq1sWt28C3VCogNsjgytJo+RZ5888EJ2T8kVFNMz4x3Hm/Fd25vDImGzLDnugrSmOYpImrEzJSu176GthYsO21EXszX8o1aVTUtn5gu0A8SElFt5qWZ2WJ86cyBzlK3wSBhecEH7XqTV0LfoQBc1+opfMghIWR1PDBmqynCxM7Lu1deCu+z83PJqkGgwIQe5SbTqrGEApfCENKGo4wbx8FffWWJwm49Q0OJGxdIuBohL7zSfX2180YHQ0HIt77tjciyvIhSDtFNUlVR1VwbuvlOPAUGgRFcuSuQaF7XnmR759NLgyDmqLp4TeTqg0wdqqN7xlAMx03FULSAozxLlbc35o26WYSUz8NHPBy7DR8r5twCg6HbnildgKe+eoqPBq9pG6pyALWuTGGDLjMvh7SyI+KLlEL3dnQxHCLpfGi8owU5cuxU2pHDyERaa7j5iJYMFRgEXRqINwndgnrTQrzKprj9gF1ziYZcjWaWbZsNlM6cPtM5uSDkUBAyYw+bagFaTqWyHFZeB9SP8y3nomzcbLKjnXxDl5rUWSSHJ9DyirnJvpA5iNwWTU0bHps4zSo4M18mqbRLlgQhh4mEYp8Lvh369Q4/05aPwfdIaPYEz4HVwtKi0h4VC+jv83cyhkND0q9hz11k+aij80CEoA1I5VM6JrUur7tjTl4tZatATxiLAzHS1CUpS0bYyU0wKfzqg057Xw2ZRc2XdlMD+PdVFV/3vEI7CkNByFZTXUYtaXwSHb07z8ta5GDF+EFKGlBpwgJXh2hopwqOKfkihBdMYnmxk2hh2pztaII8/Q0XbReoSSiaNXwf+61PIhcYEkL+7u98mB2rGjkaHNJ6vYl2/T6bA8tMfnAcaNV7MRD6gQjpGEKyvZwIYehRCFJDJppKUpt3/Xfdvzq04Y4qB+RTHyJlIRj7xXCMWEnni8m1SgdXygsm71WmqnxMm6ZXgX4gook4POSf059r1LVDVplWifw8aksdfROSGpLug0xXfa5i4gX6w1AQ0rZDs+Mv7BoJV4ZqgGY0SxXEUXaOzC0HLSQuX/Aa5GOJA6nJcwYP3Y8SFBFNtCiZ5qoSLbTp7fEzk0jtFXht+ZLSj2zL7jTGZVA5lSDVwvEMbbvCxzyPfVJJIh51tOyy0ZYWSerwXJdC0+ERkfiluAZfy69cfrch/WhjKAiZQ5falbTdgXHxAOmYXTxk3urMPHmgwCCYn2+baGumSKhp595azqKvHtnUqG5FD1CNl6ghYyzbDs64PlpughLOsvekMak5tWuz5fPW56dSG/Pj83IsBYThaAnDO5mf3cu9mIgX4FECmyWTWqgsiVyE0QfGSo1tbU2TlCqX0vEfe7kKmnaiaSpt58VNHMA53G+fwP50Aa6et2jZ0JpRlUD1iba601yn7pedGsYq8lJzwZlvETHaGApCqhj28lKD0vrVO8zHIhyaPvkK9cJzWQ/SdBJnzio4puiqCZP1bM849U1S+kyyjCNuHTcHLdzdegl3Ows4kC6hzL6LkwnzfvWJ/nqqS0BTds46gT1j2g2EJxlBWmjKIWkBB8vLNdhmvwkOi1V8mRtv0EY7KxTkShzgjyuirAMjo7l6+gz9ctPeFHBGGF5JyciuIqCveBBLOEyfcyqsY8Gfof+ZYtI9h13BPAJrvnO2ejKBn9SwpxzjyGQT1fScsX302Wnn3ihjODSknVDKSmpTUlst+oq9L3uBfkscT1Fix3AS/0IuZYFXh8gmZ+6io0FuvPLKHnjuKyRnGZZ3Enba4qlthDRFE8sjTy3c0P4K7nSfx43+WZSxgrZDb5GmqIRhlUQ9XD6N20ovokRyTuM09mQv4/rqacxNvEJiUjvGFSgWBwoAVxUFRxzDoULEKw0UI6GvlNJdHH9xmVpUe+XrXKEg5KAI6CfUzlAzpiRKHMBOKmi6c4izcUwmLdwYvYyH7OdwB13E/dSg4yHN0BgoxUoEoGmqgwIxQwuVsRR3Ti7jtqkV3DzVxN5yHWPpPM9hD2VtHD2yh9/YzdgZbQwFIc1iVyO5u5ebBwEuR5aM8yVF7wqsF2kWYTmaw6KmkNTeZM9UOI8D8TxuspfoK9ZxgGbqeLoCX5qTpqgWjUfsotyCkXGqm4RCso4STVM/o3lqLfHzWuxUClYS1rUjlDwyOaObUXTccBAyS13YtkeTdXXtKGjrc/5lX2soqHe7mrLAWmHRjqwle9G2Amq/BRy0FnFf6QReWz6DG+x5VNIQoeYX6StqYUjb9Yy5GrqaxFDb06zNVH1Oc8QWyRogdhxEPEK7ZApbp1kKj4T07Qa7S1HYor+GgpAi4osvvgKHnZljFVGqPQ3NodUFPMeYuQUGgctmDM/4KK1EuNtPcW+2jKm0Bi9uoJw1EPBwsxb82OVzAVz67AHN1UqkPVUUNdXMo8/OC+hrqvSKBlu+J4uSCIIkhOM6SGn+3nD9fr6qRPYiqDMUhLRjOvuJaxKWE0eO/yodp8wckVHJ5ea+NucpMAha1JCZv4CJlT3Y5fwV/HCGrZ4n7Eds21iFsKQB5ScaiyQ295XHaqYv7LaxSulVkmp5sEbPS2Nqd+bEpjZ1mvQ5XUztWWCX7sZU57xRxlAQUvmUrkuCnfchC2djs+EY8lh45vk6CSThJnH46i7DBaifFNjJEMdKh+s9zFR8XlMq9917lH3cRNMhyUccQ0FImZ5//snP8M5wXO5OgCKlcZrhzOIs9ZZyUet8rk8XgO/tTqXkO5yvQkgJWJ5225EyAmsZ7e6W9SOMoRjh8i0u7djeUdYCGwfT0jQ/H/9SE5EzRn9PrkC/GlLn6RN0K726yjCjyZtRTd56IMV+KWG3IORQEDKPlnY62AyKwmTddLCJLVf7cuzF/Eor39D1vMtwNVwgY/4e3b8SeVQ1Q5Ccwi/87HdgqpI/P8oYCkKm1go++T+/Zkp02GlgAgcFNhcR/fYgbmLFmcOphQrS1gQSbSnfD0ykW9qO59NHXG3KX7V2lC4nWl538AS8qPAhi5FdoCcU0lFt1ohsibNpaK1ibz23OhRlVbqjgjsF+kNByAI9oYVS2uOjTUIeP102Vf/WSkjxUBvvmOpzBfpCQcgCPWFr8XBWRtvNsLgywycU1Om8WGDTUBCywCqQqemabQHibJKP842MCmwuhoOQZiR0pzr0oEix2mxYyRSS4GWUQw9PHK9godyEqsX3BRL50uhqMU3VLwoNWaAnlA7npKpNFKMWlZDau3m/Tx1pKjbIvtXB+8W61L4xFITULIfj2MjSomO3CiqDYrYEQBvPn01QD/eswYXkmXy/xcP18rnGAv1hOAhJwWzxj44CWwNVaXASETJC05rBcmuKz/bb/iKgjhS2tGOhIfvGUBDSppB9+OGHee/VO/biQkoF1gdVmrPpC2r6I0YFf/nES5KKnVevBvXAxb1Q9Ei/GApCasFAkjU5IJT9If+k65fo8slW+Sx2iMmJc8jMjlh8zYr4SpEbOSj8mK3nNNCwZlFOVnDSeoRmbH+ZOqpYbqc+fLa/69SR13Yt0A+GgpA5dKmS0KtL6f37K/Q3VR5C6VqibWHiDgpT9NE0d4aUmvLTj3+NQlFbxvWLhAo1gW1nJkGgQH8YDkJSAX76U5/jne7lSkteCQsqFalqATyDUjpV1eQC6wBFWpaa9ZBtew8pphqtfSCTv09K0w9NzVb0hWDsF8NBSPIqjkSuV79cbRKqvSlUMcBoSGPiFhgMOYkUKc1IyEYygUibqvQFVQ1I4LhyLWTmFoTsF8NBSANjP+V3Dd2uhEXTSqsH8n0OdXZvTVrg6siXPupPhpjNGMc+FusUcNJ88gl1u0o/5MXGUjiOMXz1jPlb4OoYIkKqU7sd2yXmpbCyBE0/hpcmJgezGhbBhEGhJVPag8OhyQlqOifMsOKqfio1XzyW75Ylk7bHEMqyEhw7hOdE0H6dZhlWgb4wRIQssJXQ9jkuyaQ9NrX+dDmaxPw8NR59dMtuUoNakLzrvdYxJ6tDLoqOq1YMKHAFipYq0BOaf1RdHcfY/gkpNo0w3U9yutSADb5m00fvbYo6dmbMVa2ptDMFhnpbNAWuREHIAj0RO6pEruCMUuCafMbB115MEGLCqD0ncalB5aNfSUpL2pWk7PqYq/C2QA/sKEJqDZ/HMSLPxqG51XdQsMAVUL0bpc+JS6bwMTXmydq4IVniOCbPVVXjeuk+aUXNP6onLuzJUqAf7KghOzNtYSzNJXvAMaS6MAUGg5OoDJz27CDxUp9tmmLeugXltIW655r9OxKndyFqbXbkqIKcSdDwVjVtC1yJnaVDnBVk2ieikxyw037etcYTT51FmMwglemhNjaV4a8kW5ZFnQydIrq6VuysEWupfL2SAbqT0YWptJFo2I7ZUIc2KbWmByueJh2vtEIc+g35hkfdeeBCMPaLndVS2s9Dq9XNICnMpI1GmM7g3LLTISH9SyP8rmxnbWWnyGxRrXPtGIomM3qOPszyckZ/JOVF9zaF7NSh8Fb6XLfER0HKwaFW1/C4cFhZGc+dKqEch0gUtLG1Oc6Vbey6CqvRZDVJAbyn1Tg9oAoE5nPkp1rL7Lc+c2V3MIaCkI76nhx7/Asv8NHqhSREVB15uF0BhSKoMzA0d3jZ4bo1NN29GEMdsQJmWe/Cxo6d90G+k7VFIdpbgGp+MlECupLWtVtWVhByKAiZscPyDK7OJLMxS69EYkmDxhw7GgAcECbkXmCjoB2Szyy4JBHb2BBIgu9KDdkvZO34aZvkttDMDiEtNtsZFkLKXKJEjdsmt3K19XXNUPsWkrydMDupW2AD0WI/vHKyYgiU2eG6BZ6WyDlJQkHq4/2/+BmsNBudV0YXQ0FIaT2RqxKoRkubhOstSWu1Csk6ZjSqTFat5SuwcUicEqL0IKKOhWJpd2RzbzBojlLZGzF901/7nePssd6WzyhhKAipqKniA3snbExZXzP5lJoHU+ggoXmaWZLWPCGh9M5aPJemq83Xi8SADYUVx3hmvs72njBC0eyU3AMlt62ZEcLmedrivPd5KjEJCk/5mFGkclqFAB0OQnZM1BKauGVfCDdrGhNWBZNVv0UZIYaQivrxyLRAWVki5xMECmwEvNTDYjSOMNnLPtEi8N4azXNyC0YrQvIIa289qhUloNBcquXmb781e3YyhoKQnoolsV/9LMRM0MT+ylmTq6qlQZqgVhEl8TF26YPwvpOUKZVF0FbnEwpsBNTepxZcNNPdbN/cSlkPjBClZH3iiXPsYQrVju8/yhgODdm5TCUte8k5HJhYpBG7AocENZ1qXrfQjsf41+fA0bIfdu4qplKBweDaTbRdD3V7gm1PMtp1Q6jBIUICUXwdP4vmbVJoyKEYsQl1pFavKyXAsVqYLtcxPtaiRK2RdJLSNI2oGZ99RkGfKp9v8Ez6llmxJe+GIo3RSsfw0U89Dzup8nGZbSyBOBjEZcUGPvrRpxFrSqvQkMNByNS1UE5LOHhoEYntwE9a2DvdQDn26E8qASAy6QDtbDeSdJ6KMUFocbAUHbyhaNkVVKgVTyf3sN1DpLb8dAVu9CpdCPny6N9NsC0KWX+Jvecj4ocUQfEhIaQgP/I1r9lvQuPKppzzXoLnzSO2tUyoBDf2sbSiuqF6lfpRkdgiarehSCxtLZBiOZphG1+cgZNrSe2UrGoB/SJN8wJatVYnq6roriEhZCLp24LrRjRzVN4+xXRUw8zkstamI8kamHIpuU8pf3KMb8jPUQmJAhsHVxqNZupHP/U0232cfXHp8DHlV82fPmG6ZxeefWGet91Uu9HGkGhIH7O71Fl1E1UV2dx4N3aPtzARk4x4BXurNRKT2lJJrxwTCurkFc8KbBjoQ8pCSYNZhHaZT1y6HlIaci1FkW2avInqvbJPtUNz7/oDo4XhICQl8X333UYtmc9XmWCAk2G89AKuwwoO2DaclYrxGWVGacJZXauVHwU2DmrXlIRr00VoJhR4bp4zPDDsNtKshFhzySSnCmuNOoaDkME8SvZp2EkDkZMnj6d2DW6a4ObJ53EocPHZ5/cgzmiuirSacM6oR4tk5Q1FRPkmQZeijJdWJkx/5Eve5ANKv1V4v/82T0hsJGdxfLFsCpznYnS0MRyEtFLcfc/1cG12GLVgHj1Vdo5Lv6ZNIgJffCE0g+Ji9K4ZWmBQaJ2pncosVa2d1FSeu1BzNS/Z4a7BKNFUse/ZOHHyLInceXLEMRSEdEm8XbtlruaXK+Ip1G4CPHaCWubj6bMz5rUCmwcVtlIPdCsFOKkqNHSGkPpDaXJrSH+zaKqmKbVrMd9xHkNBSDuxcPiQMjkkRjt6jyJV1dC0oUsNAZ5d2a9nC2wmLM33uggxg3YyAcfWNFPXzJTZSqKuIZ1OZLTp/+cdWkAYCkIGjg+/tEyTtZPMzDGQKIqqAI+doklT6kR9On+twKYhc1qI2QdRuhcnzwBtU1Wuy6bcZHWKONq6MBSEnPAauPlohTJYOyTvosmUohSW0fLrSBwXv/mJo3k9FkVVLz8KbBjSlFrRWjYVAxquDScbpx1b5ytaQK7od0uzwvnJfcClebtg3YiS1TaZVsW88ZAQ8vDBOWpDjxqySu2o8Lh8FfKNr12QzwWuNVyRVDvs9Ik0DvDi88t5ypyCdfnTI42hIOQ3vvOYie4liapgU5YqPEeYHEoeeXGz/gdCgY1EpxMoJG0aJJrs7xtWCf/jI08Yv9R8RIHtT0iT+ZE+CUdboPFyM+1LqERkPi1aWp4Li46LQgoFrgHOp8+xdxxNhvTeXqAXUjukGVzlO0lIfkxRJXBINOT3fu+bScgVdraieJo+5mWLkOJqmmJxcZG/pBCx1xKSm75HP1LuRJ/Qtg9GyPJfriE7QbsRxjYk5IRKH/HCJgFqv4rvoGo/hSyeYad78JLUmKiJ00C1RelqVfGxx/chK2p6bjr8rEG6BYhs+vPRJP36FG1bNXFC+JiHb9EfXINc9BIbYXIdidkGIva6o8LLo41tSMh8CzTtwqt6K0dv0IS/gjiSvBfMUiUFZHYLqdPkgFBEVTQusNmQu+CmMY3LvFqAKvvp8H2tyKGuo6/fL/KaO+VOtyYXd+/IYlsSUtRLrRasxMXBfewokxmi2w4pOSg0MOSD5JuKThSduQWQZaIKckHaxESF5qYJj2pyPyYhlVKnbcz7H1IJ++4XP/BbhphG6BZ9uF01pJbjsKNTD4f2saO07ZnJALkwx2XyKakZz857SOO9fNx/MKHAYDCETB2U0gbmJtrsJ23doCpzCVyzfCo2hO0Xqv4QxdKQfI84Satn1LH9CGmJkHkYXJk4x27fx/sUnSahvCtCbVg2/ZkswOJ8lYTcBWeVzUMLbBzU+rJMvCw3WRWModEJzxehIt7X9H7/0FKuzOwPwneZ/4Xbsf0IqUWuaJoO0sXt3cv757NudOSXnCT0LUnehlPFcvUk0v4TRAoMCCWXx5bKbrqYphvR8krsgjI1pOrkNoCYroOqmesge22EFKp8o4phaVmceS1fYK4YgD7P8xf4wbEhemazr0cc24+Q6ERL2ZGOs4zXve62/PHlyNixZi1e7k8W5s7mw0011ziPuPw1lPcsILSX4FWfge02SdIxpE4Laek5pNXP8X4bSXyQOpMmafAsKRig7a+gVVogOWnexg6ef05TWQE/WXpVASLzNSON7UvIhESjX+K7i/njy6BJZF28dsRyTSChIORmI3R8xMksys3rMd6axlSWYBemYVNLLnplfCW6A3/89Hfij7740/jYK6/HqVIJ5B2c+o3wWwHfN46geYjWzB7EwTza0RiaLVk/ImROy1FHLpq2FcZg2zVk6QT2zi7ja5+6m55FrfPaRUhLxsT50vO34d3v+3toY3cn6ldgs9Ckdqu2gd3R0/jQP/4cXnZSvFC9Dn/wp3vw2a/ehQW/hEZpnoKyAiecQDWq4bbdX8XbHlrCtxz8Lex2F1CpqVbuDJrlU/jKV+fwhr/+OdRl8iqIzpE46j0op+wn87vbBNR2li2fYgLf9O69ePebXdhm2uNySIO20E4O4Jc+disVqjp6Gyr8HYSsvR8TSRtvfCTA3O46fvAjr8evfP4xPDH/EM4G19Gf53CKjiCL9mDFmsBSaQ+eb92Ijz99Kz76+bdgetrFTdMv06pZZp/aOLHk4QO//goiE1FX760lz2dnYtsRkjSj5tMqcg/vfEMJb32QRLOvjKA2K6dQaezC55Ym8Bsfe5CmkYIF+jkFNgs2/cLMXQHGd+G/fPkGPJ3ehCgd5wtagaNpD4d9l9B/jM0uytrLU7PE2gfydDqH//HMbvzFmZuxks3RbA2QtAN88Defoula4meoop38ydGOzm07k1Whb5NAnvr4g//2dXjsrifgeFemxdnJOCznLH7t8Xfgvb/yLajT90yLPeo3Faqh0yb5qtfvwmKSUbOVSdK8nMfV0CrR7Yg9nurDi2KM0Ubdc/qD+MqH3g/Ul0Hr1xQlG3WvYxvaeOxc/q94Eapji3CD3vOL2mxngQL1iy9dT7OVWjUp9vHYbMhFSEsOzqoMpE8/UZZLZync1TCzNI2J5jj9She+bSOyUpzCm0nSFiqpSK2YQH7uKGPbNYHZT5B9PFH2MDmRYrXUyJZt4fOvvBEf/txBhHbA9/U3MAoMjphqzDJGSBOW1SZDFYkxL10Vi5UW6iX6/E6GEGWE2bSprWvFFRMfTxQnKITqNtSQJKSWV6mcgwnmrGKGLoe34n2/cBAvLjxA08lB6i10XimwWQgzkscbQ4lS0qdVkprdxfpj5FRjHJONMsZCGz41onYni/ZNUvbeQndDqZItjK+hputOxTYkJE2XIMVUZR+um2QHUQp7aUSpOgE7C839mjWNH/n9h/Gl449QUq/QdDoHp11UndtsxB4FXxAgNkuu6CZIQ/aJRtDg0UbLi5EopEph67VLmkiG5UbUjmXUivTH7UfIauIhcIBg30uIxs7SrJlBjaaO45wjIQMsOQk++Ptvx5999D7UMGXK0FvJtAnwFNhc2CSk/DxVZ5CDsN6J/DizMHPXQyauKouocDq2ISFbiJGFFXzzmx/GLvoXpUaKSquM0uJuktPFX5x6I97/8euxhH0Iy4vI3CVK1yt3YiqwcegSxXJd9oHdTaxZd6pb6jhw99zKz9M2d/yw9TJ8B2DbjeLELsGOM9x1dB4RjmOhMoWPnrgJL4+7+JNTd+If/+zbcbx1F33GeUNCR8noVqvjzxTYDHR5YvkutVpesWEjkFouxvbfyVE4BlM+siCkaYLtZSk4Hp37CC989RuxGM3h+/7FzfjiK6/FtPs1as/rcaIUopLM8cLpe8Sz7Mw6UmpJ1Qw1m+wU2Bh0RoYSNZI0oUtgI9w9i6jkI6H/qIR+JfbnanKwIZTyvbPtGs789t+Cf/IpNDx+zoh34bbL1AmcFEeP3obgyCP44X93F77UuoeE8+nw70bLCeB1NKFZiWdrkTIlq1Z+kKAFNg6ZHdL6cOCk1F1uCy2fRuXYBJ/P9/cwymydNmveZ1Oway+hfeYzyLRYWYXMRhjbzmTVFtfPLI/hX//q/XgxfgCR6uUUuCYwc8KyRGijOllA12Bj+8JJUwpZF/6RNyC29mMsK9ZDbjtCBqmPKGugZu9F7C7SPF2fFC4wKHKHTulssRsjlYY0tW82Dsp9Da0I8Z7XAHse7H7lSGP7aUiEyNIyXGsRjrVCP6Ug5LWA9upQy8c0V2266uUjVcR2//OO/SCBz38raNIN2f/od6BR4ReNOLYdIUOPHZXuIimnkSV70HS33SUOP6SJLjoUuMkDNDJTu3OM9PA0gT+R4uCx67CUqubqxgrHxHLhZhE/F2i5s/RVJzqvjC6232jnGChlKyTmAvxYe3l0ni+wMTCkkqa7cJjiVCbrhv4iR4Q2BGj5K5i6v4zqG8uYn1lA1E5J2o2tymCjRcE7CRVKdhIleKx0XhldbDtC+hoXEw6W/QYHTwwvKUpzbDZC+ohtHtKKMclhHWxi5k1VNI7Sl59qoOWwU8zmrAU2G9uOkLqg4PBuBHftRtvR3g+K9BXYTHiJj6zloB20MfnaEtxHQ9T2Lplgjk2BaC27qLQnYKeFcNxsbDtCJlaAxt5J1K4P0J5M0PaKhOPNhgRfen0NM28tI7qxidS3zfyjzEhZKLJyU5u+XiEcNx3bjpCpa8Pffz2iwMHkvbOIKvJx5EjmQYfzR4H+IDZdfJjnNK/okXAeBV4LpTscTD9aQW1uAS2arH5rDF6sBcMREqeN2IkReU0+lj9RYDOxbQipfSB1JF6EsX23oYQqTuw+h4nDk+SfycvhPwUc8r8F+oARXPnkfvfQU0maIcpINi9G9Q6aqHdYZlmUnQRw0wCRGyKi35gnBmRwSE43LHOwbDv5veOw7VrYvfVhZLO7EKusg0Ma7lI90NSsoTP5qzwn/1tgENgpu9zJUDuwAPehBOWjHtu2V7oaz1NUlUerpVo3Du8X7b7Z2DaEtG3baMjKsddhwXXgmHC8jWgiISFDZJLYSnLWyRucMTISMAkWGWKaoe2ZOmYfmIB1Q4JmaQWpoqhXQG2ct3O3bwpsPrYNITMOGMdxMH7rXfRrMgRZClc+jptgYs8kEks7LVE3clwVBuva4VDIWZpknEyx69EpxGMqUEWSmXWkvchGkqqECo9SyaWZq92uiqDOZuOaE1IBG6Usq7ODsVm0JqfhWY7xcVKtd9Rqg6YK6crH1OXKnywGRm+wJTuaTH8tCjkJMiWGO6GLttPExB0TaJW12Wre9uZfD1PUuAeUfGYTHCsioXsTV9k27B3TK9qeXI8LDI5rTkh1pAhps6+T8iRWghI8CuaYfk7KJ73IRrjYMsTML5fvKLYM6InYiWiSxkhogmqtoejjpSW0Scp6ZQXesRThjQ0STCR0TG5qYkyOXsNAdgif53lpRh/SBHiuhJeyb6CkAnn2MR8X25KvB9eUkObLOSBM11MSJ2PTSAMPMUeSnvOpKZN6S2cV6AMuiePRknBNdpNNwgHReBvVh1xU30zhditQd3rsk9ILJK3ReuoLknG1glZ+1jYCMtI2dfxONyvmjdeDa0pIs7quQz7tzBvSZIVtnu2AQ6IIJvQNvx3AD30KN2rLoIXyjQ4m3uGgeXQJ6WxMsngohVoEfHUYMhpCpihV/TwxoIeWbFhjCC1+J7tJJTkaZo+VAoPi2mtIjh4RUvQ8cu/9RlO67HfRMKTktava76FAP2j5IeqlFZybOI7qG2jyP7CA+sSKiVBLa2p6I/T6NymlHZXcT8MWZm1yD9kYUjOW0zpmGy9gvH0Sln1Nh9TQ45q2npG31IyJr0LyFpb27jLkVM1PXZrWQkZugvYkjaGEJhMlfMNz4Y/YEhAVFZbJqEwZsxGR+fn02dgk2oVYxaVTL0J6awtjj3rY/845RPsaJjfVDl14ieYa6eHRL++3lqoKiJlgjzZXdUOMTbq0YvJSjVod4iVa/UEzmX+sr/0BTn7ox+F++b/z9P5LcOQamL8JHofBsrkddVxTQqpzteROkrdBc6d8+BA7yDJSWbEGjh+TEDB2+y4kJKbZkIWaVEWWRgmmPXhrm6iz6tzkt3QY0RhfRuuGZex+5wRmjk0i25egWW7yfA9eLPNRXaxoK4d/SnLG/W1I1C1iJaFIsYjyRD5URFT5ihKaChxNRWew/PjvAic+hcYLf4FgLel1Jn6gAUAikvjISvnzI4xrSkjNLBoxz76oHLuHEjwwA+9ytHfTv5ziqdoVIk7RvtjNHAEkZpGiZ7JsTITZCrE8uwDvmI3ZN01g7CEfp2ZfxkpQQ9sTIdhAnSybQdFNm1M0Vp3ijfM6/NgIhYzEabkq6REj/cqH4J3+AqpZE7VXnoNn9b+mMV/wTNJTuNgpfx81+ajjmhJSJgv/GBO0ceOtJFqZj9VJl6LuLiM9EKDhR9QMHZU6SmCbpIjZPm2sjC8iuMvGxNcFSO5sojlVM35bOZww0x5m+kFmLJH2CML0i65pK62qb4/cGtJyyM+nGOXnJzRVS0kN83/52+w/aml91TgtmTV0TSaym9uYRKYZXJTxvLaEVKRA0bkSL6N0211oU6Jrovpy2FYT/sEJrKjCAwdZsAaraCfAYy/ZtNfD8QbmHp5G/JoQNp/UnGPkau4xJ14+5eGYW2XYpCTwwGA7y4W0TW0dmrxuE0m5DYva2aVQ1Nyjs3gKiE8YGiXOOMZuvM/Ux+kXMn3NX5qrGUltWUv5CyOMrSMkhaG+zAF9GIc9re2vSyF83l0uXwf3hhsQuvIhriSkR5MmKrVI2jIWS3X4EU0xnmbqv5gghyaldwa8tDtM8zlA3au7dSzvWcDcGycR7m2yndrGkDBrFmnqCUY7SpvxPWayn5+yLhOQRFSmT25Wsr3ZzpMz82YfztCfR0LTtdxsww1XzHZysDxUD76JurT3tEqsjB5D8pDn5pqwTMEaZz5ml57EyT/6OaStRfP8KGPrCMl+zUzXKUuE95IEk00L7akDuOG978XixCSvRh11pcmq92lvQme3B/dwCUvjdQ5Eyxwmpc4M3sHNs20FCRc2gVnqxNtUuaRHfBx64ACisbaZupDPZQpQkXwKvphoKA+RWK0gBansG+P/DQq+39yYf7pvoTxDrUziO7xAJ6Uf6Y8j9m5AY/wQKvd8K8KZW/la735QgM5cJz8royUkHavSIBPpKzj5Z++DdfozCDuafpRhui6/u7lQDU7tIS+TJ1AqFp9re7ux9/t/ACcfehM1Aw1Xi34KyZd33MWQz5LweaDSdBGeaKD6WQ4TagedqQGY0gfRQB12WCSgSmWIXKFH83DSQvVNfFxJ0cjqJlHCIVmuhU0gDdd68nrYZxKSZy975Rz2hS9RFlg45+zCir+P1ss8u+tKzay5ZfmXmn6R7yhTOKIrMvbFX0b9T/4Z7aYETZfvi0fbj9w6DSmIVGx4ma/t3Ycw8+M/hvkHHzSm1UyTBLuCiBcgKZ3wahtlDthDAZzXVDE/toyWRzOIRN0pi2clXNQKid1Go7qIsfsraFZqaFoko+b88tOuERJ40zWEFsVrQv/V9nHSvx6nnZuw4u4zQtG6JNPqYmR8PdfgdhqilNEfPvs4lj/266jwc9mr/PFFEsiWjWJ1lkxS7VaVlGZw6P/4IbSP3I80G6PjFOJstc371KAdU+liqBs1B2kCDBwMEe2fpZtCVO6doxmXD2IzQb4DIMEjIzH1Q8zdNY3lffP8ffzxFFayAGQ9rCd6uh5oRsWdbKMV8Cpl6ZCULcUCiFJCgYEl9lRvv1V5tdKOMsk9NOl7nsW5D/80xpKvUdhQWzoB3KzPPNsdjC0bxS6ddztOEbG/Sscewwu33CJdaYafTVtGA60793U59Iw8JFupdCm1hNGkLpI9MaqvD5DeFGPFq0t+0yxKTd4lvR1+p97Ib7n82CbQ9akeauKESB2Z8RmCdhnLpRXYxxw4BywEkTJkZMarqzpHD6G1FQjZrp4iMdY87ys5QBFdES1fDRLEipKnJGeTfaW0ujLN0hJ/lYNqgz1ttRCnY5huZ9SMP4zk3BfRSKkdM35m2kKxa8QWEpIy0mgyKymh8tjrORirhmhCnhGie6/eI/IhuyZb5NhocjQsjcVw7piC/8AcrCmF+UnL2OcneWjJcdnG6Go+7TKVSfPRpF+68RR2vXEC3s00z0vLndxT/WqJpG4LdVthi9FZj2r7ufCUNjfXxcsxMtJcV4aGM8HfZpsc12qyglLawLkxD5WkitkzH8XZj/8Qkr/6rDn3fA8potu5O8rYMkJSb5n+8ip7sXTsVgRNTV0MPrDENWWNKNd1gRqlfl0I9/UTaMxJQ1o0r5Sk3n9e5bWACGiEkYJRNMPtWctUf2vtqSHyRcROitw2gU3/UJwcn9DUxuqWRp7aKKpR+/E9dadKP3EZ7nP/HQsfei+yr3wYPn3iAldi6zQkx5Vtl7Dnm9+DljfFjs19pUERxBlKsYVSZMGnKWvZLZyeaSJ43RxaRyLUqV08M4cm3g9O/M2Efj/pSOVArVJexvi91Oz8LZpfDMISzdUy/Gj75HdqO7qEfqOtGjzW6sKunCp9LqNZ6/MmxVg8D/uP3oeFP/5HKK08TRN1N1pbN/KGClvWLBm12Zg7hZXX3Y1yO6C5qRUM5w2WNUPmaqQQupkm0eGgFDpolRaQ3WMhuX8SiweqpkCTBvl2hHxhE6ThAJ+9eQqNvVrxkENJ9aHbotm6ffa7yFIJPra4yQTQlfYWqDJfI2pGVQ8oPfcRxL/+vUie+iV4bQ8N9hNtGrjh9hSS1xpbRshxdubysaNIJm9D6JAwTtjxGwdD1+fUTV7TRZPNMqMCDmQP4fUc1A9nOPewj8VgBeWQZ5C4NV/BhcyUudBypIQDJ7V6RwY3G/WgySu2EM62kd0UwY5sXlfEa9Ji4Nyc1TpG7WasrdttHhQ5/B3SThrQlx4iQhfq2I3u3DQrGTO7OsdrYtulaYI2fXnFTVWQLF+SVaOJehizTfrCX3g/5j/0Y6if+QKa/BelEbtMy60i5DPRBS7HlhGSwwilO+9BO6bJ09FYWzGrVtplY/I1e3FuPOTgTzFNKe2m8jG1jEnDWBHCa1N2YrI9hdBvYuK2EkKPhDOm9ZVHCp9HCYkIoVt6ZEqwuPygR81bzehJMKmNN3bQ6zsUpU4pNOxSDMtxMU5N52QhWn4DDU9zjTO4qfZHOP0n/xIvfPJXEaQL8LKiDEu/2DJChsEEDj/4CGzPYwdqsGiwbT7CUgvNAzas18ygVm7DjqV9NIVCUmo5EwkJaaBrALdBH2sPBcLBkNpaOoPtIjXHQ75l9778NVPGX5FNklaJEFZ7nFJuzNx2D20NYDbH4T991kbPV2oqSWsgY6cNZ7wJFclqu83cV0wmMRmuIHjld/Dib/8T4Jnfg5+cMZcfbtkoG34ohPeT+d3NReW2+4HH3oa6WyERYkQ0W0WKraBl5JKAYw4qYyUsNs4ZTWml0pCO+X4RdF15nwMi5ID276Zemwt5LYGZXjREFKVIvAvBKF4/uaXECGU11VciRIuTCOseomaAiMTWETdpgic2HKWgmbeKkBvHBmVZyTWQfxv4HlZOk4d+hiC2sW9lEY1P/wKWP/XPkCzzBZJXelpzw7AU3NneEe/tgi2TXdW9B+nKe4i1mqGjIbfCZNWqefmbkd9C60CE0mO74e6hn+mJlsp80cJfE6XYctiHSKgJJWpXUG5PU0jpWbUJ20aTtuyeJKFGWppAvDxhSNg8OwGrtpu/iZYGB7pF09sym53yaO9BUp9EbUnvz6vAbSQUPEMWkJD0byt1jM96GKtPoHLiL/DiH38XVp78jyg1Lv5OCpUsgp8WJmu/UK9vvHfNgVXmQGlKwtMUcxIf/t9/L7wH3oam5yIt8YstLRdSJ28+KS+HX6Nf9tEVTC6OkwT5ukFtNLNRkADQzxKnuj9Ppp4fK6nawjJNZ/cIzcy9VwaTMqeFUiWF66eI6Z81OcDtpL9KcYmCU1SzFj/DLS2jMkG/2aE5LiKpq+0WO1u5v/193uUwK25kWVDbOWmEuDGOsV/5ZTzz0d8D2ufY7dTQKpRcaMOBsWkaMtd+GpkcKF4F43v28zEHi5Qj+ytPBeuM1q1G2YO/r4q2R1+I2nqjJ99TEwKWJUADjxaB1jhq4bBM45YXYvz6Kbi7eguALKYWrFWwsuCbWyuZ7rzSB0zQJYKKKkRtCp34ovWl/O68uwfvcrkasm5aNrWkRWKeexrPfPLD7M+aIaPBNerSnYLNISS1gHiniJwimfCm4MztNSTV+kVbhDQm2bVBS1HJw1W0Si1eEf0iIxw2DkYrkgAio0qOaB5Uq/ubXgTs9ZHtdtH0ey8zUoTUtBHNaKXU2crz7BOWoqyUdo78z7SM1grN1vO+MTtCv9Noy8FgBIy2sbNtU/7Rn38WaJzk72xt0kAaPWwuIfnpSm+zb7obrcoEn1Zlax5KJtc46wjVrYZFH6g+FSGa1OBKEFPabyTy2VGJnwyabGn7VCK7HPg3jiG4cRytQFMTvQWSZVFI2JrGUFS1zaPZeeXqMG2t76UAMCtjaCJr5X/ezOoRdffgvzWyKhQSCVw0aOY7ZuZXn65P1lpHU75TIeACA2OTBFuHkITHf0fuuo/mYWAGhnwoRyqEh/5dC0jrKAtm3837kflaBb/RQR39UuXUUjPKTZyuoHJkCtjnox60+dMzs4qjF+w0MD6jnVTz2zWsEcwzlhRIESl5DdS00v4SDAam3Qfv8pZdNj1bSmuGfG0SNLF83vfMoSCSWe9aYGBsEiEVwZSJxE4MXJx5+E54Ycn4a1oapYFqxRo4vQgpmaulPfmCZB3K9TRHd2ARke2aAEI+CESyC69dFVZAfwg4uydDbVeG6bZMLpqKlx3SUhcf+Xyg7G29nucHmbX7er3zWKUqRDhVPkhQQlh2Ub5pDO2S6n8rxqWorsPf1RVZl0IaW8uZEmrJ/Lb/Aa4W0BVpuZOOlO2bNNhGqUgjwaPspN7f2w+CbIla0keYzaIS6Tfz2hTAUQZONwtnDd1Q4EpsDiHZKcYw4m11dh8sX5XISCcJ6M7zq+vGPBykuEheEJhH95/xqWiWmSP/jNU/Z3UY84q/POQAciYqaPVQVrpWubkXH2ouFZKSGahaqbFNj43+lAIcGvCkpnmfri9fjRJjfKqESEWp8l++teB1hHX6ouplu2EEiontDAjTBITaQmUgVxMqBQbH5hCSH6sKOmYMju1BU6Fwy+hMA5lQRqP1FKcdQrLX7YhaVGkeSkTuHHpsRfnCWDvJzxV6KttVYMjFrzbGnEi1yijVs/nR+WcEgTJh8mbLt8XLzUPRUQEPJ1ElthB+FMIJa/Cc2GS0nL/QLQW1ZVxG3OQVG2HGp8w1Dwa5G/oheYEtTflreqN32xUYDJtGSCkdDYB0bFenvKNSudh9PDT+TZ/26Evj7yhuT7LZNGvdSEGg/HBiHfRBFaCMTTksnpt/yFoIqVNV27WqNZO1EJUe5T90bdJyOrTaSPmveUIDzVVqVi8OEcRtlMwRohw2ETRrcJbP8Zjn5y7Aqc3zPOWXyrTeeqgt5ac3lgNEtWleemAqxg2K3BzO28aLY9RffLlnHxYYHJtESA2D/MNjp0wtlE+AX0ya1fnDHibJMmk/EsaYqSSMDlVbkzmoKRNL0wlJakL8a4UZUHJ/FupoHz+Lsim7fSn0qecJqetpqywI30izT5rQbpN89SWSrga7vgKrtgS/tYLxpEWCt0jSJsb5ReFyDRmFyqv94k0DrRIlYCCaQnNxAmmowIu02jrAnyGi+3GC9okz5n6BjYNGyYa3KCmEpJxivOnC/kfvRXjH21BVrRhln3CE7326juDLiwiXFhHfPI32A/uxVM4HvK1UMJqlftwt8UjmmHuXQj6bTEatz0u8mIdI2u9PyeA2LEz/1tPwV0h6+oVK2r4Y8jMTjwJAS4rSmMJARquGnwzd/Ipy7aA/lxJaiQF6TYWd6gcnYd19GG1enzl1K8GLyMuEaD4yRlChoBhPEHmaSuHFmCwNHbxQCrqrQVk/5dCnz21hMjqHZ//O91NQzfOVrf5hOxdX74UBoKGrfm7CR9sv0Y9yUQ+UrQIcPGchefJlZGeXTV3kiS+cRemPnjMr5POo6aXEWA0KFubmJAlDbbqW4KHD86WF00TmpzJQSDNpvYsOZaWUqBVVWc0V8Wmqag7OUyCIh8XDbKVmBvWlEBmNSczf50YSQtdQjxizhK2qaYpWhESSZkDod3W3Sg/Y7lYi3+Ga/bIdiU0hpAElblwaw+wtd3BAO2ZyvNykmfOxv8LUuRhlDowxasPYDeCdCLHrIy9gqq7gjwbv1TtZRDJDi7eZ9o7kAOkX0nGWw7+uNAOfMJo1PzIRjdJEV6EpjLzKnb5Er+smvxVWG9opz0lJYn1SZWoCkT6389rWIyekfpdmheOIj83FrP2KTIFmNpna48zTz1DBKlWv82KBDcHmaEhKUWWJYW43lr3ADGypzNJSiMq8zD/PlN9QkKSp1TmZi/LzS4hOnhMfTdmNq0HzkwoSmYip45iB0i8UWU1IxtCRGUbq8Utjjiwdqa09KFRV20GD95s8lCaW2tT2fK7lurzN5/ry/S+u/GJdfz2wcGqcWmm6bB5fEx3ZiYqKfKZN2e5KWLf4+y8WLP1CWzfkBazoQzZbJKQ6ucBGYg3DuH+oqyVNJw4eRtPN97z3OADaJ+dpLmpPB9vs8aiVFrPNFGNhioVdAar7pvlmDvU+CCkiGj/PjDMSUhv49AnzXhKyOjdN7ZWSoCRMUDFHm9edOD6yUgXZxASscfqAQZnf5cEuj8Een4JbmeS7fA5IHj0IGdHMLe+bg3N0H5K5MWSxJtH7v74Nh6acaILTWwYvzXSQRaGyVqgf1XYSR76i4CbVocBGQqNk7aLyKrA5eKv0w6rf9YM4+Za/iVK6glJYgfvJlzH1pEricyCzMyM3xlhLe3wAJx+ZQ+s1k2bOzizx0cr3iEQh68w0HiWzhHNXsGvuUHVd4GckkFay5+/rB/rRqd3C9MtjaH18ERNJCZdv9CJPSUPuEug7FbnUgNaFyJzlOfJ8MzrE7VKMmdsPoDZD006+VpqSnCqFyPPNPiTSxvqe/NP1d/PBNrHEwjy6qoLMpRn6zp72laSGo1CRtu9rq3P5zLpmK4Lzq7+Bk7/3/wJ0QwpsHNYuJvtASn+F/QyMzfCPhrUGLIcgRaymKZQUoFSzIErRKKU4e8CDd3jWaDxNawgye+l8ItOhgkokjNag61ZH5qT5ni46TzdrGNwxr0NX5bolfg7N0wEkfffbFFFV0S4VekpbLl5+8iQWPvEKFj7+IpaeOE3TzjPCxWzBxkNaJfdN+xMe6wcFAE1rLSyWySoBYneFT3dSuEdgqheMe0Do+utnFwzHN2UAjTA2qT0zNGn2WVNaA8mhT4K2+U2pR2pyACgEr5L/kZdgaZ+H4I03oTau95FWhpDSJDkJM48EpBZMVUCJR+QkSHhrNCNV5wWN1f9P0ThUxk1tXsV6+cDt0mst4NCmqStBk5vP0pQVVOIqZmpj2FUfp79so/HsAiotJdbnBl7E80TgZkeQbC70HSKbfFj6xmaaSCzSahK9vnah0G0pma9b8hNGDJtCSEtkovZpBVOiltGIbQ5C+YgJNZ4UhurcnJvigL73AE5NhCRJbLJhcnLpQ0TIPNFadUtTlwcJbJGIGe8bM5WvyzQ037mGwaHr8XgRNqWER2KmxrEaDKYuEIVBbsrlv1VaU6shVBoR8xGWv3QKzvMxnOMpyksOSvze0gA+3HqQZiShU0epSl+SbZoHdUQvHf1pSJ2pd0kAuRVaF8bSKLCR2CRC8k9QRTC32xDSdKSimdUAaUkrHWC2kZt74Ba09leMBnQ5QJS/mnd73vF55yvowvu6UqONlIKXH8asHWBImDnM2MLK6UV+r0Idg8Pk3JpoJq9EvhrN0pbHg/6xrlEb0PgrgPdsE87TK6g/eRy1p15G6VwTCPkbaLZbykriNenndFvg4qN/dNvj4naRtcHrcujT0wrxSoqM0oc0gbO1fbp+q96hT95/9AY2ogRRgY1Et303FuzroHIjol/4L6iGilpGoHxGmY5l+PHnMTffRvLgPszv772F+WZDymGs5qD1sWWMrZTN9al84lZDQiYWWQKSRk2hS6iU0W5rL39aFJUKHE2zONrn4+oolXxEkSb/aUnw/Z5Pt2GO7585A99K4JOEocOekE85ADxK0jaFjRIjSn/+WZz42Z9CKClSsHLDsCmEpCLDzGPfhJXv+acmKyaktrD5L1Too+5iNwf/fKXF520zt7XV0AJp+1Qb2afamGxUoW26tc32VkMDXM0vP1hRTqUBRjb9TfaI8ff4z5iWCjP3AdvK/UTTrXofLebSPQ6sG5s0VzXB40ClRAatsqd2kwshE9f6zF/i7M/8NH1nPi4IuWHQiNhwaA5y4egBeJE6MF8U68c0S/laNJ7h1LgKA8vfys/fakiol4OSme80Vu81Quho81laEGbXYbZO6lFAtWlGt0FdRz6F1GwRgpSmbx+HF/OW3A0oBAPy0qM5rAR6V1FvEoeeLY/BBWDCxlIyhxIp9t9+O3151VvtvFhgQ7AphLS1Y/ydN8Kn9jOLWElIFSZWGUQRUy6Xw8HX9b22Gppe0TxmN7HgGihpA+3ZoQoKElraFVqZQ2bb78sOzWP2dZiKABcOtb0SGBQBVmaUWbCWaa5oMCgbSlMesrWbSsYwIrbARoJNvPGQ0VTdd4ADQfeIhLLe0cDSIlmNfk2c66uvDRMUmc08mq2TDq9LmoPQcxz8KsRlolK6tO5x4WZD4Uur8VB1OlkLitCqPuyVR6m/g0LPVKvjYcxSEicrq7oBfxfb3MxBDmiuCoqpSsOqD0XwTRo+I41NaVFV4J4Jq1jxaXbFHqZXJhG5eXRP2kjrC3Vf3XstIOK1qzFK91XRuj5C09VGNRxqphSHBIdq2VyZp7nRpIypYVTDTdV4jNnAQxlHlx/5qpKrH6b+DgWLAjp6HyoJxo6QhDI1+U0qEynzdVBIcMjMLkeqZ6ShM/hnFeiNTSFkMDOLRpjRWFJhJU3mXyvq9YZIp1zahWoI9+5p2A9No7WL2hI1+l7y4Whikxx5XVUNZl690aDb6Vf0hikcxsvUHG15NkBUaiO02sZ8lZCJewiaAtsHG0pISWbBJyFDvwqb/qKktkzXjdYu60FZMw0U7vrx7VIL0T6arY959HsttCrUllEAPyyTuCmtPpndIqhutzch8xKQ1IOaC602MHvnFGIvpEnC30oH0HB1g4RK/inbX0ANGzZFQ2qVRM0LjM8iU0oaRouJtwtikkx6r+tniXg1+pLRzVWkj0wjOubgzPgCGp52MVbgRwOP79jm40/RbV1iy2ugdLOD+amT5rcp6d5NfONb5lP7BbYrNoaQ1IwOO1qJ4DJTsWsfx3kukXPJrLmq7TMQFM005RtN5g+vN/PoF1VJPgvLcyGat0eYeGwa2REX8UES9oCHcIb+k5+n62n3ZeXUhm6CmL/ZRGl5KPc2pK+s1zTF4PE3e4nmWrWaQueRLjwskoSfau5fcfRCj/OkuUUuBXI00S/hp9UzyQyv/dYKpo5MoK2cVZJUFefMLftiLTm/l0NbCCjLKa8asMq1FlgXNJTW37LsqBJHZauSYKJRQvT3/iGyN7/7PAf1BbqvsTQ86Ay6zKV2DxCENrxahtrxBdrkDiZmZwCXzG6nOPP8KcS1Bg4cPQh7zsXis0tovbSISlO1ZD0TXXZktptKeZ3AkYSYMYMvQ68sGgVoLkNOxrwWUNtp0TSNsffBaWB3glpp0ZyhlTOaO9wotFwbE6FcEAvlrIFn//bfgRUuFdTcQGwMIR0bfmIhLCXwWjMo/ciPIrrjoaEmpK63e92C9EqWJtRrfJbPdRdESzO52maOAklJ76HdQrU9Bmc5RbrchmvK7FOznKVmfnER4w1NO5TQdD1q0B77dvRJSJmgba+FlfISKjcEmDkyg+b4EjV0C4kyo2Smaq5XCe4bBFkWImRIAROgiRe+nYRsLRaE3ECs22Q1w1IDVCYYB2XkVzB50y3mtWGG5tp88qAUa3W8imFxkFMzaK8Sl1rPj12zYkTlJGV+8iUOfmpRaq1G0EJtLkJ42EHz+gztgwlax6qwXzuHpd0xWkGDGrPBb8mnKPpHZ+hnGRrVFdiHEhx8bC+qx0pYmZ6nGaskfQ9BVOZRMlNOGwn9TlObltpeiRWThw8XZNxgbAwh+dd0DKV7sP96LPsbOxCuBeQnKftFhqvZSUoZLsp3Nf4YTVATKMk1o9So2dKOz7uxny9I5n3N1SkglH8WtdfeCO4jc/Af3YX4VvqvKV9LOcj7JGW+QoMfzcM9lmD83gCt6Rp9x5a5Bn2KNKP5fsL4rBsIk7ggwUto96vpPXvN/QIbB/XhunrNfAD73+QcuyVMf+t3Y/Fbv4WDQhu+5Cds7LDYGuRBGA1wEVLBHx36JaJojrzxNCmvRyJqLpq60w/6DL2k551UWwoo6UDBFcekFU48TX/7i6cRtAO06Y+W6GPmE+6XQ9eigIzWkrYwfngKrdcv8LO6U0q5v6jH3WvrTm+sJzPncug7SpGDmuciSJbh/9//Hi9/7A94dcPYw9sT+ZhaB8wHcAyZwWj7uOWHfgrHb38dYgy2bfYowYqq8D5+CsFiCfPkzVikzJwrAz0iQkRfVHk9YbCCfQ8fhj3zSufVC1Bu7mYi9OoULDYanoPxeAlL//4XcfZPP8JXCkJuFNZNSIUgjCHjpGaXJffwnWgH05SkRUbI1dCqkmTHU7imGrjMX2lbmRqXwlPATBuk0ryF10ayWyZzrfPqBWw2LZSIrwXXWrdjOxFKL72EpcUzBR03EOsmpAwsU16QJp2lJT6y3yzS1LlyYBW4FGoin62vTuiKr16dobXLTZ6kcyUA6/zTa8Zks5mh6yQVjR+puK8eq5c3+WtHCmrT9bUnP0EFo8ySK7thTFc/k3m1cb7LTkWdjafqeaZ+h0a42CbH9QqwUdWccT65b6ZcVK19qyHpqwrY9FUNE3WpkiQFIzcMG0JIRTVsjiYVajz/ibot8Kpw2U5xp520zrCX0hN0CnloeCvOKnTTMyd1fT15VdCoNteoCgdmXSRxDcTCjkaXPgUKFLjmAP5/Zq59e2zzfBcAAAAASUVORK5CYII=;strokeWidth=2;" parent="1" vertex="1">
                    <mxGeometry x="-139.86" y="290" width="87.97" height="120" as="geometry"/>
                </mxCell>
                <mxCell id="15" value="" style="shape=image;verticalLabelPosition=bottom;labelBackgroundColor=default;verticalAlign=top;aspect=fixed;imageAspect=0;image=data:image/png,iVBORw0KGgoAAAANSUhEUgAAAMoAAAEUCAYAAABqJqlDAAAAAXNSR0IArs4c6QAAAARnQU1BAACxjwv8YQUAAAAJcEhZcwAAED0AABA9AUORddcAAGdRSURBVHhe7b3Zs2XHdeaXVXe+VbdQAyYCJACSIimxJaqlliiGRLm7n7pfbIeHaDvCQYf+ANvhFz8owg/yg/1gP3Q4wg+OsB1uq9s9qG2xJWqgIImk2CRIcQJFEgOJgUChCjVPt+48VPn7fV/mPueConQkU6iDurnOzZPTypWZe30rp73Pvkd+53d+5+4v/dIvlU6dOv1wOvL000/f/fjHP16jnTp1+vPoaPU7der0F1A3lE6dJqBuKJ06TUDdUDp1moC6oXTqNAF1Q+nUaQLqhtKp0wTUDaVTpwmoG0qnThNQN5ROnSagbiidOk1A3VA6dZqAuqF06jQBdUPp1GkC6obSqdME1A2lU6cJqBtKp04TUDeUTp0moG4onTpNQN1QOnWagLqhdOo0AXVD6dRpAuqG0qnTBNQNpVOnCagbSqdOE1A3lE6dJqBuKJ06TUDdUDp1moC6oXTqNAF1Q+nUaQLqhtKp0wTUDaVTpwmoG0qnThNQN5ROnSagbiidOk1A3VA6dZqAuqF06jQBdUPp1GkC6obSqdME1A2lU6cJqBtKp04TUDeUTp0moG4onTpNQN1QOnWagLqhdOo0AXVD6dRpAuqG0qnTBNQNpVOnCagbSqdOE1A3lE6dJqBuKO9oult96G65e/eO3Hhapx8VHXn66afvfvzjH6/RTu8UwiD293fL6vqtcu365XLl2oWytnG7LC0slyff/WPlkQcfK/PzC+XIkT4W/iioG8o7kDR3lK2tzXLhyhvl+ZeelX+uXL76ZllbXy2LMpSnHv9AefLx95f3P/nj5aEzj5aF+SUZzJFautNfh7qhvIMIA7l7527Z2d0ub14+W/70m58rX/rGZ8rGznrZv7PPNJOl151SHjh2qnz0Z/5u+ZkPf6w8+dj7y7FjK5LQjeWvS4d0XmYdP11reQD+l7m9vb2ysbFezl14rXzjuWfKl7/52bKxvSbjkWVUHvp198idcmPtWnn6858sv/8nv1m++9rzLuvsTn8tOmQzSgOTOu6lSEbYI6Tfw9H2jjbhm5sbZX193e2am5srs7OzZWZmxvmAfGtrW/uQi+WlV18sL5/9djl/9ZVye/NmuSMjoQz9Qg4zDvH9faWr7MLcUvnJD/2d8g/+nf+gPHjy0fLAyinJnrPcTpPToTGUjMi7XrZAiwtL5ejM7D1fjGzIQN68cK4898Jz5eVXXyrzMpITKyvlxIkHyvLysjiOyIDWyuXLl8r5S2fLzbVLZefu7XJ3dlfGPTrlwsupFy6G48FA6ceXT5T3PPq+8q6Hniw//eGPljMnH5LBnC7HtRzLgNHpL6P73lAAzM7ujsB2u9y8db3cXL1RZjRav+exJ8rK8ZNl7h6NrswSl65cKi+//L3yla//afmzbz9bLl68UGY1i2Agx44tl4XFbMJ3dra9US+zO2Vu+U5ZODZT5hfmypGjGASGkX7aaPCxDg8BMRitxSR3riwvrpT3vOt95ZHTj5cfe+rD5QPv+4ly8sTpe3YN3kl03xoKAGGDe1sAu3rtcrl4+Xx58+Ib5er1y2VhYbH87Ec+Wt73xAfLCRnL0aNv31aNdrHMOnf+XPnyV79UvvHs18o3/+wbmlXOa7m0J2gfUXuOeNl1VG5m5miZnTtalo7Pl4cfP1lWTi2UuYVZ5anN2AKG0QxF0SNEHDqaNII1ZXdnV4Y3U1aWTspQfqL89E/8XHn/Ez9ezpx+REa0rLo0w/YZ5s+lmU984hO/9sQTT9To/UEAZE+gW719q3zv1efLt1/4RvnOi98o333lO+X186+UK9cvaokz7/X68WMn3tYRFSNhifXpP/z98qnf+WR59ptfL9euXSt39jm1qtjXh73HXRn60ZkjNpIzj6zISJZlJEc9kwBoTRSig8A+qvQYfp1NbCLhIU7+9s5GubV6vVy/cUVLv3UyvG/xvkhlYywH5R52ui8N5Y4AxhLrOzKQL371c+W5732znL98tqxt3Cq7+9tla3vDe5XlpePl9AMP2ljejhtztOv5F58rv/Xbv1k++Vv/Tzn/5tmyu7unHPYT4SHAjIJbWJorD5w+JiM5UU4+dLzML2pzXzHc2mtjUBxzgAD5UeXZRmocBjb6NiDKSvb+HQ0k6zfLBc20Fy+/qaXpqgaMec0sx8qcBpGD16NJb4TMw0X3naEARpZXf/bC18ozX/tseePia2V967ZmmB2BZT+A0fKDjT36Z6N75vTDnmH+Jolj3a989cvlU7/7W+XzX/hsuXr1Stlnf3GH5ZEawgbcmM5sMbcwU06cOlZOPXyiPHBmWUbCnoTRPjyAFS9lqaGBN74NRUEAbxbVlfKRTx5178lQ1zdXy/WbV8t17eE4XKDMkpZiGBZLQVdnIjBEDhXdV4YCaFbXbnq59bVvfbF8/9xLZXNrTaPnrvL2DRYUDVAwmm1tkgHZsaWV8uDph4Yly4+SdmWQV65cLp/5kz8qn37698rXtHG/cPFNb9DvYCRyowE7bWM2WT6+6FkEI1k8phGe5ZbBr/bxZ5fllZPrpxmNTJCAwyQOsRQ0H2VZ4jG4bO9tlvWNVc3E18va+m0vwRYXeASG8imXcOKHje4rQ0HpF6+cL9/57rPlO1pura3fEmBkIIaJnHTMGt0gUQ6nYVtbWwbr6ZNZgv2oNvaAkFnkpVe+V377U58sf/yZPyzf+vazPubd2dlxGzAUGjXgTwHax5Lr5IPHyym5YycWvZknz9www1spxjGWADE7hduO8B2mFWJjSyrPZm4DzdH12Nsua5pdVm/f0Myy5qNqNvhcE5ZzM0dnUv8hpPvKUNiYvvz6izaUcxdfz2Md0qt1qy9AQnBGYZZg5G9ubdhYjmkJ9vi73lPX5///wMDMdUVLK458P/0Hv1v+1b/+5+X1s6+V1dVVHwsD5FYHvmcLwKiN+9w8S66lcubRbN7Zl8A6tIlwPNAtCvADd6Ur4JunNgyYmXWaUWozXweCJsOGokDS73hJurm17pmFgYf7TQvzi74Jyh7mRzWQvNPond9rIQNgcrR6+drF8t1Xni+vn/++T72MBFi0J2FfQgIj68z8LImCzV2PotduXS7fP/tyuXHzevYuf01qS5mr166Wz3z+j8r/+r/9L+Wf/rN/Um6v3irbW9vaD2iPtE97xaz6j87KcGdkIBqpZ2dnyuLSfDl+cqmcridc84sc10YuDmoAZybBeOgDfWo85oKXQC3jAvkashBMeY6ZOe3CABhIsAOWpesbt8v3vq9ree6VcuPWVS9TPfAcUnrHGspdDES6Z0Dc3d0tFy+dL1/75jPlxZe/7aWDb8SJ70hdLrB0AJDcm9jd4yYdI232Azt7W+Wl114oL3//JW9m/zqEgWxubdrY/qd//D+Uf/w//4/l2W983em7NhCgGjCqUdU4ZjVSz/oG6NzCfDm2slQeetcD5dRDK2UBI0E7BnQ25DaOVGe0uw+STyYziWcT78NiMM2AYhlStuS4PGmQZOPg8+MvtSy3aGDc1PLr4tXzNpTdXfZU3VDeccSSYVvAvHz1gpZaXy+/9Yf/snzp2c9ZsXv7uwFJBZG1PpDW2txY09DpUVSOPcOFC2+O9g9/BdrVPgfjeO6Fb5V//q9+vfw3v/pflc997o/L9avXfINv30YZ5NEcN+kOgNdIPjOnZc1CWV5eLCdOHNOeZKWcOL3sPQrtouksmfZVCCAHzOkSA8RbDwPwkpcE7IBrgLHaJuivAjGYXBPSQ0phCYhR1jxO5djn8VQAhhLzg4ZCh4am2FB+uDJYHnG3/dsvPls+98VPlz/4k0+Vbz7/tXLp2pt5lqtqP+v6hFFxQAIYaljAIX9/f79sb2/6/grhSYkbmi9+74Xye5/+7fJ//vr/Xv7fT/7r8uWvfKlcvaoReEezCAbRln0yFgbsI/IxkLmZ+bKg/dDS0kI5rpnkARnIidNLZXE5J1ymhny5LK1iIEnKLOABoX5SIN8tZRgwiLkgHCNiVo6BcE10PXx9uE7kso/bk2PgqQ9fWsBbhBwCesfMKACDfQiPpJw9/1r5qpZZf/LM0+WLX/1M+daL3/Dms+1LYgRROEr18mOMiBsHpuTDsSVjwdD+srU4I/TttdXyzW99o3z66d8p/+ZTv1n+6DNPl++++ELZXNfIKwOZOarZYm6pHF9aKceWj/s+jZd/MppZzWjcCZ+fn8++5IHFcvzUQlk6Pldm5hjRaSMtIxCXvri1Bn9zrSOV7SDRL1yNNhr6rgBiLfqtckhUWR6h8Uwkx6nXYaUpNpSotxkIp1NXrl0q33vlORnHZ8vnnvl0+cZ3/rRcuMI9iU0rmhkim1IXNYGl+AAmEYA+StcXA6kwcO3GFS+jdrbzhPFbCRksza7fuFa+8/y3yu/LSD79h79bvvPct8r62rrkarbbvcuiqiwvHi8nHzhdTp2Ue+BUWVxc9F4ko3dG8Nn5GT/geOwBzSwr82V2QQ1R/gBufTHiw9zK0GDnyzG+24CcUWngHStjP8uuFm+G4fIQdfGRTz+YuWCaYfaTkfOYT3vs/yDV8vc5Tf2Msre3V25pifPq2ZfKM1/7XPn05z5ZPvPM75U3Lr5a7hzZ9T0GdD0zkwcJ2zq8EYAaqAUBRQOby2q0nC3lpVdeKK+9/qqWVKsHy4mIb29vaS9zvjzz5X9b/sVv/NPyxWc+Xy5evOjTLGYRrVLKnd07NhRmkRMnTmhTvuj2sJfwhtuyZKhHxDdXyqJmkcUVzS7evEsd8Lj91E9D5SnqZVFNs4HgxMfMCfEdlz41QmYGjxgOhyBuiDjzIa9es1hlnML8DIGfES8tHNPsSD90fZ0/Tsi6/2mqDWVLwHz5te+Vz37hD8pvf/o3ZCC/X1567Xk/1CeomQcQzGkJw2jdllsB0AggjQbwy7uzzyY3I6h5NVheuHRee47ny8VLb3qT3ohyN1dvli/+6RfKP/m//4/yz/7F/1W++MUvaC9yTbPdHS9JuDdzdx8Az5h/c3OzXL92vVy6eKlcuXKlbGyozTIQjmPnZNzzCzNlWQbCTDK3JCORoUNqMTWq3fKqi6eG6i9ArX2EkzQleTbwp5KMIdeC/slJvsM2OGRAkooAG0hNdx1qhfqEkRxbXinHjz1QFhaWnXdYaWpvOAIq3i7yjW99yUssnvrlmS02l8ABwI2PlA6PxUeUMIB4qzNfw43it2+sl9u31gXybd83WNtYK5cuXdBy77vl337xs+WPP/d0+frXv1LOnTtn4FPn7ByPwsdI9jSbSIzdHgcEWqZtb23Z6DhBmpmd0b5ktiwemyvHT86X048cK8snFrwvSZNBadpGAmluI2F9nD5GLmLgO1AdxuoixnWTgU8CbYYj7eRL6WSNheGf02zC0vHJd7+/PPWeD5Qzpx7WgCCDtqDDR1P7exROn155/cXye3/0m9qsP1vWNm8PgNI2Vr7C4gNA/mM2wVCciuKjfHy+MnsAZIX5mSzlhTHk4XjM/cbl22Vrdb+cPPFQefyx95QzZ85YFhv3N954vbx5/ly5deuWZc3OaUNuIzlqeVsbu2Vjdbvs71EhwEy7OHFSzeZfWNBeZFmbd23cTz68VE4/qk0+R8HMJm5veGlj64dl1bDvY8DnWOrxdEFM0XAlF7IcJQ7Hvopz/wYx9KFuREy5VpGJQfDaoycef2/5+Y/8UvnJD/5MeejMY30zP21ksOjDBv7W2s2ytbvppUPbTHqEbL4NBDTINb23dNJEAQFHnTyisTecFg0y5Bhpj61owz1/V0uvN8pXv/al8od/9Gm7L3zh8+Wl731XRrIq3qPadyz4tIrHTWZmM7N5RlMbvcTxLJU6MWoaNqfZZGFBS61jnHItlJVTi2WuPp4yanf130LtekigY61A9huJHSiqSO36iFLEe6VcjyFpjCjE9dDMN7dQThw/VR489YgfGvUzcoeYptJQ0CCjp5/D2tmSUvc9cjddAVaa7llBiR4Jtc4eRsWKAqlcfAEZJ137MhJmKoMaYWPKZzZaPLaoUf5EOXFmqRyZ3Sub27fLhmayDS3BOHqe07Lp+InlcvL0Mc8MHCTMyCBzGDCT56EWZv0zXXiZcbxElJtVHMPiCPiYDIXlF23ITcQAlza7TW4XrU/7nM9RVOOBzFITap/h832T6uCJFF0bfexXQ3G52n8PFHx0PZk1eGJgafFYObly2j8VXlhYgsu8h5Wmc0YReLZlIJeuXvCyZ1fgZjbgR05ZgVegAwilk4LyGygGo2FUr3l2lJZBzM0HpAOvfP/0VnkLxxbKw0+cKR/420+Wn/yF95ef+uj7y2NPPlQefux0efSJ0+VdT50uZ96VH1KtPLAs4C+UheW5srjI0grH/REZSzWM5mxI2sAvaOPOcuuowDi0y4520h5BsmLYLSbDfbBHc0PyGeV9173Gj6hgTEIfx5nhMqDAkIFFLiUsFLm2Qa6H+s8jPnOaTZaXj5eHTj/sH3L5qeEU8PdhpKk0FJS/rlH83IXXy/bulgEcIMlpP2DjQHNy8Pq+CEokUY6w71obAQESDjk8fMgMBWsARTl+OrzvkzROsbjhqNK+Okfmj5bTj58oZ97zQHngkeNl6aQMY0WzgpZOJx9d0V7juGaILKOOihdjmJWPG4yEvczcERnhXFk4nvslbl9DvyjGkr6B8uypaiYGwFJSIAa0Br8+PGBJqC3Bwqs/X4PQIAJ+y1YZ8cwyE7blqdKozw9sikU1eI/yyMOPDS+48AUbKjl8NJ2GIsVx6nRj9ZpmkxzT2hgMpiyjrFihQHodwNCMw6MwTjnRcUZWZg1G9kaS5m/yvc+BKj8f/uDhngdA99O+jLryuVk4xyyiGYiTq2UZy5IMgSUWhsGyazSjaFkn3mUZycLyrMrHmGlca3v2NDiFm4Nqs7xHwKl+EuFjwTS0dYzc38pjec7GELg2REmoZWowtqZymnEW2J+saGA4ccpPFCDvsNNUGgojK78M9LJrD0NhSSFF6ivLKYwkoGr7FQMLZ89arwQKBIG6rPB9hMo3AMbs8MFa+XGS24zTmSLLdjh8gJ6lFLMKj8aztPLeRenkcVKHsfCCCG4segOvJlBNI8ukniFGKLFQ6kpOcvmiT/SddppHrvUpPjSSk37U8pD7iRcfYsZaWtJscuZRL7t4Li2yDzdxhaeOUOje7o7fWLK/l+eu2ikWy6dGjtc1tz/Wes10ICO2oUGW8sGK8UIu/AozO1UWuUGAiTzAM3o7SeSxTGNjzCzG4y/sU46f1KzCDUQtvzASn9Rp9uFpYGYdll7MTMgZ2os8G0ltAJSGjAVbRuUzL+XrjGJ5lUjzRqalqQTy5aiOAWaYdUXMVO1BUcfVz+WlY+XRh7TsmltUnJO5kSEeVppKQ0GZO5pJOGkKMEINFGgVhbYjSyu+AaKtx+TG4DOABeB46cZ+ANmVJXnIRjyJ1agkj7oYvVN/8uHPUs9SvLSb88yy5F8lMqNwIxKj4ee8SzIUlmsW0MjNGRkv7U3dZFRyuluTSG3n6KHPRm4YEob2QXi+PlwPAH9HedyO8ZoV3jFjk0wMY3FB+68Hzmg20bILuePtOaQ0dYaCgvm/H7zgII+8N4UHkPgGgj8h4oCBjXj2LtmQu3wFTKiVxVC0YSdPf4AhYFHUoMqI67pqOZaDoYBweBxf5bmBt696uY+ysKwl1jHusfBjrFnfmzn54HGl8YhN+F2t5XPQUD+uP4467MQHEYOfgrSeDKIcoaddYYwcQonXIjYKz5p+vIafFai9PJfG5ak/BfBM5PJs8mfL/OyCjXFElI/cw0hTaCh56cNNbeT9uDsAlIICIBSL5gnAG2NxXourPL65Bz23dE7LIitLthBx5DjskbqOsk5BFsZBU6oRyfFGRi5eli1x+vJmniNj9iTLKwtl5eSSll2L3uB7T4FQtzW+AxY+CprG/LYfSzlak7oiLG2DuBq5Bq0w/LjEWx6uDSwsbRVUZmRpnrah8DOA9uvQTlM6o/AqnyvXL/kGoVUMENvoRri6RoT9+tGx5REYagCBABcf0rxsq7zmM8CEFpdVeq2L0vB45lGMkyEnyrXyPiSwcWF8PInM5l5GcmJJSy7usyx6ycXSjD1LTq8kgy+FEVcTTAFyjSgZ/CbNrVTiqITrr2WbMcXFeDxcmD3tq6Xc3vaQpJeOPg3LgMCvP7kr396+0ik0dVcChfMDqmvXLmvE0/qggsP6rt8NHFALjTakAAaUVEeKfWYS8eurLSlaWe81xBPu8DfXNrJDnZaFoWgZ4zTqldHUD7I55eK9XMtads1q+aVk/uzy1fykWqLjtQ21DicqeNAIRo48t9OzbG0zyTUvwhqN2scRuR2Gy7Vw3ZGFgfBuZt+A9QVL3mGn6TMULbe4K88rUfNLQ5QPCOqoZ+xk6UDIo6qcQYJjhKzhVhby9xivN7hOhTeyufvPXoM8jAeQYBDMBoQtlxJ80RAnJj2kuNLhn+UxloV5h12u1hEZFKrlfNxdZeIn1w7CGMmDlxqJDH3k0+IYy1Ay6eHXXy6V+95O4rjxirFwOscMiiz6zOM4i4tLPumLaVnKoaepMxQUzL2Tja0NhdFwlEW64GulepBXOMslAYK0agSMkGCYURjgGzBOT1eBkRkqigi2fQaPyrMMUSEyndZOuxo4XYDCWt5kHhG1PBFvXDEPLE7JUwW+2QeYSbQjTDk85ZHoMG2pbU2Sl193MCilA//BMMxPSXMRsUd7U39y3A9/an91jbgrT7/pg2cO16tl4zy/419yv5HRKTRFhtK0woiOsbDsUirAZ4nAcauUx0gYAKNYmo8R5Y0hhhtiyGfk1PJBoYCnyve/PpBvwxGfgQRo5GaZCeTY6McIYiRmgg+5VQ6nXmyG9+S8zpfzqZsNAsPIyRgGy2nTnf0j/iUkPLTGpKxxwDObYXTEmTB9UqU/3xe5gwuf+8nsx5PQ1OEZUGmw2xejmz0yDJxnSXgsBwNR/3Qd0nfNMEfkijbyR+dq/2s7O02ToUiDJhQYxbZTFz6GrsK+ASkw5KZaJQUBe9MrymetnV89plwABHB4k3sesiTseixfcHY84KE1LAO5l2MDqOVtHGoDrhmGl3EA2mVk5NUgMAIbzB7lc4Ts56nk4LMhuJTqkyHwWxb/nLgaCbL3eSeY0rn3gY/BxQhpTwYJGwq8OMLVQfQnfVLf1D/9iahX5euHdtEf6mSpycsv8pOGekE7TZOhhALeGb/MICAP0PmACn7haD4Ub2OiTEZO81VgeDkhAhLWd81ve4aDFMDYGIYP1TVA6Vu4A5zMEnsAH1cBaYAywxj8GAiGkzqy3En7EER6lk4xCAwEwCecEi2c+g463yzEaBSGD8c0aqOhHOnwqY6h47AQ9WBSB46WJtf60eIQOqhFO4mm0lAYzdprPpuxoLToEGOIA33W7ZiCbVCiABLlVwCMkQ2GABk1E36WJm1f05ylOVx5xkDY0gL8ET/NVbPVDzk/ypI49TZQ2wfYyGg+pSk8lkZVuMhPnbwvDANpxhIjiTyn1/ZQ0G2W07fbTBP4ku06LxeQnBEYuIYsxUjrFGrXZqoI4+CGl/cYAg64auk+trTxZM3NSB6AonyAFJC0kd0oABCE5MPfRkvgkxxzxVEexGVDYH6WYACMOvxXHcTMxUkRe5u5WR6zH/sdCo/c82zXUbUPQ6lXu5qTm2VQu33ia0JFTkuy0x0c8tPftHVkHBwS2ni0RGMZ5yUfb6rEaJp8i2j9jlwbITLVQPaBnHix/Oo0oqkzFJTFsmvl2EqZm5kzIPj4hmJ1ECAxSKVYllPje5QASEARgsAIhuZRV3k2MKXjGzhKBGRBTMNR4uapZVjmqSrVR5wyvH3lbpmXYSwfm/ed+KXlWbuFRV4iwfFr2tXKUzDAZpSnCn3JuU5CMlAvg7SUa8TIb79yNYgTdT8BeeukEr3XkcGwTGOJ2PZKFGvXxc5yCPtbPnu3XC8GEr92tll2p+lcevHvBfgnpBgFijRMAJlCBpmcQVyNA8UzuzT1h8gDmAED+TmRUgQmPMti0V/H+GGvkxkr9xw0M/i3JTwFPOtXnvK7EhvHMX47337+q1FYPNzEQ4YFiqjb0iWT+tjH0KYkcfnD6CIuqLbSD9popqSlb7UscbefkEsScF7rb0YH6pQ8Zhr7kkw558fP0pQE3hxDWMsuXf9uJAdp+gxFH5ZdKysnxsCBouUbZCg3xuK4AND2FSGl1Y+NCaApD5tiicQQHQyQzylPDCJOQJdh8HsSL53kJ8xSMI60LKuS1x6n5zjawJc8flYL2Pdpp5o1GADLomasorSZDjW4h68mxRHWV/pMP4lX7tq/H+qqVJfRdfKsitCaDrU4HkbDTLK0dEzlu6GM0/RdDemPmYR/YBNQ+KsaibXq9MwsRPRXgQc42tHy8NIHDAH8Csis2vz4ewU392T8yqFqEAecjMJvWLEB4SRfcnAS6TRjyZir7eJL9TtMe2UYJBqwAmmbDdlc29DpF86fELyDtJZfeemvvBGvjeEtRFpLxLdRUa5KjdjqyGsuxDXjP211OkhTZyhWmzTNyGZwyFnJ6BlX9ZqoPjUeI1GHbBjVSAA4cfvJa+/iGhlF9hJHFc7jHJJl3vhqgevh2462UCVoHAdlTRfLyJcD9u2oOkR/YJdvoyHs5DgRdtdMwEZiJsXxqtFYBvkOx0FDc+qXcg7yVnnDdR1o1MYcZozndRIUppME7ShyTJkEfaMRoxDowR/wPcJ7fCuwvbQiPWhTD7PEMvhZPnEg0GaLOrNgOIEJdXGKtq9lU+540wbvf2pTvH9RZWx4szxxI5znH0UZiMhqhPE12Deq4KUMTrleGlUjsEj56X94wq802B1J21jmtTyIttkhs7LaKCTfp4LyD9woHdoa2dxg3d7dGeR1Ck2doaAejmQ3N9d9tImmURpgTS4vwSYsA1FcGPcbRQi342AMBUMi7KNkHIljoEISIj26ygEe33GXz4mRT5+0C26/1xjHjWpIeZy+VNyb9CZjMBbqwUle0hI32a9tqvLSDtqgOilTWdwhEVH30en0hYD6qrCNtvKlUMj1U68+yM3N0bGnC9jpi2zK4iW+y9MIIwvqJJo+Q5GyeDn3xSsXrDQDHGSgOM0cnhmUponAYbIzugccAEIQr6MoDoNqIhR3ukC5B3DyrFYe38AwMBAMVYDZww94M/rWci0uhxE18A0b9eoH8OFDdnjIH7WDNicd41IebVcdbqPD1SluZx4MMzIHI0CW0gcnuV7ukS8H4dmpnJ8Ps5MMlW+U66rZUlLqtqtTpekzFCmSVxVdu35FgJCh1H2Gly92YgINhKVYlmh0o+k1YNAXjj8l2AjsVycw5x5D/GF0FXBsJA3s8MgZ7HYp2/J4yNEPOjYe1YOBNMMxiA38HL3acEgba1f2AwG3e6MO4g8dakQheypf/bZvcbo76wCrzTpwkEZ9tCPtdjE5t4P6hzayhFVZzb48HJnynRpNn6FIi/zrOf4rLco3gGQUjHa5o97u1MdI/HtvEvzMlIIoHpACCsAhEMQAAmQAEiAHzDiDngcOAXwFfQyGODwS7zg88KuNu+KR4/+hMLOM6ki5PPeV/pDGv6rzw5I2DjW0ko1C1FIGfBMRXwxixG86EOcqpYBDrQwJIuQxOzSjcNnqzCYalamG2o3kB2j6DEWOpcXu/q6NowEHA7Fh+NOmlRgHhG/XwF9BS9yglwF4qYQhVBBjFJkNVA4D2MWR1spk+eURtxrLsFzDGAYHf8LJS3kbHEaiere3dmVcewZsGqzWq3P0kdG8LaWYkTLKq7ziMfYKZPqqsH088itP8vEji7aQlKesw8Pv/Jts8iA8G0aKZ+alw50O0NQZSqOcWrVZQ+vm6mhyHgDMg4EBi0ChfQmK9sYYhWMIVj4g0PZf8QZeh2UgXgoprQEHgwlPdS5zEPgxwrp0wzkunjrTYGhtSeZynn2I73lkZ2nDUtLApp+0Pw0dwj5lU+XDIYB56TNtiku49rmWbXmeOdUmt4uweJiVdckqv8SRqID3Ik7EYyDY8w/nJJHmdao0tYZiPUmx1meNos82mwQ8ZAoY8sYBZL3LQDwLYEwIkvNTtwKfjQMe8ihnQGNAJGZ0tcMzo/6U14yi7UNy0iVXl2GZnSRbeZyYxSUf4HoJyVE0Izh/8rMcjMthXvpgI8CpfvcJufiOh7+1rbVvcEpv+c4mny/lDQVMXJe0A4dc/n8l/y1skN/JNHWGUjEU7VaKoptr6RlhPWpqtB5tqqvBiK+5AUjiHd3rUKL5Dso2CJsMeDA4840zqnrzYmSANsC0kZg3bKRzKuZTNbWt3QmvxW1wrR+U9XLOckZtIJzlpNLqsiptk4yan3ojc6jbfmRkvySnOGViJ2lLMxKuO7I5ceS/iaVtnRpN5YzCEotHvU0otTqPcg2MFVCAkH8HgaEYjAChgcigIm2snLIbWFo46ZE5xCs4k16BNrjwNd9OfIArwMYg1WbaoTC/UsSIqQ+yTPjV9iCamU58lLdcJSsel8GAsNsMP8HarjazUa61A5eKQD/xXAe7Ib/y2EgEA/nkb2tG2dhc13XlB3KVp9M0GkoUx7ul3vr7ElwDo4FFGr4AhwtPQNNG5CGvAU3yRnwpPzj4a3lkB6CJD6P6kNbCcrVMK48zoPlTtd63VCO2U3nLYwaUHIO5pkdOk6ks+8qzrOpzmWp8+M384MTj6zimWqX5Wo3LkMucEtJVVz6GslXW1m5r8OHufM3sNIVLLznW8fPzi46j+OwNApjR3eUAy4r3CAtvwO17IoCQzbl8zzbiYzQ1+C0zBtRkNYMA+DHAyHc+5Ydy4tEGHTeqP+VthLTDfuI41zU45MRoaLRnHKU3oHt/I+eyFfLm00fZBJ1qRzoJrSxtIV+OpVTgb8a0Vb5EjMonS2VrOfmbW5vl1u2b/m9nzESdQtM3o0jDLLt4UbRPsADNGAiYbax+K7Y60tUVn4SJnwRvlMkQ2YDYWBvk8TGgGElkY1T50ZPS4KFOimtWyw1JgZEyNsAKPFZOqs4GVh31+q64qM1K2aNQL3JTv8upgmZQaVOWkW1gaH32vSN5MSZ4qzEpzClaehmyQpHn9uNHRtokx6VTAh9xFFXjGZAMvM2trXL95nUbC+3vFJrCpZdUJmD4p6gsvRTHmbCBdgwLaAGBkptRGJTSPEe1BvfOrsHXDMGzi+JJC+CbM+i1RMIAsrcgDZnKEJlfLvciEgZobp++DD47HplhyQiwyZRvI8SRnjx4fc9Fs5WXZQhSP/B976OWB+htJmLg8P5N18a/9AT3KuM9hqtK/RQkJbaRa2hjkFz31w2gQPg9oylM3vbWdlm9tVquX7sho91VPoydps9QpBhAsS2QW/FJkhIz0uN8kqQ4o+/O9l7ueu9oJK7LIRSeURkQJDyMzoCYcEuTb0NRJtngaRi5mwOkyq8LGRN8pIW3Ap18+dRLGomUJ41oZMWIt7d3LddPIgv0AL61MU5f6X3ibmcFdauPmUbgb/eYYjD4eVphJKMajcK5Jq3NCKaNvB9sT+3aLVuaUfgX4ZevXvI7oPvNx9DUGQpw3dvfLevra4MyM4JXJROWb1CBRYMPIxopP7wBmMFJvPqBTpYZg0wMsI7aAePIeVZh9iKvtcdSjLHaPtqRuB8XIQDV0Vw1K39MttuCPHJjfpGTuOU3Ebhqn8E6fLUd4rc/uBSjf8RJsC/CECHi1D1cD2S5LXFcC679+fPnvakn3mkaDUV65eXc6xvrVpyXQdZ+BQNp8tG7Xywhl+WHeOTgDWhwCgM+/gC8wS6RThozlgYSjEXA8AyjdN8hr3IyS40A5b2FG6xK86dw6oVo0/AIjqzHR7SSzZ6LpRUzCXW7Xrm2cW7lB5kElUQ4v8EhlHIpQzizTPZAtd0UdKlISajun5SZutPe5nwdxbe5sVleP/tauXb9el9+VZq+pZcIpe/ubQd4TcUsL9i4WqFKQakzcgJPhUBdfiRuUriVtwMgBrwAi/LRv3g4ZWP5A3n9LvJTtEobPcIvWRwWYKcYm+Rw8kUbveARC2+axMDgJp0KmjG7LUqjrGcCDCZNsq3hKJgXXOS3/JDL2FGuAhxDJs0cEP1EBgKQkfpYmkGYDcaIkYyuUZUtP+ZRyynM8uvc2TfKxQsXHO40lYYSEDCSZdNZ4WAA8Dv3vG+qjf4e+dkt11EbzQMI/99FQCFeDI8Mv7u4OmYmr/ft2FSzTgeJZnUbAKVnEYUBWvgZuQVmeJTmGUFpMb42A8mHz7MTs4jSJIuN+672Jl7OqLxvqqqBKaN6FfavLYNb83ivoQz6LhEKoTK5alkcHciqFKyqtKDIQy7CmtGnBNdHYeQq39emyjYpjRnl4oVL5Q0Zy+3b7T+fHW6aIkMJOlDczu62H6VoozvAYdQjD2cAVBIkEq9KzzKG/MQBqIJ2ATbGhTVIZkuv8hht+anw8DxWLYPv1ikN0DaApVxAnDyVEyg9C/HLMmaFIW909BwDR7ZNQJ/U1xyp1IlsPJxqU1Q11N/nQF7aeW1aneTRpLQt7aOPwxPE4kUO19VO/PDaiR/Z1LW1tV1u3rxZzp49W27cyOnXYacpMhRUxDHmvk9b0LvhEExY6cMsYECMK3vkTODMeQ3MNW6HMe1bLEsNYS1hx+UAYl2CqFASCduHah1jBBuu1T9wuIjAWouTThuGNrUvCyAioMoH/kkeAR6/EZDnUyOuhjI2WKfb1MaaLG6K0y9l51rkWnp/ZvlZ7lGGE0Q29K+9/v1y4cKbCq87/zDTFBlKCIXzH5/e9dDjWppwLyWKBSjgEDBaufIZkdsMQjjKjEKHoMsmPyNnfNcEMDQDeJ/TRv9azPXiK23YBzk/PqDy3kNxSKnipy5FUpCvtAkZuCTYpU919Cd5zDVyvPKbJIA68p3yocgf+J0ytKB+IPGo623J2Bw8dilgA2JWOfvGG97U37x549Avv6bOUObm5suZUw+XD3/opxSey2iHctEjQAUQBj1AydICwBrM5hXwBuWL4Ce9OgNTS5E2ihpQgNgu9YyMLmnkZZkz4su6nwOEUZplDfLUJt7U6HYnjSalDWknNy9pB+R8UY35ewgTxcOvMiyYSCvnNEKK2w+Ngly35MHr61TrhoYw+XVQWV29Va5cuSJ/tRtK9aeAonDuyPPe4UceeXQ4iWpA82acTWkFB8TI7g3wMMJH0QCpjfqDIYET5bG0yjEwYKGEK2C1HwNCRpVjo5Olpg0kusBInix1+JAnJtj4DiBJc7Jk1zvxPjhg81/zK38qzSzTZkzIJ1V8vLEPWwjBeYSlpbWTLfJqU80Gh5dxVNMKEDCPGWoYHcyU4+jg4UfLysrKcIBymGlqDKWqyuBh9FrfXDNIG+yi+GjSxoEBkKa4sWhjiAOVSSdDAVCqMhnpOTkbO/XiHgQAqnXB3urBGKgnxlLTLEN1CHGCZECsQoKh+TPFpWxrC/y0mUZRp38/Iz+jtBJtGBhuDCh11b0NlSqeDbnag6ykRl49GHBr6D/16UMfvKwSj1PcZFrpBLnK567BO7qOx4+vlA9/+CfLf/KP/tPy9/7u3y/vfvd7Dr2x6PJNB1mBNcQ/C+I3EQE6Sg4AnCvNEgR4R7z0qUBtvOZXQuVnZIZaOtilKo+8Y3yktSd3PdO4XIDFO644ALBhkS9UtZuPBjEftyMADfByukaaZzVmR9VHno+ah5OvLIFoRk7bVC3GZpKsCu70P+Hao3xTX5WhL1hE+lJ2yiQ6TqRmyRj1t6Wgr63auLS8XN716LvKRz7ykfLUU+/1rNJm68NKU9d7dMrvtrkzL7gZONyAAzxN7yPQx3fcHylcYAHAVjxgr0DCFwzNC57a7DMYVRNOnuUlbAAiuYZzWjRuLOQHeKH4GDm8LTXyaaHkGJhJA6ykGawKDP1ywaG0KOFmVO6HS1ZSkLy0MemWW+MkuS8k2jmhRQaZ3G9ZWFjwi7pPnjxVjh075r0ieYeZps9QpLy9vb1ye33VYLR+0CWkiEduAO7REAADOpSuP8BnEMpIBGIXaWAzKCAjInLGlA8faYz82dPI1bKDb/6EGyhzbCvZSqYK8zTZ1aUEVNtJqJa3oSghhkJOLVNltI9LOz+zC8bk8tWocLBFVnzIMshUPHVm9iHf8uQwOc96cjyZPDc/p6UW72g+uB88zDSVhsINrlurN7U8qbPCOElxVq2SyQIUjOw8kWvFAwzmDvlZluFXsFVRStZXgEkR7+JFDSyeZcTMx6BTzLYoF56AR2L5toHiAkrqlFMbfAdc4aNH+ac8boEIQSzlePp5V35tgxwcDrof+lNdbqxcA7UZLSP+wRmIlMwgWRaqqOtPOzyT1XKt75FLvxAgWVr+8S+02ZP4Uf5OpqkzFLTH63Ju375lMGW8kxJ9XBNQDg8oas9wl5uHBpXAYmChd4CSQwH//sTPRiE6oMiTxpJqYAOQAAtMUp59iH/Pwo+o+O24ygXCkdFktyWYoqbIozyHBACVDDnapwxXDzNGJY99SgrDQ6sVdbsEbIBbl5x80k4RcvTZY88kR1nabQOGx2yqwC2mzvQthlHrSoNsUEy8XGXzcC1V7/ziXFlcXOgzyhhNnaEYBDxmz2beCpYipc0GSgOjOjJRewMCIINlAIWU3AzBnNY5j8IEGAFHysIzpOlDuWEZRrgCkTAGSZ5lM1LrQ/sQ71MraiGvEiGXxdCxDQyV/sixH8N4XId5wh8XGcj3fodnw5SGbdFiyriv5nGCZViOUnKNuGa5bjGMamRDO2GhNDNpjt8xkpUTx8rsXGbCTtNoKAIqexTeP+yHHQMBeQKE9S6FYzgajfGdBqA844zxVWDQQ882zjIDWDMPBhOQQM0nWx/xeKTmZI3ygM8ADOizRIsRJTXyMRiDV+JoQ8S2PQAVp97R0wXyBWYbr2Y+F6FN3Bx0O/BjSINcBgM5p1HODqNXZiOXw49ncnbkDvmWSUYbHI5ojzJbjh1f/oF7VoeZps5QULjX7hrxokB0KsBUsJuU7NF/PH/Qfbg8nirfyh8DNCXwnWZ8VBl8LAdBTjB5dMZRvw2HsvIxQNhgr0UQ3qQRagDEa0aHHNJt5AJ2MyyXNWMziKRVgSanYwywaWDgQ1oMhTLVSM3rEoMIx/Xl66HGUJY48lLGBdQ+bei1kV9cWux7lDGaOkNpm1zUBtzs9GXACmSoOBSfb34H4huQgAAAA2oKRfcONzfEKZloqIZ9FB1o2Zmz8VG/DUVgkoucEIbA1fRjLeJzeQOwknhdVo5CnklkJLlLX7moiLwUDcnPzUbKkAELbYKRdBmL00czmfdyCjCQxBBc3G0ZWky+8gZHeWUhF0Nhn9Jm0k5TaSj7ZUebeYOQkc9+FGil6Q8Fjh6FZ5RUWh2tByOpG2HI2MFVxABfPg7LM2g9QwVsFDe1/c4Y2MhsdcQoaU9tkxx3/RsW8V2MuBtJHiCuyy8ODHY0c3rJpfzG1zYqjcimHSTyRxvkaC8kia4HB5nX7VZ/OMhQXU6vHMSzVKO/6bNFyed/4mPMs/Nz7menkDQ3PYQiuSu/u7ttnBAfX3u3UTsjOxtqjKOCL9xWOjHlDKO+oh61vcyRrIbDAI6w5B2ZMXCoD37SqNWAlkOu5Sg7p3FNCOBKe2hXfmWoPINMcZXLyKwYSSLa4lcf7WoPRljtMuhpu/kPzkr4tIcqiPOv8yTFabAMggeCv1Fk+H4P11FhZhr65T6YM3J8rRTg/9LgyO0U4tJPFe1pI7+5nZdEW6lSqPVb873aqKc4ozv2AiTgHRzAoEScR8wahZelhYFNOSUD/NHmuvKnevHlpMnLOmY4CogXYQCaS1hFu2wzbMMvuDPZKM0fUBq34qW/+CN+MinRiP7Fd5Yc1WNsaSt5Lu1iSnFdJDXfrvL5urj9IbU4AfFQFiOiTds7W+HtZJouQ5FednZ3yu312zVBJGSiTJ8MoTh0B+hQvgmwkF7zGinekgHBaLkmnCBxKBNQQ6Olnvw6ovPB589GK5DZZyYwUOXw5cyqdHxGey/R6hWmfv6V9yDXdSNTQIVf9Xqf5VnQLHFuD0bAJ3yUtXFjbUodTESek0SS5DaYaCOeXZOEC3nJqY+rFS+/MEUHHNO7nZ2mb0bh3berqzdB2uBQVkAapRkAChoYgKAqmlznGWmVx8OvAsw8gFR/7dgZthgGswW/YZd/NPdOvFyS85LF3LUuIgZrjVcjsaHgOx1+cw5NaYbqJZUTQ/BWofLC3GQntfLrL31VOvUrr7UnYX25fgUIuwr6NZIJNRmeebluld9+GDxY3Vq9kSP6ZnmHnKbIUKxZT/koqSkOEBsoKBMwWukVTBWgXu6QLmcW+W3k9T0XHzXX0ZdqlA4Am1EkMXUNRuJw0jPKYzgBfB7vyMiPnKEtVYbrrUCE3BfxsuQbLfuc5XKeHXiCoL4/DJfZyhxxlhtgU3S83Y3CTjsoG59Guz8Ks1RNu+TjvHxLwUhKGZZe/Kpxc3OjDiqdpshQrGbPKLz3lqWDn1FKyMAwOKpSWR4FPJkw0Hc2qTEMh80Md2QzbRi0kuClXMu3QHPYDw/AwmCSTDyGSVB+rQtgOVceexjiLg+vMAY/cWSxtJqbmXW/ALDZxDf8mEugHAem65CDLwspnirIEtSG7PbFZQ9FX9Jgt81tkI9B1LpoMXslX0vR0A/a6YtwxP9Kj/cPr22s+Vp2mipDidLYyN+6fQutVUXzPJcUWRVKBoCz00abxywWeIhPYd/DqA6dAyALMoBlJBT36VZADfiQOzgaYYoBUn9b7rV8RnX/6EqAJo0qDFjl8XxYQhWUgJo2R5h4wy/pnCB4BsFIdnZ25XiuDJ4R+O2QJ3bLIQ7Aiat8iPoslGzHqLuWNBEH8LO6LrN+DEZ94ZrWD+3z82lqv2fBI/ua2Tf8D2d5xKbTlBkKSsFQNrY2qtZRdZ0FUH5FQp5VkgINiNoFQGtuvikaqOST9OEzyB3x8ciIH5b0siejNi4gqsshObcFopzLRoZFYDzgt8kdy89BAQ874qfNNj65vKg7p19NPDQqZyly9ehYgHea+h+iHmTCk1jKuCkO8w6xzMo1T3/U5faKbEyuPzIxo43NzT6jVJoqQ2ETybp4Z2fHIG1AskL9FeW25QhQaKM5o78TzRTPrtFYHKCMZCuRP/kA1cfEQk/Sq3ESdrmUbR9aQLU2KIX5DthTjlmLdBPlBFJAPjMroBu01WCos+5PkOF28cEfc4gC6N476c/paoAd+ZVoJ+SUmtyWZXxyzRCgP5Vt1xOjQQ7Faf+WBi2uR6cpMxQUs8EG0iM3WkNxNdPKT4R7GQasR+covGXjNyA4T45SDWwDqCqgAUkzSotwGD+uvc0xo/HoIcGK1cofGdQF1AmaUn0NxnBYLnpDXwFPNv2xsdQZy8UtJC5tq0Zb01q692N1GUiZWl3a47/w8TE1BgLkYyiul+Jqg+Jk0D+/zX5sz3SYaaoMZXNzXevivFRiULwUFrBFwzYSh1BnPg2kbZTGsV/BwcWfl1N1dEQ2oQE8IsIDDt9KFh/DG3c0RKGATACjeDMAxKQPrazyZrQEmsuMkk6oDIgU+ckBzSrISRtSphH18MxXu3/TZoiAu5aDj3REqO64Gq75UEtLGENJOHuZzKrKkZ/f4nSaMkNZW79dVm/fFPClHyaUMSUBgBzntnW+0qLxgFMJFSMivgFJm5UAVwCFHEAzLluxamz6M8jzQWCWYgipzCb48VUAUj6liCGXOvLeY1L4zmVG9vhPbH0/Xn+IahvujOCtMpVVGfqLquAZ6lV5BoRmGLSRPJpKXvoIb+ImEswz8n1dZBztB265ThiJwrSHa9hpugzl+s2r5cq1y1YWlL1CRrfxp3q9ZJHyDzil+fkWKR8AUK6BVn8mwhntAxRcxCoFcHDqQ92p0umA13kCcNu76E9pzjZAYaWS0cYb0DrVRH9am8jLLJJGkeRZQmDFMaI3chnVnbYknvQ4iDqdbfmSg3x1yk8BhGWg1g4oZRxMOdUbGRxBV1lqnA3H7T7cNDWGgs5urt4oN25dc4xP0uMb5AZjXFti+fkrg9NYHcKAwMpG0YDNaYknDDACDiDlpQzQquXarIPvUd2FRmVwlVnJARQEJ1lKdSxGbU47rrgNBV8ZcQExPzv2v9pWOHVYvMNYtMubUn9aFRmQZxW3RfnO0lctjwjCZq1uVD8J4qFeu8inkI3bhQ83TY2hMHJzg4uze6mnplYltzhKNfDiSPXSSIrFHVQ84KsKh1NJhFhioHjzVZANTh+e/nUJgyTlSOebqMWZiOBHsMHVnOLyPLrXomMkaeoDBkTB1EuQGa0aSx3d3SLlNyKYuBx1D1m0mfal7uYgvMST0GS4VotKfx0XTzMU7qnkXhG9qMIOMU2NofBCCU69tnd3rN1xgBBvireSNZMA6H0lZg8xAkLW7c1FBh4zhrEpYW1t3/IpmnitqMoCPKQDFS+xyKo5hNtMJSZlsGTJRth8gK3GvQyD1Y465WrdTiRYy/hejm/8JZ028B3DSbFAO22C/D3UQTtruPK1tHxqEh+nke1UBVq/uKm653+hvbvXH4yEpsZQ2v9EYZ/gY1SAXj8QyhpmCLkjCnt/ATUEwS2/7WH8cgj5NgL1dGb2SJmb5RESNsbMRJmNGhAiOvItqxrkgXwmJO0p3B72FGovm16e5N3DMDQjiMNNsrEwO+DDbz9LmRhrZh1k8TFA69KLsJd0Xuq15aK4lEZ5WmQehdv+DT7XAU8jePl9iWYH78EsT773Xnm8v/VFnh317yr/6o2rnuF9c9c1Hl6anhlFM8n+/m40JWJGQOFtRDZIAAKgFBilWhuEH03XSMj9DkoC1jxikpMc/nuwgiKerZLMCoQY0ugYmZMowIs8GxbA0wcg+fEY54UngAWg1QjVVow7oKUE7a9tUxmMzn1QFtm0uw0DnulUv41SnAY6hmh7GPFEao6FGQAsW2Gug2XOiIcAXL6EtD5GNsw8eH46ICeHFMRAKEXbfermI2rFdY2u37zi5+64AVxFHFqaGkMZTpXQmpzUKz0KDABFSgoE0G1jUKL+2jKKMNrkIUAUzigIjIZ8SD5xO882NSyHSPhwMRrKBJiApI3UAOoHeWml2iJ5XvIRoy0gzv0gV0QbXRiP1kWOQShHbwHo/s5eZhbPVhi66qWoCppVBVpbYqBKq5MI8ob9T63LhqY2uqzKNb72aTTM0BLGv9K+vbZart+6Vja2+j8SmhJDQfEsDxgFo2JIujSNqwgOPlG3cviroMm+QM4jslwr2PKYYZiNFEf0AOBKjlbXgARZNkZsnwrjD8ZDEfOnwoM8lJOxKMmiqQRj8vIQo2qGpT+3vS7nWp+QZ5kN4Hwn1aKIU5Y6RcQpy30QnFWsRNJ9A5YyLi+qbfS1wvFxm9Puza3NcvPWDb9jrdV/WGlqZpQGDCvdClOilEq4neebD0XCY1+5Sm/5KV+NgA8BEaJIBwztvghpBgl51EK4OfI9tbmY5ERikz+UlfMJFXVXGQeJDqicmp5SJGVWw0iwdg8OVRZ9wMgjMyVw1E7cvhJSD4ZCmxJ3WprpsA3Os1EkkO0lX+0LRA4Z1Dsscfm4/N38L8dbN8sGj9trIDvMNCWGkhMjLwtQFiAhXBWaEQ4FEvP467CdIozOHvFquC2tWG6Ai3EXoCAgRkc5sGRgAZZaj77FFOM4MLv4m7rhS8zAquXM52QMNXsfG5rSwh/A0w4DVLNHOw5ucriXwv7Kd+nVPorFeJOfuiI/aVyrSgh3U8VTy1Ce+ls7oNYjDzzud9rQiDq2t3f8pMTa+ppn4sNMUzOjoAiP9lKW4Jl1NiCRwqx7g54RkSZjDOwN6sZU6bwmSJj08mJ2bsaPirT9Bw4CJ+1tKwYNYGrgUJyP1/PKItekgLiS5jKKu43iTbbBF+MWyL2vCPgxPjhsnOJRdkCOPApLDmW8jqQZdtVYMCCOihVuQI6BJF/RUdsr1eKjwaLOILRxKCc/VdWw3LCvMl8zmtzbYp+ytrHqU8nDTFNiKHd9DMmaGCVZSzgR4GwAhQDWCDhydXnRilBK0YM8cm1pwQkTPIjMPiFgMpjlGniaG/YMHtkx3Biv2+LvkOXIaNOWwA6RmbGURry6EdVYS3SBzGJpd9oAA79lwW91U8Rh8s0vXmYmGZcvgGUqDTlcI7UD4JPsMaiWcTm52n25BMhnQ88/dOJGcN7K0iz68NFUGApKYeTihuNoP8KorQbWmUTa9Eg9AL+N2lqeWKnEq+INbkADGORADR+CXs5InOtQAnU4o/rU5fpEwwxX05zuvAApFD+pyYbPp2oyHLINRH08wleHkR4oa/kpD39mJGYn+pS+2EgN1hSibzGmlBl4FW54Ng9lievLx8jMsKrIfeCP/Fqm9dNpagM/zeapbl40EaK1h4+mZEYpvgvMGyLRXRTbABIH+BtQDCyXErO/w5sRktkjBmXF+wMAWF4E/I1qjqXYoBSN3ICnGWYSmgN4qos2OmFE8Bpk+rT28ERuDJq2j/hbPdCY6FpW3zYU+bUf0Fhxk8E8JFpCgpXS99QEXzMCu5Yu5+vW5Dg/7aPd7FP4jRAGQ78PK03HjCK3pand7xyuykdvBhujZBspxYcS276DMKV/ACwtGiyYovxsoEkOUMIgCf7kL/LaMiOQqnxKbyBuSzDHazrGzGjdZsUYR8CVvuDaHfGxFlAvdVoWCfAnDQLYbWa1wbdCwzfpcQgkzUVrWqtH0vVtbvsHqeVRLNz0iZuNGMrwUsJDSlNhKCiAtTDTuxWsdTrGQfOI4wIE+VqyzGj54M2+yEsslZfp5D/m4pohVUBEJv4IjF6zq9wwkooMTP/pS5VxYtX+fyFckUP5ahiUl/OMQbqFALbUS3t9uMByh6xajo/7whd8fLlw9eXoE7zkjoykhvXxUkkFkcn2hXq8pKO40qAmHyKcAadWwDdh87LUgpfyqcc88nb8zNdmHi8am40PG91zQ0GpbBp5PQ7TO49moCRAyv8THO58t5EUxSrAfmR3d6/s8F+xMCqBBJUjrzkox7NJN6jleCTFNPCKzydoqlu88BuYSpudny1H/Rt34nLctLORRr7b5bjC4s/TyRi/6pMBIYy58OisQO79AYxikRuWbypPHQPYaatAucfbWbT0sUxkUDeNRaw+AD3G4QanXfgm+pUZrfXRRqr+O63u7UhnqeonhfVxv/nQbg8C+34w0g9H1tu8h5FQ2z0lLj6PSNxeu+WTFUZ6FMhDhjz/5f+VUo9clSTlcZSMojWLCHVz/GJQSuUhPxQb5Uv7yDZPwASASAYsPBkLAOAnEWhhZj79akZJivJ2BdbsjyJTbLpoeQleG+lpR57rQlzaAB/AIwwf/KmHGWauzGqmIh0+2oB8+uwo3/SVmYp6VRCIum++BmmPn2+rs2+cRaX91ekr8uQYNLBUBgQPQL4m7KvUJ9oi4g03u7o+LA59GMH10jXgxenMnIeV7r2hSLNr66s2ljyfhW4Z0dQ4jaCeEQR0lN0MAR+DIhUjQcmMzu0EDMNoM5GXRQa6lCxeDAvcpA5qCwEwj/ACBuEGroGcV+WIXN6hylPbAdEG0s1jrMqIXFeMD+dYNWDPPsjVXwxy1N/cT2GQyKFAnolL6/hqPXC73T4l1voh2kC7aIONmRJ3VKeyc83ga1JGlLbJcKSTbRkJe5W+9LqHhGL5rTyKGH5UhZKi5wM6bCAj08mAzwCsoKQ7rZyINI+0SqMY8Gt37A0e1TOA1aCJIZoZadXYmlBn4VOlXLj4ciohk2WQ0Zqj8ADuSimHsVYVWET6V4NuO+DEUFJ5y6+fNhswSxCoBQH/aIAgjWuTvsJnGeJpzm1x4QDC72BWKnzIYVbnVVJ3eNnEIaWqpXtHAGj19i0bio9jFUepKNm/+EPhKBac1A+YAOwGh4j9yjD7AAQDhXV3Rn/TgKMssfzBtzDyI6sRPO0hQhNsNYxd0B7IRmOydBvWYIT6DHzVJ92ziw2w1m8Sg4NhtDR9xVh0DdQXt7eC3Tw2FOJp24E8XYMs3TLL8HE6H1jC5jyyVJKY090+Vd7y9vb4nzWaUVjbkXAI6d4bii7+9etXvZFHPygJgIwANCKrCB7AZlCgT4GF/xJFXL3JMoMMQCZDsTxKZuT0XgcQ+BOZgCR7jJHxOV98vkFJ3OGkOQ4Qa5gSrRTFec3rLO8YZrlTR3vkeSarM1rYR/JGEvJNGZdTvvdTlXfYD1ERHTZ3PvBnFszbXjg8MMmyCbX9H+EYRuQ3g4MUTZo+EkOKBqwYCtfusNI9NRQUwmh15doVP6maO+tkgAGAAmwAQOIGiYCAqptC0WVOyjA6yrPQFz9lqqIFD/9sGJ9EQDeAnipE4QfQRDDYgJH39fKLRo/OBlodpalb+SPApaBnNUlBnt/j1Z45q/IAH3kQZZAJBagyKrn0Kv1j35LL4K9almsTXqaHGEnkku02id2G4+voQurDqN8kkUcA0ZShjeFM//3yP2WiI14izo/gaMVhpHtuKDxsx5tXtnc2vUcx0KUtg5FAVXJALUXzZK1PovYrEAREbiQAmGoobwWyAYqspmXn4SdsuSrbAOUGOCijQiZgrnxOB3wGIM0Lr3AVw2ijuGWnH14CVtkxZmQ5akPw0gjZjqgdCtJul7dhkg+wMztRl+scHMYCe9qKLM92JFYiCF/6A2cyXZeFULWveOQRJl2ETE7C8kI8Jx06uqeGwrKGI+HbG9qjaGpHC1EOYBJoRICcNJLREUpjKdJOn8hgJmp7EgMu+nW5ADBEHHmGCWCtBI9PjPCHD+1TOzQKQz65MlDl6ijtD76dm6K8PHQZmZLB8o+6nEh6/MYPDfVXvsHno7x2LVx3LQMRthE3qsJbOT5jyeKPQflLAws+RkN6I+fXfjF7QuxNhnspFnb46B4byh2/lHtjK29NN+BYDoj4HlzVY3x9WYlSqh1AykyEsxqRY+ZqFFW5pHmPIMCRUsWKAqoDIHBYzklpV07L5OvjpRSGo3hbwjQySCmKE9Yiqsq3vJBEiKi5JtevNjMO/JR13ypvk6UqW10/SJWXbzetlnE0bW37nsGRSD/q9Usag5D2KDvbWn5x0zGfw0b31FAYqXiOiP8PYiVWsBG20VSFkuU8swBMNdtxMkjEHycUPeqa2UTZI7SZYQwQZBLG41PFQjEQ5eBTplKKRx4+cdrNCRX1RWYYSTfwZQAGX3WQvTbjELers0hLx8N42CdVGeZqchx1ZXatT2TFGDKA5D4Ts0Ss1+0hh0wTgWr4laiPPQo6wh/qO2R0Tw2Fm1nrm2ua0rc9unLzMO8TJjfgs+6V0B5EpMFsMnMjkmfBxHCXVPGHVS7gAGwAVwHnGUAGCGAJeSmnOLwGJ/lO5w6+gKWCfkuKywbskT9yJjEaeAIjdRnUcu6D+QCrG+d6/B+2aFuV4fodFos7Amf1FSCf8mRhnDABYpjcH5gcjj8MFDUNHq6Fl1F1mQpFVq4NZbL5zxtwVFSEgdYNPTc+3cDDR/Vq3htCGVua0tvdZkElwJUB+X+dGwBitKsKArB8FAcADZBNsQASpfIcWLtRBwggePJYDC/ZGxmP86lf+T6KrTIDsNTRAIhBVJM0r/dLSvdyDl+XNIDDJ+4m+7i4PS1gN7YEhItZrAE6m3mnOtdMuhTtdUnOrfwAfbRBD7lPtTQngv6fkzjqFT+MmAmDAG2mHO2B3E+RH7mRHPLRDxt5Xic1PsgcJrpnhoJaMYit9v9QUIB1FHAIx8oXDz+H5VhTGgOUGEEMSMxiRe8Yl2WIj3JQM46M1tVRRAUyYgbopCslHwDWgKyRtR0ksBJBmkE1Ji8PUqaeRjYQd4SGqD3iNzgtK3WPysinK1UeFdDs5lwpTuR6Zfh+nAWZ1GOZWf5R1ssq8WMALi9qxt8MmrIw0Ur613gom1jk+Bo7xnvSpKfdbT/K4jqiqENF98xQuNaMVPzOAeUPyw60LJU1oPOgYMvzrINS5Wwc9rMcacr1KZB4JaHKyKjoPIEFCsAcNBlszUAEOhtJBWIaFTkuZ5AH0CzJDFJIcfLVUn9IiFEJoI5XR3EIAZUC3mQ18A6MysKIeBCUpSD9bUQfyfNHyWNZlUZ1uC+ioX8z9LFdh1xD88ghL8HMkuiJJ7zzBDGfw0f3zlC44FKynw7WbMDVN7AISEuM7N5IV96qSZiSAq8UqK8K7Kb4WqLyGdwUq2kYVOPDGZg13HjHCTFxVd6YQ2qDjdNU2AbJ7OC0GEtmrjYS48hJffIchpzrr5TDtQHBj7HUo2qnWx5hZoOkN7K02hFktwGANK4p/fdverjnE2ZltRkqxpp9mbIkutWPO1jT4aF7aChVyVICig5YrDUrFI2gXG/c20jvES6jn9n4oFQ51tRz83Nlbm52UDLy8YnnvwazDqdM1uMGKtIq8LJHqACVb2AaKABdjiUMfCrFyG7g1PaTaLDp47LIoRKB3nueWg6eGOqoftIRIZbqU3d8deFAu+KosxqK+/ODLpXHixyF+KOCVje8ys93KO1r16/W5/K0n5lmnPvw0D0zFBTASMsNR/YqxFECoPfJV1MKA2EbAWsYLQK8jKoA7YhBC1mGgUjZKN3xmkbY5aqMrN8rkFVvDhNyIEC7yB8nZNCQVr/LcyIkH2PCKKGWH5KBE6SP8tw2gIhTHCBTDey+eYpcyfLv5h1W2+RiuJYQ8EoociBfP30yc7h7Q5+h9EsyMRg3a5SX73r9bSTMaMlobY0jP4PNYaN7ZCiMTQACQ9k2KKNoqUDKRVkAJCNnSkQ5KC2jnRUqhxzDTWlepoyN3nwBwrCIE9DZCDI7eKQlvTpkADSDIsWVLlQhojaE9MwBIdpDAfIbGFMyZQxw9wW2GKoHA8JUBE+V3/hdtroEavsU4QPRdze0koPVtT64MHGDXwNGNeKAX06f8Oa6kt8GmVy3hFt7EWlDPIR073otxXMEzGjsDapcUwrkTfAAkBD5aN5YqsNxlgWKy7V/Qe1TMvkua4cXWZFf5TZXyTwwE27froZYBUttX/MHOZVIDZ9L6EtAdCrUZBAcpaY22pQQ1HIjnwBhJzgdOTE0R+VVY9X14Hq2cm6n65OzcZF8MN9iWhkI3krYhfeL8Dmj8hwyumeGgrIYfXd4LKKOotGPvscVJ4PgpmJ0GL/NBI0OKLnSeJqBM1YGYCSAS30HYGu+xpt0L2PGADOMsi6fdEZbRm/f7/DIO5Jpqm1C8ltyKinHmTU3TQizHGVHfa+ZLShHcjMSs4zJIa3VycAyfg35toEx+6Wgy7aW0qfM4E3C4aN7ZCjZH/Ag5Nb2hpSjZRDKJcfKHSkYMjSb0n8IGQjiyQsaAtwABldnFxHLoybPy7i61Bhfz4+INHuDYTihulYueZLly5m08NInobLeQazdEZFHXF/wV1mQecJuank4L+EEaPID9vSrpTWXrtZ26RMe+l0zyVd5XxPaQVKTDeE5MS208XPD1PuTw0n3bEaxoWh/wrNeGEoApQw7NBWoMIh5Xc8oXQ0A18IosxkBp1rD3W/ykAqilN3KBThw13h1byVzIl4f8vGbwTWAWnCt30AjTzw496eV0Yd++PTO/Wj10TB5ctSV9lVSIAaoYDU85PBhUPF+SHXCpxpJVaFmegTdySqzymUWcWJ1pFNBIwVtTFWWk1ye6ylX794fRroHhiJlScmcEuUeyl59H1dGwIyC6JT7HYz4jNRKQfH6Q3GDkZDsLGQ2EChBveLxr6O8SEIgI8e5yuNRDsoF7BiRctpIKooBpJ7MEmlPAIWRxXBaPsBPnsrqkxukkp1C+sspEZhGNNKyRKOcWQanbiUsOW2scD3050i9/2OjSTrXAR6oXQP6xf4MprYUzCY9j8xQf+OjvcjDyGgzDaTaLL8g+JCrfPF7P0lHDiHpSr/dhKLyO+y88A70oHyQbahFiUr2ckyKMvCsPECavQ2/WMSIWBIABj8kCQdlK/ANCh5rcRUBFmBrs46BY0BRP9zhy8hfnYDummv9ocgcACefj9PrvZeRMaRvyHLfyaSOoQ21bldeHV/2EyRTvTVoh/rGXJMxKjQKtRmNBK6neW1wqTs8yuMQhABU5cGnjvgVRuiKFUAMpfIdIroHhhLivwBvan/CjCKVoJvR9beSaJoSsB+UitLQmxWsLBQm4NTlv9MpjiI5+m33IDKappseOQGaHEDwkg5jQbakUJ5Q6k+bDDLX4RwRXGYZ2mVQkeB05NblH3muI3Kon5BZW/labqgh4uWrPXRxX0H5GL8Hjdovo3uMiCGqyaOM779gHM7LHocjec84lFdGm1Uzc0QI7ae1lEEc14v3evF+aAa4t1R9KOieGApKYCPPf3La3t1STMpqJIDkQxhdoiwcTY1PHADkCDig1xclrHzIo6P+/JKHCmbiPj5WnuNibjrP6AxLFSAKT/zmhgogBWMsRAJkJ9dyA0ixFOUzM8ZlT8bv6ZtM6gb/cRW41akAxakBsZab2XY0uyCA3KFuPqSLSBt4mGGRJzZeS+SA2RJuH7O7bo7c98rW1lZZ21g/tL9yvCeGgmKYxvlPTlv8TxRGtTY14ESeGQBCBYuVxp98lkqQUqPjClSSh3W5IgaNNT5KhwxcZ6k8wDXgRsZKuRhkNUqljUDn74h1WtK5d4MRksZafp/fm/DkM+0Wv8EnHm528kQ0NDOn/UttI6LUDPOPO9dBc1Nx9TU7eGaBZ9TuyEl7oFoiLURGHTBwficyj957g65+hiVlJIO+S7xmIAa1vbIuPa3yrznq2zwPG90TQ0G5vMeLnwHz8mcrRh/2AyiOV+3w/+AbSHAN0CiZ0xf4yAZ4/Add32QUADEk83hZk71Q5Chih8cjLwKs5AEEgMRSb/zOdPzwMnIDSgwhj/2zHlIpCuLZBaS0Y3cnvwjkNzEGdAU1fHWXH0PW1edVS9YC8eoOELJV1gaBjzHKh480ywW3LNUqL2XoN4/H+8FRJXC0OzKM8PhaqJ8cFOT/y+QmL03gR3QYk/uvCvjfNTdXb5Tb66tVJoQQ3P1Pb7uhoIiNzdvl+o0refsKv3GQomIMAQQKwxlIUtTgYAJkdQ8AwZ9yAT4Kt+FUwEDIAjh+nF9AgyLT1VKxjSEGEWdDEq/LKUwafCZAqagNx+ViBDGmgAj5GBuNyFMGGDnpzeVBTr/OCAPlgE78bbYcUepEVJOfPsPPA6MMGBiQ6qDtCre9CTztmjZwc91mZ+dcJ1XFpz/i48kGXSPKMMNnsEl7mPkvXblYzl84m9ffVnlirP79TW+7obA+Z2R689K5cunqRW/qgYKwJz/KJQFlWUlSmJXdXAUBeVbwkOZilRfwAnb5UiR5rRw0GFGiJvJaPsrPqVDKOYWmAOQKfj4GoOoIT0ZiKoscIpSjTF32KWm8HvjbG+zteOxdfgPnAVKa6wPQ7kvqhIhjHK1frlMzR1s64rgSw0fXtLWL+nGWY8Ovg4LakXaKX3XxgsJr16+U186+Uq5eu6w4/y8l9R8GetsNhU38lWuXPDJx4VkeQFaKHTGAEjckEZNyB6BZ0VE2Yef7O0QZ8xKq+ZD5SUXGQAJTLd3kJz/1tyXLCPBKt9xR2xpRlcFZPzA1wEIj2cqp7acf3j/IUJhFBxIbrLEJyoxVGNExGgHWfMkRSa7rTIw82tLaUBM8m7hfNqp6bQ3+cUmpiJns9u3V8sr3Xyqvvv5KuXHzunS3G6ZDQG+7oaxvrHk2efPSeW/mrWQy9DWuHhQ9aFpk8AlM6K0BjaUH+xmA7JE+Oj3oRCxnYiBKQg4Z1NfQVSsG0BRKehKRe9BIzOKmISt7DfkVdOZ12wex8hWiXL4G+S5PWWRUWdzDgSucaYZnEUQov5F7obhnFiWTFfOlVpyTc30NfnhSnzPE04xzpv5vFpeEn4B82MxDGRH/UOi1s6+V5198rrx58bz2mJvpyyGgoOdto7vl1q3rusjnyjXtUfa07IrOpOK6kiCOXniVadbrSlQmCmkAY1mFIsnHSGwoAqh5lJcDtAApKg41oMGX5Vn4Wb+3I+O2FGqgQnYDQ/MtxvnilaFyt5/3Dc/Na+aR458Nwen2UIb2yHjgx0/91Jc2uS581Zf9ivi4CLXxjT/xyEtk1E78XCpnWjb5xEeHCcgIb7vhmHqzBKRIm6Es3zIy0BDmf8Vcvny5vPjdF8prr79eVldvmf8w0NtqKKyjb8hQrly/XG5v3C53tIlnvexlgvLbTULrE7BVA6FcNtdtg52wwa58gwQCKNVJ/UlSGF4IoI6Ak7L+4Ne4QVg9wMQM8VYKwCrQBNK2zs97hgEiXBFEnZlpwkOeq9GXl2Sk1TLYRgOuwUwf4AW4d/NCjDsaVNqPu1KDCF4E4JTia6M+QvTPhwmKI8d9rNcmpcVHW6qxkd2MklNIt8L6yey1tblVLl28WC5eeLPckqG0a3u/09tmKCiIG1er67e15Fr34/XWhpTHyZLvQ0hnfvMKhsFRL/qSkrhpyP9SXFiYL/Pz81aoR16BEMDOsdxhhJSyASpi2+Y2YK6jOEhTHuAxsAgZNw0k4TGYCAM4ysBpxhCgIZ0Tov1dOXxOjCoYIQAfI6GdlNClFsjxMZw2A/k/htXHcOiLvCy/aJ/KIc1Lryq7hdsJXpsZDHT3PbNIM5b0L2p2WfqnD6xpB//9ixk5PLXrkpHBiX5n1pXMXQ1Su9LhrVvlwoUL5fq1635e7zDQ22co+rBxz72TTYOQJZKufxSPMgy2puCAmU8EoD354EdK9V4AVNVTsYzaGgEBnFwbwYeiduFtZOlgq8Z/IF+ZyHI7atjLIrcLQmj1VM43GGXojXguDfkuB5Cpi4LiBegMEMTZI+Q3/fCNjN685tc1Er+NUM4Go2s0pMEm5rc690V/ipmnNdcGyfXjGnkWzAmZvnINpIvW77tyzDDoxe8flmFsbe9ov7Llgxm1JLLvc3rbDAUN+WL73VC8ZxiVKfkOyiGvGguKJ4vEBOIMGvy79QUSuasdLIwMpT3QSJj9hViqLHyCAq8+GZ3riDtG44BpswmAacAx6BBqL4AGeH4JhuqExz/cgp+Py8qHz4ZAgxjdma32/U9OZ+fEL3dE5f0aITbYgFiOvZr75BnJ1doRTn9yE3Zw5NM2fdKHGJZJ6Vkyxvk+DHW29qogvJ6t1HexpL368wxaddT+pbb/93yTfZ/T22colaJQqmX5gqLl5GcWkXL4oGnIOtAXugK/gE2OpQI8AbqAX5Xs9T0AkIvhAIbaRfF5tNSIn/plnIrbOGmDUyoRkfOorUxkBEhpd+sDbSGdGQHjZVnIEtH/SGh2Tun8620aHrC5jYBS7WqGM7cQfo/sktPSZ5EpQ5+XPC/R4KltaHUj9mDDRbUe99WO/smR5QJcinSY6zWaySKPPL9DTMbCpeNff8/SR/c1jkOYW7duaDO/2pdeP2pCSXMCzvz8ohQ04yVKZo+MeFJTAC6loLycZAEcgIEGJQTlKs77fW1dKpuNZ4DhenBWaMo1kFM2+58YCr8T8eiqD0VpCzMey8M2Sh+QobZ4hBegmzs4g+FY8+cUDnDPywjwzVtl0UC30WCfsXHZUCgrl7rEz0larWdes80czvHUJQHuu9uOQfs65PrQf22HqsFl/5PRQH30/5fJs2jEZ+YkTzJ1JeUig2Z6VmQz7/7nFJI2UDcrAgzlxo3r2twfjiPit81QUAIzAP86ID8AQslxQQ56G6WR1AzHgBRIMBrKMTpaNWLyKCdlotDIqnHy2zc8Bk0AGIBlNnIZnHibDNqJM27k0g5AUoGMkWkDbvnUR5rkt/sRjL4BvdrMJdbyEnekbub5f/Q2VlXAa5jmFmJYlM/gkHardW6HDVzGQF0zR1OvmyxZHnDk2lPBWb5i6LCrPlWft0KiajqEUe2VHe03tqULeGkzxpk2S3YdNGzYEG2lPPL04fpdvXK1nD37erly5XKu1X1Ob5uhcIE5vVpYXDToTdLbAFaRAQKmBGI2jn4ptEd3ZoEU8GmSFAeI4AUA2fvwX2uzfMOUvNywAivwbRiAn5Oc/E6lzQhNNkQ7TYk65ueoqE68/u14LQfAGLHbqJ3RN74ltbj71RxeBW5NY0bh5X1+kTZhLbfmF7SM02zD8g0ehg7awMRwVMYyP7cQN7ugHF3PwRhVn9Sq1tmR53Brl0FP/XLEJZQ8+uDBSPkYAg90YkjMwL4O4vW19/5pxg+zfv+175cXXnzBj+A3Hd6v9LYZCsSoNTejdbsUZwMBjWqBR7zZKCGgykXnm/ss5pNDryrssEFf07MxJq2WQ7Zcu89iNvIxpGpM+rLyDR4TfJE3BGkpRtAMA0AR1sifZVEFF20WbxtZKZtTKc0GrPe13GEDDKC2NrfL9hb/KjyzKoSchaXFsnxsuRw/cbysnFopJ06fKCfOVPfgA+WBB0+U4yePl2Mr8BwrJ0+dLI8++mh5+NFHysqJE2VxaaksLCyWBS1tF+aXbERzMzK2mRjT/KyM7qj2QzKyWXzpIUtgWhDwx2AZCFheqR/1WmUG1vVSPz1ryqlX5ey518vXvv6V8sorLw99v1/pyNNPP3334x//eI3+zZEutUf+Z7/91fL5Z/64vPbGqzYC0M+TqfwL7Y2NDd/95aJ7xKtKIWxAV/CSjywDTQr0ckwKZ9mBchv0SYePNBtS9W0gyNTHBkU58acemqQ65QDPwuLCMIp6FqhybUz6kEY5p/s0TzPcnur1UXFOj3wUrvSVEw+UlZUTAvSC+SmX/QszrGQIa7Sk1dMMng81DGBVW44tHyunTz4o+fvl2o1rfryE/Oy7YIafcSh9JZEHHjnSXVtbLeub61p+jf7TL5t3Cqn4wM9+aLzP3AfDyDdvb5UNub3tO+Xdjz5R/r1/9z8s//knfqWckME2/vuN/oYNBZUBQSiAvHDpzXL2jdf8BLEgJOXtlYuXLpZXv/9yuXT5UllfW/MIxrqd32rs7EohdQlmOAtMKBVZTTZreBsCyADElYhy1GmwiZ91PuWsTFlE0pNHWz2jKT3glxMg57UkAtCAEwC5Hs4SACClbFnUpcrkjq+saNO96D2D/5Muj+nLLS4ulQ9+4MfLj73vA+X06TMGJHV4fyC53rNYjpsSon1vcTYUGdbS0nI59cBp9+fmLW2qOapVPoaSommPB4Xq4F3fWC+vvvZyOXv+dZW74VMr7m1haBgd8t022W7aVQcTnIzK/OvbNpTN1S1teWbVpw+W/+7X/vvy4Q9/uCzLgO9H+hs0FLQ9Au2fRyiOfydw7fq1cu7cOflXywanKPrMaCl29frl8p3nv1XekFI3t9alOSlbYN/VMoZ7D7PzLAFkTP63aVKyPyJXG8RRR0Cm+qRowMvyCaAD+hxLK7MBSh8A4uWW9iPhBaABoMXK5Zg3iMYAMQhO9X7xo79cfuJDH/bMQaXUj2MWefI97y3vfvw95QR594j43fu5N98oly5d8I+w1jZul69/S8unV1/yca8HEy+39gT6JS3FtDyznvL4EKdlLB+3ZCzMLJtr21rmLZdP/Ge/Un7lV36lPK7+cR3vN3rbll4/jAApyyMMZlhOGZrFj3Wfe/NcuaGlBUsGrAC+r379T8uLLz2vWek6+C4zMhiDHSzLZ5ZAuRkNY5AIdJjZSPV4icTsoDSZRYAvYxiMDd8jqoQqwUbkmUZhnNLe/a4nyt/60E8ZHAvzWqIp471P/Vh59JFHy5JmEOOFepGmCJt0jMkz2j0iZuZdGXX2SHm7Cr8x+eTv/UZ57sVvl1u3Vr385f/+r2gvxL2c7B0pm0EJQ9ndlL+BsWyXvZ275akn3ld+9Vf/2/Kxj33Mg8T9Ziz33FD+IuLka9uPSmTpBbHOfu31V8ubF98s6+trmm3Olt/+vd80KDnJ4lCA2Sggj8uNQ80c2IscR9QYh+MYilDARpeZJKimJn1ZJjNHXcII4KzDP6Clxkf+1t8uD556qDz2rneX06dO2wDgYUmE0bBUeycQ12VD+5V/+clfL5//8mfLufNv5MBBRnDmwTM5fRQPx9jexLPP2d7Nz523pJ81zSrru2XuyHz5L/7L/1r7lX+/PPnkU74W9xPNfOITn/i1J554okani1iLzwt0S0tLZVkAjNMm9tSZ8u7H3lPe++SPlccefawszC3Kf7fP9NfX1qVMDIJZhRkkxuHj07syJB+Zsh+QAeCOcrSLMWTz7n0DG2w7wiojzD/44IPlIz/50+XjH/u75ed/5hfKR3/2Y1pKPVUefuiR8sCJk95c0z5mjXs5Y/xVCUDPzc3bANbWb3uvwsy4tLBU/s5Pf1TX+H3l4QcfLSdPnPIgwOiRfRfLWO1ZdnIDc3t7r3zoQz9ePvjBD+laPXTfGcpUzyiTEEq7vXa7XL5yqXzq9/9NeePc2bKm+JWrl8p1bVa97BJpPmCCsAIxClL4YwLhC71imByRrhw/bgN45OFHPKPI5GSIj5ef/cjPlx//wIcLj6cwa9w/dNc/ovvWc8+W773ygjb5t3y0/Qs/94teRvEDrRvcib91zb+bf+ON18tZXecrlzQwrW5qmj/qAew//o/+UfmH/+Aflve97/3vmBl1UnrHG8pbieXYd196oXz+mc+Vr//Z1/zgHi+c4GQrp1ul3gWftYGwQWXtzRoc5TJ7PfHup8ov/vwvl1/+xb8vACy5zP1P2ivWa8Rmnr3I4gJLyDxXB3HyxcD0/ddeLV/+yjPlhRef06C05tO39z71vvKzP/tz5X3yV1ZW+owy7QTo2wEBywnPGI1a5C/QIVm+A6/Z5X4bFf8q5MHjh4CdWXp7u745cn/PsytG5be76Lrdb0YC3XeG0untIQwpy1oMij0fByfJ+wtHoncovXN2nZ2mijAMZtz268zMIs3df9QNpVOnCagbSqdOE1A3lE6dJqBuKJ06TUDdUDp1moC6oXTqNAF1Q+nUaQLqhtKp0wTUDaVTpwmoG0qnThNQN5ROnSagbiidOk1A3VA6dZqAuqF06jQBdUPp1GkC6obSqdME1A2lU6cJqBtKp04TUDeUTp0moG4onTpNQN1QOnWagLqhdOo0AXVD6dRpAuqG0qnTBNQNpVOnCagbSqdOE1A3lE6dJqBuKJ06TUDdUDp1moC6oXTqNAF1Q+nUaQLqhtKp0wTUDaVTpwmoG0qnThNQN5ROnSagbiidOk1A3VA6dZqAuqF06jQBdUPp1GkC6obSqdME1A2lU6cJqBtKp04TUDeUTp0moG4onTpNQN1QOnWagLqhdOo0AXVD6dRpAuqG0qnTBNQNpVOnCagbSqdOE1A3lE6dJqBuKJ06TUDdUDp1moC6oXTqNAF1Q+nUaQLqhtKp0wTUDaVTpwmoG0qnTn8plfL/AUmcPbNH5ruBAAAAAElFTkSuQmCC;strokeWidth=2;" parent="1" vertex="1">
                    <mxGeometry x="-139.85999999999999" y="120" width="87.83" height="120" as="geometry"/>
                </mxCell>
                <mxCell id="30" value="" style="endArrow=classic;html=1;dashed=1;dashPattern=1 4;strokeWidth=2;" parent="1" edge="1">
                    <mxGeometry width="50" height="50" relative="1" as="geometry">
                        <mxPoint x="124" y="200" as="sourcePoint"/>
                        <mxPoint x="124" y="380" as="targetPoint"/>
                    </mxGeometry>
                </mxCell>
                <mxCell id="31" value="" style="endArrow=classic;html=1;dashed=1;dashPattern=1 4;entryX=0;entryY=0.5;entryDx=0;entryDy=0;strokeWidth=2;" parent="1" edge="1" target="106">
                    <mxGeometry width="50" height="50" relative="1" as="geometry">
                        <mxPoint x="10" y="400" as="sourcePoint"/>
                        <mxPoint x="90" y="400" as="targetPoint"/>
                    </mxGeometry>
                </mxCell>
                <mxCell id="34" value="" style="endArrow=classic;html=1;dashed=1;dashPattern=1 4;exitX=1;exitY=0.5;exitDx=0;exitDy=0;strokeWidth=2;" parent="1" source="97" edge="1">
                    <mxGeometry width="50" height="50" relative="1" as="geometry">
                        <mxPoint x="300" y="400" as="sourcePoint"/>
                        <mxPoint x="330" y="400" as="targetPoint"/>
                    </mxGeometry>
                </mxCell>
                <mxCell id="35" value="" style="endArrow=classic;html=1;dashed=1;dashPattern=1 4;exitX=1;exitY=0.5;exitDx=0;exitDy=0;strokeWidth=2;" parent="1" source="83" edge="1">
                    <mxGeometry width="50" height="50" relative="1" as="geometry">
                        <mxPoint x="120" y="580" as="sourcePoint"/>
                        <mxPoint x="330" y="580" as="targetPoint"/>
                    </mxGeometry>
                </mxCell>
                <mxCell id="62" value="" style="shape=image;verticalLabelPosition=bottom;labelBackgroundColor=default;verticalAlign=top;aspect=fixed;imageAspect=0;image=data:image/png,iVBORw0KGgoAAAANSUhEUgAAABcAAAAjCAYAAAB/wZEbAAAAAXNSR0IArs4c6QAAAARnQU1BAACxjwv8YQUAAAAJcEhZcwAAED0AABA9AUORddcAAAFqSURBVEhL7ZW/roIwFMYPd5NXYBEXNsJgws4CM0/g5msoIw9A4uQALD4ETq7MTDi56ahsVk5zzLWXckESF8MvOWnPV/hoS/8orAY+xA+VH2E0lzKaS/lS8/V6zWMordvfcRw4Ho+UAWRZBrquU9YTNH+lNmTT6ZQH1jFWqxXPsXwHwXy73eIopCaotbW1IZjji/v9nrImOIrFYsHu9zsp/zMeuVK+0PxyuYDneaAoihCHw4Ge6AFfM38oioJZlsWSJCGF8brruux8PpPSjbTnu90ObNsG3/dJAZjP52CaJqiqSko3DfOqquB0OlH2i2EYEIYhTCYTUrppmOPLmqbBZrOBPM9JHQhNjwDOa/0z+VkSBAGp7yM1R263G1sul/wDWF6vV2rpT6v5E1wl+IE4jknpT+cmwrVeL0Hh4uiLYJ6mKQ8Zs9mMav0RzMuyhHr4fHc+iaKIl9j7t6HpEX7ga6CGbUMYLwsJAA+pHNo4Nr8zzQAAAABJRU5ErkJggg==;strokeWidth=2;" parent="1" vertex="1">
                    <mxGeometry x="-38.27999999999997" y="717" width="23" height="35" as="geometry"/>
                </mxCell>
                <mxCell id="69" value="" style="shape=image;verticalLabelPosition=bottom;labelBackgroundColor=default;verticalAlign=top;aspect=fixed;imageAspect=0;image=data:image/png,iVBORw0KGgoAAAANSUhEUgAAAM4AAAEeCAYAAADCVipfAAAAAXNSR0IArs4c6QAAAARnQU1BAACxjwv8YQUAAAAJcEhZcwAAED0AABA9AUORddcAABvFSURBVHhe7Z1rjF1XdceXPU+Pxx7P2HHiRxInTuKEJARCXogASQmPFtIiFWjVqoiqoi2fWrVfqhZU1H6vqgq1gFoepWqBFvoUECLCIxRCICEpEEPiOLEd2+P32B7b4/HY7v93H+Z6MuOZe+69557H/yctz7lnxvdx7v6ftfbaa++9JCLOy3LPtbIxWV/l0ctZJrtcdoWMD90Me2T7ZacqjxbmgGxcNll5ZIpI7oXTI1svu122TjaXcBDNRtktMv62WeG8JEMI+2rHM7JLXTT+7qeyZ2VTnDCFI/fC6Zf9guwm2UpZoygQ0SoZXgaPdKNsQNYsp2VnZHtlT8jwPIhjWjYX/O0O2Q9k22RnZYVw6+YCuRYOb3657G0yhDEkq7NURmiGqK6qPcY7tcI5Gd4GPivbJUMUc8HfIq7PyY7L5vs7k09oT7llVPZ62WYZ4VgdBIKnebvsallv7VyrcLHwYtiDMrzcfBeQ87zufH0uk29yKxyEMChbIaNx1kM0junH/LLsMhmNtzF8axWeCxuR3SF7pWy+8I+/Qbz8bOd7MN0nt8KhP0MIRjjW+CHoz7xWxu86ebfnNUlGkHCg74THmy0O+l+8jzW1Y1Mccisc+jY03NWyxg/BYxpyGiDMDbJbZWTt5goHERPvh9DRFIfcCmcuaMid9DJzQZiG15vP6/CYVDnhY9rvzXSOQgmHBkwDTRv6UQy+4gHpd83FlbK11UNTAAolHBrnpuphqtB/oW91p+waGWHkbK6X8f5MMSiUcGjASQY4W4VwjNemv4PXaxxPqsM5hEN63OSfQgmnmyAewrS6eBrHlYALTahmr1MMLJw2Q8hWD8saU9AIizEn+kGML81OIph8YeG0GUKyLbJXyRBR4wUmjMQjvVrmC59v/P11ADwNZUDUyeFl6hcZL0NKmuSBPU6+sXA6BClqPM67ZFQONIqHY1/4fOPvr0MgEDwP40r3yRARcI7kwW2yudLWJh9YOB0GAVFVgHAQDZ6I8hvS0t1InZv2YOGkBNk0QrY61LXR3/EXkE/8vaUE0w+YbAdcdJIGFKTOV6Jjso2F0wXwNnggMm/M1TH5w8LpAvR7HKrlG39vxiTAwukiwzJCNfdz8oeF00VIUTO1mkVHTL4olHBY5ypPa11R10Z2zeM5+aNQwnlK9v3qoTEdpVDCYa3mo9XDzMEChV7NszjkVjj1VTUbV8jMcuN8Tsa607MhLU0Zjjub+SK33xfrNx+U4WEQTB3ExFrPWYNF2FlPejasD0cpjgs+80VuhXNExl189vrNhGtsy5EXqJ6+TtZYx2ayT+EihJ2yb1QPjekYhRNOve+TFehzbZexY4EpDoXsk9LHobGyT00W+LHscPXQFIRCCofEwdOyLOyGhsdhN7eTlUdzw1JSrARK6Y3XIsgHhfU4L8jIus23a1qWoOSGFUipIrBw8kEhhcNdHm/zQ9khTmQcSm9YrJCiz7l2PDDZo7DCIUWNx8nimM5c4HXeICNkY0DUZJtCCgcQD2M9/ycjRd0NqBT449rPxkHauWBSG2M5/HS4ln1yLZwTsp/J9svm6stw7oDsWOVReiBa3tffyz4vQ8CcuxSIhSTBXTLWIrB4sk2uhUP27HkZ/Zi5xm5orIiL3Z8R0EJ3/XZACvxZ2Rdkn5Lx2osdVyJEY1EPPI/DtWxT2FCtzoRsq4z0NMed3DYdgVACxBbt/yirh4icX8jjNIJwyLCZ7FJ44QCDjz+RPSFjPKUTnofnxPN9WvbPMrwOIBhev5kxJVb+TGsfU5OMUggHKP7E8zDRbb7QLin0pah8/qjsi7XjOgjna7JmC0/JrrnwM7uURjiEaNSL4XkogaHP06p4SHVvk31Jhpf5NxmlPrNT4CQnmh2IZfHCO2RsjUgFtfs82YLxtg9XD/MJDeoGGXdoUrmXgrs/IRNJhXoWK+mWG0zT/pEMb4KXeUxGJm2+cSMW5mDN6MWuaMPf0c/B+Gy8Z567k300s3hyLxw+AKv/07hY9GIxIqCfU68dY7R+MZPI6KfQ2SfkIlNG5/9hGVMYEA0p8Uv1nRAtwlls+MXnQDz8fX0VHJ6f58EsoO7C98P3kFuINVlOllF3dgBoZo0yGvIrZPfI8ESXuhCIA6EgEMDTNFPOgzd8rexeWeMWh4uFMJPwkqwdfSgKR/FAdTGZdMm9cADx/KIMETQzBZkPj8dhT86HZJfKfOFt6M8wLgSM1zRz4XiP9W0Mb+dEk/BaGK/PgCoi+oGMsqKsTJ8oE4UQDvySDOEghGagQRP2fEJG5m0+6NwjrFZCJNYXuFX25sqjZOBhSGrgbfA6j8r2yiyedClNVm0+aIg0uvq4CXfzuYw7fav9Cjr41K2R1btUf+hS8IUR6nGDYBVQwsyNstJ/kSnj6y3of9wi6/RoPZ6CxMKTMkqFmhkUnQ2hAskQMoqEfvTvTHpYODUQT6cvBjExYqGD/x3Z7trjVmJl0vGEf3fKyC56Pk86WDhdgNCQGarfkyGidvRPCDXfLqMfZfF0HguniyAewjaqDZqtLJgNXyQe51dkDLYuNBhsWqMwWbXXySjJJ7Xc7N2AC0DHnbkzL3IiRZg2zXoDeAwGcRcERdC5mWMwaECua+Xxav/pScVwL+lvp8hCzFfOYBJTGOFwl2WAkZR0s3fbbgoHyJAxeW3BMSjEQhlBfYGCBpboQ4ycjLjppWq/aVyKPDGoz0ZGojaT74UTEUckrjNJU3rmAoURDlCOT3q2meoB6LZwKj18vEi9kpN6IDoqfDuogGMK60j7cYegVAJX1QDCGdbfXrev+qc36fm2yFaTQ5dgzuv3X9PvEM8OPf8+eaFzhfnm08fCEV0VDqJgP0O8SF0MDPbQ+vkd+WuOEQs1QvT+Z4mmEcJUxnf+QPZOWT1NzWf81gGJRsL5hn4+NB6xF1GaRPDV5LrIsxH6CgwG1m/czUBEw5QDZommCmKgdTN/APHQ0UEo9PSp8CQkw8tcKUM0C8ShfKEs4v5+2c2cqMEdcpNiwdv0etfqOWekpMfysHZWRnFWTZAOflSW2jK1XHX6KnTIMLxJY2efDg9hGaJhMg4ZDxSxAGiKerjflXETmY/r9bzv0x98SK894BaQCHscQdKJ6QHstdPxuJU3h+e4XoYn4Zj+TWMD5hjDTfAN1Y8XAO0hHMI0fs6ntV4930qpbKM823rZjXoPx+VyDzr7tmgav67SgljaUYu2ILRk+jNM70Q0eBRae5u+BbSF1yHamyNbfRHL9F7wPL+lMPF3FCb+qu44r0DEZlGUXjgkBRiI7LhoaNU0TPoq9N7xMovwIouFpyL6YzyLp14MeJ518ji3SMzvkXAQD/0gszClDtXwNJS8fFbWjrKXeaFV0+Gn106I1oHbFZ6GcazPyHipZliq97d2sCoi3upTillJHnQ8bM0xpfY49XktHYdWTVkDmbMOgVhI0LUCodt7dff5wOaI1Yr1etroEYtGqYVDjdj/yjp2Z+Xq0o95jYxU83y99TbwVtmfVw8Tg1CuHIr4bYnnLeqDIR4zN4USDjM459sy8Kw+6XHdlvcrnt9Xs3E9PtSJuyoeBsEwDkMRGqJZbMcjIbzEluphS5CeRjyv1PUhfOsv9a11fgrVxwHaK8MigFiOSRwI5rA6vbvUkJ/TL/eMVW23GvOEOjfnWi1NboS7NOMwZM0wxmEQUgfDHsZK75exYEk7WKL3il6O6toc1rUhVe3ynIvh6yzGJaHB6jZwsz7RW6pn4pTO7ZBYjuoOyvE+dQL2ys7XGzEDN6TU2Pe9FXg+bkEIhI4GGQpE02ztT0IelH1A9rbKo/bx7YMRH1c8+z97qjcY83OKIRxuj7iZlbr7qgGTuOKTnZRH2a4YZuJSKVaWi3lU1ko+ui4YRvjxNhynJBr4K9nvyUgQtJuPbIv462d1HRnoMhfIf6iGaBgmZ1BRYdGUPMy+WihGP+aUxHPBw8wFv+M5KFJLUm6PaBALasXTUCrT4dBsNiQGWC6Xl203fIxj8jbPHKumqE0Vmkw+4fZK/+EmGWle7vISyVm1nqmaTfdKCws1YDrtNHhuIc3CgBFeBtGSCKiFi2mKptNs0Y3g9lEnCWaTv8tRF8xmGYJhFL5eY5KkwdLQec5m/y9XjlQWr18XTRcEwxpt3Duarc9bLNS0jeqzMUhqfk4+hMOXRsNEMJSsIBrKBGi4pNGIUdL+Ynlt3gNJALxWl2CBDgqsOyUcoBD0ddwczAXyIRxEQ86VBcRoJTRavEQnW8t8cMWoOWN8BtEg2i7CpaBb1cn7xmsUqv2p3NrN+tyDSULaApIP4dCPuFuGWGio3XzXvAcGTbgDl6QRMSh6t8Lhxx+IuM5FoBWyLxzCMuq8uhFj85p0/NligM4ExnE3QsMMQEkOfR4nCvIgHPoP3bzL8frEQmTtMMK0EoqGj9yrf/7ohoj7FAGs6EaYnCGyLRwaLf0bMy/s10N9XhpDLGTW3qp+3a9fpSCAm0iJybZwGFjkDm/m5dsyqrw7PhGvxnJ5mnvVv7t1pHaipGRbOKSfEY+ZFzbs/aEszVIyPA/9nDIv9FHij26SMtJX9TivYq52SbFwTNMgHNZnu8PCyRikcBhcJJtmaWcOsmsr1ddBQGUl28KhnIbjbsCVqS8KmPHU649kbI+YJsO6JpuGqktKlXFtguzez/E2aQ008hpk7xoFwmvX59dkPCX+JdlXqoepsWZAodpYxJvWVj1Q2XAgBIiEfdTrKVYaQr1qGtFk/CqxLjvjOWlCVm2VrhvrEjDVumxYOHUYbK1fDQTDHB3KfTwAa+bAwgHumHgddqFlKUx2oqVGDdHk5G7KeiNpz26uj+cMyso2X4eAJFtTp/kCaLDc8dkHJq0KZF6X1yMhQP8KD5QjKLlB+0yhTgsuGYmBPVMKF2WVbRNLQvY8Dt8+c29Y7ML+cNGQWfv36mFqUCnNeM5dY7rf8L2ViOw1TbwNMytJA3vSVFOwpC8Fn97is/P4nl4QEMtBGfv8eJubzmPhFASEs1P2cRlLAZvOYuEUCDzNuCytKQZlJnvCIVBnU1dagYN1k1GyJxwmlrBdOXv9WzhNweXisv1M5nCts2RPOMQZpIYQkJdcbQou2W4Z/ZwXOZECNCAKPtlTtEw1a+7jFAg8DnuaIho8TxowlZo1CN6xvrqvTlmwcAoGXcSfyD4m+y4nOgylNuzcNtpXLb8pCxZOwSC6PSZ7Xsa4TqchOiNEo/SmRJGahVNUEJC7iJ3Dwiko9R2127lLo/k5Fk5BYZfGXTImuZn2Y+EUlG2yh2WPVx6ZdmPhFJT6xLapyiPTbiycAnNYxvK4FGKY9mLhFJi9sqdkWyuPTDuxcArMERlVBJThdBoWJ2QWaFkGQS0c0xYeXBfx5ssjNrBCUAmwcExbuHywukhhWfYItXBMW+hTS6L0pizLRFk4BYcVPr8je0bWybUIZs5HnJWdK0mdj4VTcEgMfFX2pIwpB51i22TEiyciJqn1KQEWjmkL/yGFPjQesSutiUBdxsIxJgEWTgmg7Ib9cyj4dLV0e7BwSgAT274se06W9sLsRcXCKQF1j0OGzR6nPVg4xiTAwikRLB/F6lueUt06Fk5JQCz/IGMwlD6PaQ0Lp0QwvYCpBu7ntI6FUyLIqFF241CtdSwcYxJg4ZQMkgPeBqR1LJySwToEEzJvBNEaFk7J+LSMTXY7WSldBiyckkH1APt22eO0hoVjTAIsHGMSYOGUEMZyXCXdGhZOCfmW7F+qhyYhFk4JYVlc1iAwybFwSgjLArANiElO9oTTJ1srG5RZ1iajZK9pDsg2y1bISrIqpMkf2bynI5gy7cRqcoeDIWMSkC3h4Gno2/TK7HFyxWUKscf6FWmX5FacrY85JCMxwE/7wlxx91jEq0erOxaUgWw1Ty66Ln6wx4o9TkehcuAFWbuKPW8ZidiyImKVvE4Z8H29pLAv6BdkrHxjmsfCKSlUD3xS5oU7kmHhlBQW7PCcnORYOMYkIDvCISGgDmYlo2ZMxsmOcCixWVP7aUzGyY5wGPykwNP1aSYHuI9jTAIsHNM2hnsjVsrYtr3oWDimbdyzOuL+tRGrS1B2kw3huH9TCG5cEXHbSNXrFJ1sCIcUNNk0UtImNWZkLE7ospvmyYZwnIpOHSoHjsv+S8Z60qY53McpKQiHBTs+JRvnhGkKC6fEsN3HERkhWzt4eiLiMbmviRLEfhaOaRtbj0U8JfEctXCMWTwHpyP2n46YLkHZtYVjTAIsHGMSYOGYyjiOJ7U1h4VTYsiqHZSRkn6KE2bRWDglhrEcVrv5rmwXJ8yi6b5weAfUNlnCJkd0t7lSfs7KnZTalGQhO1MMui8cRHOFbJgTxuSDbIRqTCfwyp0mR7hnYUwCLBxjEmDhmJiS7ZdRKW0Wh4VjYqfsi7JHKo/MYrBwTGXhdWaBHqs8Mouhu8JxJi0TUEFA+Q2WlC/ujvjKeMQu9oIvAd0TDino5bINMg9+5p5nj0dsn5TXKsnKH90TDq9cFw7VA8bkCPdxjEmAhWNMAiwcYxJg4RiTAAvHmARYOMYkwMIxJgEWjjEJsHCMSYCFY1rm3PmI81jtcRmwcExLsE7000cjth4vx2LrdSwc0xInz0Z8aW/ENw9EjDMjriRYOMYkoDvCYR4OUwlWySxdk0O602x5VdZRu1rmnaZNDumex+mXsRihZ4GaHOJAyZgEdEc4LLKOxzEmp6QvHEKzNbJNlUfG5JL0hXON7AbZysojY3JJ+sIZkZGGdjbN5Jj0hXNI5rVWMwWR892yWyuPzGJIXzjsmbenemiywTrZW2SIp1nosvbqnx5ZmUYW0heOKRRLpZbV/RGjfRH9JQq/LRzTEsO9Eb9xdcSD6yOuWlY7WQIsHNMShGdD8jSDMsK1smDhGJMAC6fE4CAo4KDWllECs3gsnBKDcChSv1/GuLRZPN0Rznl9aef04udLFBS3Ea4a167nXNWWJJzsz5dPgfobZHidViC7hpXlGyWB+OHqYXr0zSyJDZPL4p7J0dg1cirOLi3TMg+ts+Zkf7xu51jct2N13L53VZzuOReHhs5Es/chhEPl03tk6znRAst7Iw5OR+w5FXF8pnaywHCpU221vOAtvSvi/v41sX5gMH66ZjJmGoRzfGAmvr9+IvYvP33R+bzz+h1jcfXRodqj1hie7omrJpbF2FR/xds8P3oyxldMhZzPgjy57mhsHz0Rp3vPxVo9/jPZu2WX88sWmJRY/vb5iE++EPGz47WTBSZ14SzVSz4Qa+LXdI8b6OmJk30zF33hJ/rOxo/XHovDy85cEM748FQ8sf5o5Tir9Oh2f+XRZbHpyLJYfoZ5Exdzx56RWDfZnh20enXBBmeWRt/ZaqR9StcMr7MYj/PMZcfjpZVTcUZ/v7Z/Jj501eFYp+vcV/t9K3xkW8THtkf8JNtfVVtIXTibY3m8NS6LN8bq2pmLOadb6LS+1LN6Z5U3pscv6I761c0HKr8HvNI+eSTE1S3oW2ySUFYrbAIa85aDK+LWfStiZOrlzXBQjZy/6TZc2zMSyhJd15XDp+Mdb3w2+uR92sGXxyM+IY/zkH7igYpM6sL5fXVD76+UFSZn29iJePTqw/HEuok42X82ptQYEFwncw2EROqGVwQzdqovhmZ64l3PrIs7dlPqnT8QzrCE88ADW6O3TcKBf90V8cEfRzw3WTtRUHKZjt58ZHm89+mN8Sffvi7uVSd5tRpyv+7oNO5O0XduaaVvcbX6Fn/5yI3xF49sidsVfplykmpWbXX0x52xKjZGa0VNOBbSscvO9MSmiaG4a/do9aSMc8sU/5+QJ0oKIdWw+ilrTvTHytO9Fbtzz6p450+viPt2rKkItVdCwgPllSV66/26RtdeezCWtjEJ88yxiEf2Rxyerp0oKHzzqYVq7471cW+MxRUd2J9958gp9XmmKwmFI+r7PNzQJ2qW4eneime5eT+jHFXoy9C5p1NeBByqtUaqwvlgXB83xnD0dThCJHnw+IaJ2qPmGZLXumJyIK450p70cRaxcFojFeH06GVWRm/8YVwb18VyHeU3xCkKFk5rpBJ3DOpl7olR9W467WuMSYeUhNPTIBx7G5N/UhEOL9Kvf+1tTFHoeFselZe5TT2cEfVs7G1MUUhJOCOV5ABJApMVlsTMzNIYHx+J6ekSrbLRJjouHEI0RGN/ky3Ys/P06b7YuvWKOHXKC3k3i7sdJQbx4G3Otan49KyeD+v4+EYG6KhwGK8Z0Et43KYcfHZXxEe3R+w8WTtRYDoqnGtiKO6KVZUSG0un+ByZjjgkYyfqotNR4TBusy4GY1g+x2ST8+eXqK/TW0kUtAKiYbv26eS1tbnCfZxSQ2atJw4eHI6TtQl5SfnR0eqU6YnuzS1MFQunxJAcOHOmJ3bvXhUTR5clShKQCJiSl/n6gYjvHYo4cLp6vuhYOCamp3tj4sjyOHas+XlShGY/nKiuM1AWbwMdEw6T1VhfYI03+8w8COfw4SEJp7nFROjTfFde5m+eq/6kn1MWOiactRLMlTFYSRCYbEOIduLEQBw6tDwmJhbndfAujx+O+OSLEd9UmLZ/KmKmDAM4NTomnKHoqWTTGMcx2YfMGqHaUfV1FoIVbBDN53ZFfHVfxD6J5kyJRANu1abC2bNLK+IhbLsUjNE8eSTi8xLNf+6uiqZkmqlg4ZgLMKaDgLDZEIaRMds+GfF3z1e9DYOdZcXCMReYnByInTvHYseOsZcNiD57POL2hyPe9M2I/94TcbIE60Nfio4Ih9o05nq6HjpfkCRgXIdwDa/D+Az1Z7/5vYj3/6C6oPq4QrOTOl/G8KwRWnZbrwFPyIIcb47L4pWxsjIfx+SH3t6zMTp6MjZvPhCPTU/GP+2dia8fOF/4JW2bpe0eh0X6qE/bFEMWTQ6hBOfQoeF48cU18dD2oXjy4FKLZg7cxzEvg5BtfHxlTEwMVUI383IsHGMSYOEYkwALx5gEWDjGJMDCMSYBFo4xCbBwjEmAhWNMAtoqHObebI6huDtWxWpXDZgC01bhUNy5VvJhyrSXhDJFxqGaMQmwcIxJgIVjTAIsHGMSYOEYkwALx8wLa+ONyfoq83pNIxaOmZdXxIrK0MKy8GS22Vg4Zl4uj4HKEsYsvGIuxlfEmARYOMYkoG3CoU5tg6LhO2NVDFqPpuC0rYUPqgO5Uf++NkbdmTSFx67BmARYOMYkwMIxJgEWjrkkl0V/bKj0YF090IiFYy7JVbEsbohhl93MwsIxl4TqAfZytce5GAvHmARYOMYkoC3CoVJgSyyP+2J17YwxxaYtwunV01BFy2ZSxpSBtoVqiId6NVM8SAs4OXAxbulmQVbotrgxltUeGbBwzIIwE/R9cWXtkQELx5gEWDjGJMDCMSYBFo4xCbBwjEmAhWNMAiwcYxLAcPD56mFy+qU/ym1uiRW1M6ZoHI0z8bU4WHtk2iIcngTxDHh1m8JyTs1kMmZqj8ySgYGBloVjTLmI+H+AlUB6Uwl1SgAAAABJRU5ErkJggg==;strokeWidth=2;" parent="1" vertex="1">
                    <mxGeometry x="-61.43" y="690" width="86.43" height="120" as="geometry"/>
                </mxCell>
                <mxCell id="70" value="" style="endArrow=classic;html=1;entryX=0.561;entryY=1.032;entryDx=0;entryDy=0;entryPerimeter=0;dashed=1;dashPattern=1 4;strokeWidth=2;" parent="1" target="6" edge="1">
                    <mxGeometry width="50" height="50" relative="1" as="geometry">
                        <mxPoint x="680" y="750" as="sourcePoint"/>
                        <mxPoint x="540" y="640" as="targetPoint"/>
                    </mxGeometry>
                </mxCell>
                <mxCell id="71" value="" style="endArrow=classic;html=1;entryX=0.569;entryY=-0.013;entryDx=0;entryDy=0;entryPerimeter=0;dashed=1;dashPattern=1 4;strokeWidth=2;" parent="1" target="3" edge="1">
                    <mxGeometry width="50" height="50" relative="1" as="geometry">
                        <mxPoint x="681" y="300" as="sourcePoint"/>
                        <mxPoint x="660" y="250" as="targetPoint"/>
                    </mxGeometry>
                </mxCell>
                <mxCell id="72" value="" style="endArrow=none;html=1;dashed=1;dashPattern=1 4;strokeWidth=2;" parent="1" edge="1">
                    <mxGeometry width="50" height="50" relative="1" as="geometry">
                        <mxPoint x="540" y="300" as="sourcePoint"/>
                        <mxPoint x="680" y="300" as="targetPoint"/>
                    </mxGeometry>
                </mxCell>
                <mxCell id="73" value="" style="endArrow=none;html=1;dashed=1;dashPattern=1 4;strokeWidth=2;" parent="1" edge="1">
                    <mxGeometry width="50" height="50" relative="1" as="geometry">
                        <mxPoint x="540" y="752" as="sourcePoint"/>
                        <mxPoint x="540" y="302" as="targetPoint"/>
                    </mxGeometry>
                </mxCell>
                <mxCell id="74" value="" style="endArrow=none;html=1;exitX=1;exitY=0.5;exitDx=0;exitDy=0;dashed=1;dashPattern=1 4;strokeWidth=2;" parent="1" source="69" edge="1">
                    <mxGeometry width="50" height="50" relative="1" as="geometry">
                        <mxPoint x="10" y="680" as="sourcePoint"/>
                        <mxPoint x="680" y="750" as="targetPoint"/>
                    </mxGeometry>
                </mxCell>
                <mxCell id="75" value="" style="endArrow=classic;html=1;dashed=1;dashPattern=1 4;entryX=0;entryY=0.5;entryDx=0;entryDy=0;strokeWidth=2;" parent="1" target="3" edge="1">
                    <mxGeometry width="50" height="50" relative="1" as="geometry">
                        <mxPoint x="520" y="400" as="sourcePoint"/>
                        <mxPoint x="550" y="350" as="targetPoint"/>
                    </mxGeometry>
                </mxCell>
                <mxCell id="76" value="" style="endArrow=classic;html=1;dashed=1;dashPattern=1 4;entryX=0;entryY=0.5;entryDx=0;entryDy=0;strokeWidth=2;" parent="1" target="6" edge="1">
                    <mxGeometry width="50" height="50" relative="1" as="geometry">
                        <mxPoint x="510" y="580" as="sourcePoint"/>
                        <mxPoint x="550" y="530" as="targetPoint"/>
                    </mxGeometry>
                </mxCell>
                <mxCell id="77" value="" style="endArrow=classic;html=1;dashed=1;dashPattern=1 4;entryX=0;entryY=0.5;entryDx=0;entryDy=0;strokeWidth=2;" parent="1" target="7" edge="1">
                    <mxGeometry width="50" height="50" relative="1" as="geometry">
                        <mxPoint x="750" y="400" as="sourcePoint"/>
                        <mxPoint x="760" y="350" as="targetPoint"/>
                    </mxGeometry>
                </mxCell>
                <mxCell id="78" value="" style="endArrow=classic;html=1;dashed=1;dashPattern=1 4;entryX=0;entryY=0.5;entryDx=0;entryDy=0;strokeWidth=2;" parent="1" target="4" edge="1">
                    <mxGeometry width="50" height="50" relative="1" as="geometry">
                        <mxPoint x="750" y="580" as="sourcePoint"/>
                        <mxPoint x="760" y="530" as="targetPoint"/>
                    </mxGeometry>
                </mxCell>
                <mxCell id="79" value="" style="endArrow=none;html=1;dashed=1;dashPattern=1 4;strokeWidth=2;" parent="1" edge="1">
                    <mxGeometry width="50" height="50" relative="1" as="geometry">
                        <mxPoint x="960" y="400" as="sourcePoint"/>
                        <mxPoint x="1000" y="400" as="targetPoint"/>
                    </mxGeometry>
                </mxCell>
                <mxCell id="80" value="" style="endArrow=none;html=1;dashed=1;dashPattern=1 4;strokeWidth=2;" parent="1" edge="1">
                    <mxGeometry width="50" height="50" relative="1" as="geometry">
                        <mxPoint x="960" y="580" as="sourcePoint"/>
                        <mxPoint x="1000" y="580" as="targetPoint"/>
                    </mxGeometry>
                </mxCell>
                <mxCell id="81" value="" style="endArrow=none;html=1;dashed=1;dashPattern=1 4;strokeWidth=2;" parent="1" edge="1">
                    <mxGeometry width="50" height="50" relative="1" as="geometry">
                        <mxPoint x="1000" y="580" as="sourcePoint"/>
                        <mxPoint x="1000" y="390" as="targetPoint"/>
                    </mxGeometry>
                </mxCell>
                <mxCell id="82" value="" style="endArrow=classic;html=1;dashed=1;dashPattern=1 4;strokeWidth=2;" parent="1" edge="1">
                    <mxGeometry width="50" height="50" relative="1" as="geometry">
                        <mxPoint x="1000" y="490" as="sourcePoint"/>
                        <mxPoint x="1040" y="490" as="targetPoint"/>
                    </mxGeometry>
                </mxCell>
                <mxCell id="83" value="&lt;font style=&quot;font-size: 30px;&quot;&gt;Previous Output&amp;nbsp; &lt;i&gt;F&lt;sub&gt;i&lt;/sub&gt;&lt;/i&gt;&lt;/font&gt;" style="rounded=0;whiteSpace=wrap;html=1;strokeWidth=2;" parent="1" vertex="1">
                    <mxGeometry x="-190" y="550" width="300" height="60" as="geometry"/>
                </mxCell>
                <mxCell id="91" value="&lt;font style=&quot;font-size: 30px;&quot;&gt;Output Tensor &lt;i&gt;F&lt;sub&gt;i+1&lt;/sub&gt;&lt;/i&gt;&amp;nbsp;&lt;/font&gt;" style="rounded=0;whiteSpace=wrap;html=1;" parent="1" vertex="1">
                    <mxGeometry x="1040" y="460" width="290" height="60" as="geometry"/>
                </mxCell>
                <mxCell id="97" value="&lt;font style=&quot;font-size: 30px;&quot;&gt;&lt;i&gt;X&lt;/i&gt;&lt;/font&gt;" style="rounded=0;whiteSpace=wrap;html=1;strokeWidth=2;" parent="1" vertex="1">
                    <mxGeometry x="190" y="385" width="80" height="30" as="geometry"/>
                </mxCell>
                <mxCell id="99" value="" style="endArrow=none;dashed=1;html=1;dashPattern=1 4;entryX=0;entryY=0.5;entryDx=0;entryDy=0;exitX=1;exitY=0.5;exitDx=0;exitDy=0;strokeWidth=2;" parent="1" source="106" target="97" edge="1">
                    <mxGeometry width="50" height="50" relative="1" as="geometry">
                        <mxPoint x="150" y="400" as="sourcePoint"/>
                        <mxPoint x="200" y="300" as="targetPoint"/>
                    </mxGeometry>
                </mxCell>
                <mxCell id="105" value="" style="endArrow=none;dashed=1;html=1;dashPattern=1 3;strokeWidth=2;exitX=1.023;exitY=0.667;exitDx=0;exitDy=0;exitPerimeter=0;" edge="1" parent="1" source="15">
                    <mxGeometry width="50" height="50" relative="1" as="geometry">
                        <mxPoint x="50" y="220" as="sourcePoint"/>
                        <mxPoint x="120" y="200" as="targetPoint"/>
                    </mxGeometry>
                </mxCell>
                <mxCell id="106" value="&lt;b&gt;&lt;font style=&quot;font-size: 30px;&quot;&gt;=&lt;/font&gt;&lt;/b&gt;" style="ellipse;whiteSpace=wrap;html=1;aspect=fixed;strokeWidth=2;" vertex="1" parent="1">
                    <mxGeometry x="100" y="380" width="40" height="40" as="geometry"/>
                </mxCell>
                <mxCell id="107" value="&lt;font color=&quot;#000000&quot;&gt;&lt;i style=&quot;border-color: rgb(0, 0, 0); font-family: Helvetica; font-size: 20px; font-variant-ligatures: normal; font-variant-caps: normal; font-weight: 400; letter-spacing: normal; orphans: 2; text-indent: 0px; text-transform: none; widows: 2; word-spacing: 0px; -webkit-text-stroke-width: 0px; text-decoration-thickness: initial; text-decoration-style: initial; text-decoration-color: initial;&quot;&gt;&lt;font style=&quot;border-color: rgb(0, 0, 0); font-size: 30px;&quot;&gt;Ŝ:&amp;nbsp;&lt;/font&gt;&lt;/i&gt;&lt;span style=&quot;border-color: rgb(0, 0, 0); font-family: Helvetica; font-style: normal; font-variant-ligatures: normal; font-variant-caps: normal; font-weight: 400; letter-spacing: normal; orphans: 2; text-indent: 0px; text-transform: none; widows: 2; word-spacing: 0px; -webkit-text-stroke-width: 0px; text-decoration-thickness: initial; text-decoration-style: initial; text-decoration-color: initial; font-size: 30px;&quot;&gt;generated segmentation map&lt;/span&gt;&lt;/font&gt;" style="text;whiteSpace=wrap;html=1;fontSize=30;align=center;" vertex="1" parent="1">
                    <mxGeometry x="-320" y="717" width="258.57" height="60" as="geometry"/>
                </mxCell>
                <mxCell id="108" value="&lt;font style=&quot;border-color: rgb(0, 0, 0); color: rgb(5, 5, 5); font-family: Helvetica; font-size: 30px; font-style: normal; font-variant-ligatures: normal; font-variant-caps: normal; font-weight: 400; letter-spacing: normal; orphans: 2; text-indent: 0px; text-transform: none; widows: 2; word-spacing: 0px; -webkit-text-stroke-width: 0px; text-decoration-thickness: initial; text-decoration-style: initial; text-decoration-color: initial;&quot;&gt;&lt;i style=&quot;border-color: rgb(0, 0, 0);&quot;&gt;I&lt;sub style=&quot;border-color: rgb(0, 0, 0);&quot;&gt;a&lt;/sub&gt;:&amp;nbsp;&lt;/i&gt;&lt;/font&gt;&lt;span style=&quot;border-color: rgb(0, 0, 0); color: rgb(5, 5, 5); font-family: Helvetica; font-size: 30px; font-style: normal; font-variant-ligatures: normal; font-variant-caps: normal; font-weight: 400; letter-spacing: normal; orphans: 2; text-indent: 0px; text-transform: none; widows: 2; word-spacing: 0px; -webkit-text-stroke-width: 0px; text-decoration-thickness: initial; text-decoration-style: initial; text-decoration-color: initial;&quot;&gt;&lt;i style=&quot;border-color: rgb(0, 0, 0); font-style: normal;&quot;&gt;&lt;span style=&quot;border-color: rgb(0, 0, 0); font-style: normal;&quot;&gt;clothing-agnostic&lt;/span&gt;&amp;nbsp;&lt;/i&gt;&lt;span style=&quot;border-color: rgb(0, 0, 0);&quot;&gt;image&lt;/span&gt;&lt;/span&gt;" style="text;whiteSpace=wrap;html=1;fontSize=30;align=center;" vertex="1" parent="1">
                    <mxGeometry x="-170" y="440" width="310" height="60" as="geometry"/>
                </mxCell>
                <mxCell id="109" value="&lt;i style=&quot;border-color: rgb(0, 0, 0); font-family: Helvetica; font-size: 20px; font-variant-ligatures: normal; font-variant-caps: normal; font-weight: 400; letter-spacing: normal; orphans: 2; text-align: center; text-indent: 0px; text-transform: none; widows: 2; word-spacing: 0px; -webkit-text-stroke-width: 0px; text-decoration-thickness: initial; text-decoration-style: initial; text-decoration-color: initial;&quot;&gt;&lt;font style=&quot;border-color: rgb(0, 0, 0); font-size: 30px;&quot;&gt;P:&amp;nbsp;&lt;/font&gt;&lt;/i&gt;&lt;span style=&quot;border-color: rgb(0, 0, 0); font-family: Helvetica; font-style: normal; font-variant-ligatures: normal; font-variant-caps: normal; font-weight: 400; letter-spacing: normal; orphans: 2; text-align: center; text-indent: 0px; text-transform: none; widows: 2; word-spacing: 0px; -webkit-text-stroke-width: 0px; text-decoration-thickness: initial; text-decoration-style: initial; text-decoration-color: initial; font-size: 30px;&quot;&gt;dense pose&lt;/span&gt;" style="text;whiteSpace=wrap;html=1;fontSize=30;fontColor=#000000;" vertex="1" parent="1">
                    <mxGeometry x="-340" y="340" width="230" height="60" as="geometry"/>
                </mxCell>
                <mxCell id="110" value="&lt;i style=&quot;border-color: rgb(0, 0, 0); font-family: Helvetica; font-variant-ligatures: normal; font-variant-caps: normal; font-weight: 400; letter-spacing: normal; orphans: 2; text-indent: 0px; text-transform: none; widows: 2; word-spacing: 0px; -webkit-text-stroke-width: 0px; text-decoration-thickness: initial; text-decoration-style: initial; text-decoration-color: initial; font-size: 30px;&quot;&gt;Î&lt;sub style=&quot;border-color: rgb(0, 0, 0);&quot;&gt;c&lt;span&gt;&amp;nbsp;&lt;/span&gt;&lt;/sub&gt;:&lt;/i&gt;&lt;span style=&quot;border-color: rgb(0, 0, 0); font-family: Helvetica; font-style: normal; font-variant-ligatures: normal; font-variant-caps: normal; font-weight: 400; letter-spacing: normal; orphans: 2; text-indent: 0px; text-transform: none; widows: 2; word-spacing: 0px; -webkit-text-stroke-width: 0px; text-decoration-thickness: initial; text-decoration-style: initial; text-decoration-color: initial; font-size: 30px;&quot;&gt;&amp;nbsp;&lt;/span&gt;&lt;span style=&quot;border-color: rgb(0, 0, 0); font-family: Helvetica; font-style: normal; font-variant-ligatures: normal; font-variant-caps: normal; font-weight: 400; letter-spacing: normal; orphans: 2; text-indent: 0px; text-transform: none; widows: 2; word-spacing: 0px; -webkit-text-stroke-width: 0px; text-decoration-thickness: initial; text-decoration-style: initial; text-decoration-color: initial; font-size: 30px;&quot;&gt;warped clothing image&lt;/span&gt;" style="text;whiteSpace=wrap;html=1;fontSize=30;fontColor=#000000;align=center;" vertex="1" parent="1">
                    <mxGeometry x="-370" y="140" width="250" height="60" as="geometry"/>
                </mxCell>
                <mxCell id="111" value="" style="endArrow=none;html=1;strokeWidth=2;fontSize=30;fontColor=#000000;" edge="1" parent="1">
                    <mxGeometry width="50" height="50" relative="1" as="geometry">
                        <mxPoint x="300" y="720" as="sourcePoint"/>
                        <mxPoint x="300" y="200" as="targetPoint"/>
                    </mxGeometry>
                </mxCell>
                <mxCell id="112" value="" style="endArrow=none;html=1;strokeWidth=2;fontSize=30;fontColor=#000000;" edge="1" parent="1">
                    <mxGeometry width="50" height="50" relative="1" as="geometry">
                        <mxPoint x="300" y="720" as="sourcePoint"/>
                        <mxPoint x="1010" y="720" as="targetPoint"/>
                    </mxGeometry>
                </mxCell>
                <mxCell id="113" value="" style="endArrow=none;html=1;strokeWidth=2;fontSize=30;fontColor=#000000;" edge="1" parent="1">
                    <mxGeometry width="50" height="50" relative="1" as="geometry">
                        <mxPoint x="300" y="200" as="sourcePoint"/>
                        <mxPoint x="1010" y="200" as="targetPoint"/>
                    </mxGeometry>
                </mxCell>
                <mxCell id="114" value="" style="endArrow=none;html=1;strokeWidth=2;fontSize=30;fontColor=#000000;" edge="1" parent="1">
                    <mxGeometry width="50" height="50" relative="1" as="geometry">
                        <mxPoint x="1010" y="720" as="sourcePoint"/>
                        <mxPoint x="1010" y="200" as="targetPoint"/>
                    </mxGeometry>
                </mxCell>
            </root>
        </mxGraphModel>
    </diagram>
</mxfile>